<svg width="105" height="105" viewBox="0 0 105 105" fill="none" xmlns="http://www.w3.org/2000/svg">
<path d="M1.38828 86.64C1.38828 85.5 2.48828 84.6 3.54828 85.1C4.10828 85.38 4.40828 85.86 4.48828 86.54C4.50828 86.74 4.50828 86.94 4.50828 87.14C4.40828 89.92 4.30828 92.7 4.22828 95.46C4.18828 96.68 4.14828 97.9 4.14828 99.12C4.12828 99.78 3.88828 100.26 3.36828 100.58C2.82828 100.88 2.28828 100.88 1.76828 100.52C1.26828 100.18 1.00828 99.66 1.02828 99.02C1.04828 97.66 1.06828 96.32 1.10828 94.96C1.18828 92.12 1.34828 89.38 1.38828 86.64ZM9.39859 86.24C8.85859 90.04 8.95859 94.58 9.05859 98.5C9.05859 98.72 9.05859 98.96 9.03859 99.18C8.99859 99.96 8.47859 100.5 7.71859 100.58C6.93859 100.68 6.25859 100.26 6.03859 99.52C5.97859 99.32 5.95859 99.08 5.93859 98.86C5.77859 95.8 5.75859 89.96 6.35859 85.4C6.47859 84.36 7.59859 83.82 8.53859 84.26C9.39859 84.68 9.53859 85.32 9.39859 86.24ZM14.2619 86.24C13.7219 90.04 13.8219 94.58 13.9219 98.5C13.9219 98.72 13.9219 98.96 13.9019 99.18C13.8619 99.96 13.3419 100.5 12.5819 100.58C11.8019 100.68 11.1219 100.26 10.9019 99.52C10.8419 99.32 10.8219 99.08 10.8019 98.86C10.6419 95.8 10.6219 89.96 11.2219 85.4C11.3419 84.36 12.4619 83.82 13.4019 84.26C14.2619 84.68 14.4019 85.32 14.2619 86.24ZM19.4452 100.08C14.9252 98.94 15.0052 93.14 16.3052 89.8C16.7852 88.48 18.0052 88 18.8652 88.46C19.4452 88.78 19.9852 89.56 19.4852 90.7C19.0852 91.66 18.7652 93.54 19.0252 95.02C19.4852 97.86 22.4052 97.66 22.9052 95.04C23.1652 93.68 22.7852 91.56 22.6652 90.7C22.4852 89.44 23.0852 88.6 24.0852 88.5C24.9852 88.42 25.7652 89.04 25.9452 90.06C26.1852 91.34 26.3652 92.88 26.3452 94.3C26.2452 97.88 23.4052 101.1 19.4452 100.08ZM31.7084 96.5C30.5084 95.48 29.1684 94.8 28.3484 93.64C27.4284 92.4 27.6684 90.98 28.3684 89.84C29.4284 88.18 31.3884 87.34 33.1684 86.8C35.7684 86.02 36.3084 89.42 33.9484 89.72C32.8884 89.84 29.8084 91.18 31.4284 92.48C32.4884 93.36 33.6484 93.94 34.4484 95.02C35.0084 95.78 35.3884 96.6 35.3684 97.56C35.3284 99.12 34.0884 100.4 32.3884 100.5C31.4284 100.56 30.4484 100.46 29.4684 100.44C29.4084 100.44 29.3484 100.42 29.2884 100.42C28.4884 100.24 27.9684 99.56 28.0484 98.8C28.1284 98.04 28.7884 97.48 29.6284 97.5C30.1684 97.52 30.7084 97.56 31.2484 97.58C32.2084 97.64 32.5284 97.2 31.7084 96.5ZM39.9328 93.8C39.4528 93.8 39.0528 93.82 38.6328 93.8C38.3528 93.78 38.0528 93.76 37.7928 93.68C37.1128 93.44 36.7528 92.86 36.8128 92.2C36.9528 90.74 38.6328 90.9 39.6328 90.82C39.7928 90.82 39.9528 90.8 40.1728 90.78C40.3728 88.86 40.5928 87.04 40.8528 85.24C40.9928 84.22 41.9128 83.62 42.8528 83.9C43.5728 84.1 44.0128 84.68 43.9328 85.5C43.8128 87.28 43.5128 88.98 43.3328 90.7C43.6928 90.7 43.9928 90.68 44.2928 90.7C45.2528 90.76 46.2128 91.1 46.2528 92.16C46.2728 92.76 45.8728 93.32 45.2728 93.52C45.0128 93.62 44.7328 93.64 44.4728 93.66C44.0528 93.68 43.6128 93.66 43.1128 93.66C43.0528 95.14 42.8528 96.68 42.8728 98.88C42.8728 99.66 42.6528 100.26 41.9528 100.52C40.6728 101.02 39.7328 99.88 39.7328 98.74C39.7728 96.68 39.8728 95.24 39.9328 93.8ZM50.3755 90.3C54.2955 86.12 58.7355 89.5 57.7955 94.52C57.5955 95.64 56.2755 96.16 55.3555 95.54C54.8555 95.2 54.6555 94.74 54.7155 94.16C54.8555 92.36 53.9955 90.58 52.1355 91.94C50.7355 92.98 51.0955 96.32 51.5355 97.94C51.5955 98.14 51.6355 98.36 51.6555 98.56C51.7155 99.38 51.2955 100.02 50.5555 100.22C49.8155 100.42 48.8955 100.22 48.5755 99.52C48.4155 99.18 48.3755 98.64 48.2755 98.24C47.5755 95.5 47.4355 92.74 47.1555 90C47.0755 89.12 47.6755 88.42 48.5555 88.32C49.3555 88.22 50.0955 88.78 50.2555 89.62C50.2755 89.82 50.3155 90.02 50.3755 90.3ZM65.6891 93.48C65.6891 89.92 63.4891 89.94 62.2491 92.02C61.7891 92.78 60.8491 93 60.0891 92.56C59.3291 92.12 59.0891 91.26 59.5691 90.46C59.8091 90.06 60.1091 89.68 60.4491 89.36C63.1091 86.9 66.7291 87.18 68.1091 89.98C68.9491 91.64 68.8491 94.28 69.0291 96.08C69.1091 97.14 69.1891 98.02 68.8491 99C68.6091 99.66 67.8491 100 67.1491 99.82C66.7491 99.72 66.4491 99.8 66.0891 99.96C64.8091 100.62 63.4691 100.84 62.0491 100.54C58.4491 99.78 58.7691 95.1 61.7691 93.78C62.9691 93.24 64.4291 93.28 65.6891 93.48ZM65.5291 96.84C64.9891 95.74 62.7491 95.8 62.6291 97.02C62.5891 97.52 63.1891 97.96 64.3291 97.62C64.7891 97.48 65.2291 97.24 65.5291 96.84ZM73.5266 93.8C73.0466 93.8 72.6466 93.82 72.2266 93.8C71.9466 93.78 71.6466 93.76 71.3866 93.68C70.7066 93.44 70.3466 92.86 70.4066 92.2C70.5466 90.74 72.2266 90.9 73.2266 90.82C73.3866 90.82 73.5466 90.8 73.7666 90.78C73.9666 88.86 74.1866 87.04 74.4466 85.24C74.5866 84.22 75.5066 83.62 76.4466 83.9C77.1666 84.1 77.6066 84.68 77.5266 85.5C77.4066 87.28 77.1066 88.98 76.9266 90.7C77.2866 90.7 77.5866 90.68 77.8866 90.7C78.8466 90.76 79.8066 91.1 79.8466 92.16C79.8666 92.76 79.4666 93.32 78.8666 93.52C78.6066 93.62 78.3266 93.64 78.0666 93.66C77.6466 93.68 77.2066 93.66 76.7066 93.66C76.6466 95.14 76.4466 96.68 76.4666 98.88C76.4666 99.66 76.2466 100.26 75.5466 100.52C74.2666 101.02 73.3266 99.88 73.3266 98.74C73.3666 96.68 73.4666 95.24 73.5266 93.8ZM83.0892 90.04C85.2092 87.7 88.3092 87.56 90.3092 89.98C91.5892 91.52 92.1492 93.8 91.6692 95.72C90.5292 99.94 85.9692 101.6 82.9492 98.9C80.3892 96.68 81.0692 92.24 83.0892 90.04ZM88.6692 95.34C89.2292 93.7 88.6092 91.42 86.8492 91.32C85.4492 91.26 84.0692 93.56 84.3292 95.26C84.7692 97.98 87.9292 97.68 88.6692 95.34ZM96.0981 90.3C100.018 86.12 104.458 89.5 103.518 94.52C103.318 95.64 101.998 96.16 101.078 95.54C100.578 95.2 100.378 94.74 100.438 94.16C100.578 92.36 99.7181 90.58 97.8581 91.94C96.4581 92.98 96.8181 96.32 97.2581 97.94C97.3181 98.14 97.3581 98.36 97.3781 98.56C97.4381 99.38 97.0181 100.02 96.2781 100.22C95.5381 100.42 94.6181 100.22 94.2981 99.52C94.1381 99.18 94.0981 98.64 93.9981 98.24C93.2981 95.5 93.1581 92.74 92.8781 90C92.7981 89.12 93.3981 88.42 94.2781 88.32C95.0781 88.22 95.8181 88.78 95.9781 89.62C95.9981 89.82 96.0381 90.02 96.0981 90.3Z" fill="#202246"/>
<g clip-path="url(#clip0_119_2347)">
<path d="M74.703 0H31.297C25.6101 0 21 4.61013 21 10.297V53.703C21 59.3899 25.6101 64 31.297 64H74.703C80.3899 64 85 59.3899 85 53.703V10.297C85 4.61013 80.3899 0 74.703 0Z" fill="#F8C128"/>
<path d="M43.7263 38.6807C43.6888 39.0397 43.6459 39.3986 43.6459 39.7576C43.6834 41.6755 43.8067 43.5506 43.8442 45.4632C43.8817 47.5794 42.2476 48.9349 40.1743 48.5759C38.8564 48.3777 37.817 47.3383 37.6617 45.8597C37.5438 44.6221 37.4634 43.3042 37.4634 42.0291C37.3831 37.7967 37.3027 33.5269 37.9027 29.257C38.5831 24.3067 41.4976 17.4813 46.3675 15.8419C50.1606 14.524 54.7894 15.8794 56.8681 19.8332C58.3039 22.5495 58.8664 25.421 59.0218 28.4159C59.3004 33.8429 59.0218 39.2754 58.7807 44.6596C58.7003 46.3365 57.8646 47.4562 56.4663 47.8527C54.393 48.4527 52.475 47.0169 52.5125 44.8578C52.55 43.1006 52.6732 41.3862 52.7536 39.629V38.2736C49.6784 37.9521 46.7265 37.995 43.7316 38.6754L43.7263 38.6807ZM52.9089 31.7375C52.7482 29.182 52.8286 26.7497 52.0732 24.4728C50.3963 19.4421 46.0032 22.1959 44.4067 28.3033C44.0477 29.6213 43.887 31.0196 43.887 32.4554C46.8818 32.3375 49.7963 32.2571 52.8286 32.1768C52.8661 32.0589 52.9089 31.8982 52.9089 31.7375Z" fill="#202346"/>
<path d="M64.9257 28.1427C66.6829 28.1052 68.0383 29.3802 68.0812 31.2553C68.1187 34.0894 68.1616 39.5594 68.0812 42.3935C68.0437 44.5471 66.1632 45.9079 64.1703 45.3883C62.8148 45.0293 61.9362 44.0328 61.8934 42.6345C61.8934 35.1288 61.9737 33.2537 61.8934 31.3786C61.813 29.541 63.2488 28.1855 64.9257 28.1427ZM62.3327 22.7531C62.3327 21.1191 63.6506 19.8386 65.365 19.8386C67.0794 19.8386 68.558 21.1566 68.6009 22.7531C68.6384 24.3925 67.2829 25.6675 65.5686 25.6675C63.8542 25.6675 62.3755 24.3925 62.3327 22.7531Z" fill="#202346"/>
</g>
<defs>
<clipPath id="clip0_119_2347">
<rect width="64" height="64" fill="white" transform="translate(21)"/>
</clipPath>
</defs>
</svg>
