<svg width="143" height="100" viewBox="0 0 143 100" fill="none" xmlns="http://www.w3.org/2000/svg">
<g clip-path="url(#clip0_123_1459)">
<path d="M92.7015 0H49.2985C43.6108 0 39 4.61079 39 10.2985V53.7015C39 59.3892 43.6108 64 49.2985 64H92.7015C98.3892 64 103 59.3892 103 53.7015V10.2985C103 4.61079 98.3892 0 92.7015 0Z" fill="#B782B7"/>
<path d="M55.2843 38.6829C55.2419 39.0431 55.2049 39.4033 55.2049 39.7583C55.2472 41.676 55.3638 43.5513 55.4062 45.4691C55.4486 47.5828 53.8116 48.939 51.735 48.584C50.4159 48.3827 49.3775 47.3444 49.2186 45.8717C49.0968 44.6373 49.0173 43.3183 49.0173 42.0415C48.9378 37.8088 48.8584 33.5389 49.457 29.2691C50.1351 24.3211 53.0487 17.4926 57.9172 15.8556C61.7103 14.5365 66.3404 15.898 68.417 19.85C69.8527 22.5624 70.4142 25.4389 70.5731 28.4321C70.8539 33.8621 70.5731 39.2921 70.3347 44.6797C70.2553 46.3538 69.4183 47.4715 68.0197 47.8742C65.943 48.4728 64.0306 47.0371 64.0677 44.881C64.1101 43.1275 64.2266 41.4111 64.3061 39.6523V38.2962C61.2335 37.9783 58.2775 38.0154 55.2843 38.6935V38.6829ZM64.465 31.7378C64.3061 29.1843 64.3856 26.7474 63.628 24.4748C61.954 19.4474 57.5623 22.2021 55.9624 28.3049C55.6022 29.624 55.4433 31.0173 55.4433 32.4582C58.4364 32.3364 61.35 32.2569 64.3856 32.1775C64.4279 32.0556 64.465 31.8967 64.465 31.7378Z" fill="#202346"/>
<path d="M87.0965 39.4776C88.013 38.9584 88.8924 38.6405 89.9307 38.9213C92.1663 39.5623 92.9238 41.9939 91.3293 43.7103C90.1691 44.95 88.654 45.628 86.9799 45.9459C78.5568 47.5405 73.3281 41.5171 73.291 34.4925C73.291 27.6269 77.5238 22.2763 84.1881 21.8366C95.7262 21.1586 95.9646 37.4433 85.0251 37.5651C83.5895 37.6075 82.1115 37.5651 80.4321 37.5651C80.9089 40.198 84.5854 40.9185 87.0965 39.4829V39.4776ZM83.7431 31.7325C87.817 31.7325 88.2514 27.6587 84.4212 27.6587C82.3869 27.6163 80.5487 29.534 80.0295 31.5683C81.3062 31.6477 82.5035 31.7272 83.7431 31.7272V31.7325Z" fill="#202346"/>
</g>
<path d="M8.35227 91.48C6.81227 91.32 5.33227 91.34 3.83227 91.68C3.81227 91.86 3.79227 92.04 3.79227 92.22C3.81227 93.18 3.87227 94.12 3.89227 95.08C3.91227 96.14 3.09227 96.82 2.05227 96.64C1.39227 96.54 0.872266 96.02 0.792266 95.28C0.732266 94.66 0.692266 94 0.692266 93.36C0.652266 91.24 0.612266 89.1 0.912266 86.96C1.25227 84.48 2.71227 81.06 5.15227 80.24C7.05227 79.58 9.37227 80.26 10.4123 82.24C11.1323 83.6 11.4123 85.04 11.4923 86.54C11.6323 89.26 11.4923 91.98 11.3723 94.68C11.3323 95.52 10.9123 96.08 10.2123 96.28C9.17227 96.58 8.21227 95.86 8.23227 94.78C8.25227 93.9 8.31227 93.04 8.35227 92.16C8.35227 91.96 8.35227 91.76 8.35227 91.48ZM8.39227 88.42C8.41227 88.36 8.43227 88.28 8.43227 88.2C8.35227 86.92 8.39227 85.7 8.01227 84.56C7.17227 82.04 4.97227 83.42 4.17227 86.48C3.99227 87.14 3.91227 87.84 3.91227 88.56C5.41227 88.5 6.87227 88.46 8.39227 88.42ZM18.2793 85.06C18.1593 86.58 18.3393 88.46 18.5393 89.44C18.8593 89.44 19.1593 89.44 19.4393 89.44C20.2393 89.44 21.0593 89.42 21.8593 89.44C22.5193 89.46 23.0393 89.7 23.3593 90.28C23.8993 91.24 23.1793 92.36 21.9793 92.38C20.7393 92.38 19.7993 92.36 18.8593 92.36C19.0193 93.98 19.2593 95.5 19.5993 97.06C19.6993 97.64 19.4393 98.28 18.8993 98.6C18.2993 98.96 17.4993 98.9 16.9793 98.44C16.5393 98.08 16.2993 97.32 16.1393 96.46C15.8793 94.96 15.8193 93.68 15.6793 92.44C14.5193 92.46 12.8593 92.4 12.8593 91C12.8593 89.84 13.9193 89.6 14.7793 89.48C14.9593 89.46 15.1393 89.46 15.3593 89.44C15.2193 87.76 15.1793 86.2 15.1793 84.64C15.1793 80.36 18.5793 79.66 21.6993 81.5C22.3993 81.92 23.0593 82.4 23.5393 82.88C24.0993 83.5 24.1793 84.24 23.7393 84.82C23.2793 85.4 22.3993 85.58 21.7193 85.22C20.0993 84.24 18.3793 81.98 18.2793 85.06ZM28.2863 88.8C27.8063 88.8 27.4063 88.82 26.9863 88.8C26.7063 88.78 26.4063 88.76 26.1463 88.68C25.4663 88.44 25.1063 87.86 25.1663 87.2C25.3063 85.74 26.9863 85.9 27.9863 85.82C28.1463 85.82 28.3063 85.8 28.5263 85.78C28.7263 83.86 28.9463 82.04 29.2063 80.24C29.3463 79.22 30.2663 78.62 31.2063 78.9C31.9263 79.1 32.3663 79.68 32.2863 80.5C32.1663 82.28 31.8663 83.98 31.6863 85.7C32.0463 85.7 32.3463 85.68 32.6463 85.7C33.6063 85.76 34.5663 86.1 34.6063 87.16C34.6263 87.76 34.2263 88.32 33.6263 88.52C33.3663 88.62 33.0863 88.64 32.8263 88.66C32.4063 88.68 31.9663 88.66 31.4663 88.66C31.4063 90.14 31.2063 91.68 31.2263 93.88C31.2263 94.66 31.0063 95.26 30.3063 95.52C29.0263 96.02 28.0863 94.88 28.0863 93.74C28.1263 91.68 28.2263 90.24 28.2863 88.8ZM39.369 91.12C39.609 92.44 41.449 92.8 42.709 92.08C43.169 91.82 43.609 91.66 44.129 91.8C45.249 92.12 45.629 93.34 44.829 94.2C44.249 94.82 43.489 95.16 42.649 95.32C38.429 96.12 35.809 93.1 35.789 89.58C35.789 86.14 37.909 83.46 41.249 83.24C47.029 82.9 47.149 91.06 41.669 91.12C40.949 91.14 40.209 91.12 39.369 91.12ZM39.169 88.12C39.809 88.16 40.409 88.2 41.029 88.2C43.069 88.2 43.289 86.16 41.369 86.16C40.349 86.14 39.429 87.1 39.169 88.12ZM49.9009 85.3C53.8209 81.12 58.2609 84.5 57.3209 89.52C57.1209 90.64 55.8009 91.16 54.8809 90.54C54.3809 90.2 54.1809 89.74 54.2409 89.16C54.3809 87.36 53.5209 85.58 51.6609 86.94C50.2609 87.98 50.6209 91.32 51.0609 92.94C51.1209 93.14 51.1609 93.36 51.1809 93.56C51.2409 94.38 50.8209 95.02 50.0809 95.22C49.3409 95.42 48.4209 95.22 48.1009 94.52C47.9409 94.18 47.9009 93.64 47.8009 93.24C47.1009 90.5 46.9609 87.74 46.6809 85C46.6009 84.12 47.2009 83.42 48.0809 83.32C48.8809 83.22 49.6209 83.78 49.7809 84.62C49.8009 84.82 49.8409 85.02 49.9009 85.3ZM69.4777 82.76C69.5177 84.14 69.5377 85.46 69.5777 86.82C70.1777 86.82 70.7377 86.8 71.2777 86.82C71.5977 86.84 71.9177 86.86 72.1977 86.96C72.9177 87.2 73.3377 87.9 73.2177 88.56C73.0977 89.24 72.5177 89.76 71.7777 89.78C71.2777 89.8 70.7777 89.78 70.2777 89.78C70.0577 89.78 69.8377 89.8 69.5377 89.82C69.4977 90.84 69.4577 91.84 69.4177 92.86C70.4177 93 72.3777 92.88 73.3377 92.8C74.8777 92.68 75.3977 94.6 74.0377 95.4C73.7377 95.58 73.3777 95.72 73.0577 95.74C71.6577 95.82 69.7577 95.86 68.3577 95.88C68.1777 95.88 67.9977 95.84 67.8177 95.8C66.8577 95.58 66.2977 94.92 66.3177 93.94C66.3177 92.54 66.3777 91.16 66.3977 89.76C66.4577 87.32 66.5177 84.3 66.2577 81.86C66.1377 80.72 66.9377 79.74 68.1377 79.8C70.1177 79.86 71.6777 79.88 73.2377 79.98C74.1377 80.06 75.0377 80.36 75.0777 81.42C75.0977 82.1 74.6377 82.74 73.8777 82.86C72.3977 83.12 70.9377 82.64 69.4777 82.76ZM81.4629 85.06C81.3429 86.58 81.5229 88.46 81.7229 89.44C82.0429 89.44 82.3429 89.44 82.6229 89.44C83.4229 89.44 84.2429 89.42 85.0429 89.44C85.7029 89.46 86.2229 89.7 86.5429 90.28C87.0829 91.24 86.3629 92.36 85.1629 92.38C83.9229 92.38 82.9829 92.36 82.0429 92.36C82.2029 93.98 82.4429 95.5 82.7829 97.06C82.8829 97.64 82.6229 98.28 82.0829 98.6C81.4829 98.96 80.6829 98.9 80.1629 98.44C79.7229 98.08 79.4829 97.32 79.3229 96.46C79.0629 94.96 79.0029 93.68 78.8629 92.44C77.7029 92.46 76.0429 92.4 76.0429 91C76.0429 89.84 77.1029 89.6 77.9629 89.48C78.1429 89.46 78.3229 89.46 78.5429 89.44C78.4029 87.76 78.3629 86.2 78.3629 84.64C78.3629 80.36 81.7629 79.66 84.8829 81.5C85.5829 81.92 86.2429 82.4 86.7229 82.88C87.2829 83.5 87.3629 84.24 86.9229 84.82C86.4629 85.4 85.5829 85.58 84.9029 85.22C83.2829 84.24 81.5629 81.98 81.4629 85.06ZM93.6699 85.06C93.5499 86.58 93.7299 88.46 93.9299 89.44C94.2499 89.44 94.5499 89.44 94.8299 89.44C95.6299 89.44 96.4499 89.42 97.2499 89.44C97.9099 89.46 98.4299 89.7 98.7499 90.28C99.2899 91.24 98.5699 92.36 97.3699 92.38C96.1299 92.38 95.1899 92.36 94.2499 92.36C94.4099 93.98 94.6499 95.5 94.9899 97.06C95.0899 97.64 94.8299 98.28 94.2899 98.6C93.6899 98.96 92.8899 98.9 92.3699 98.44C91.9299 98.08 91.6899 97.32 91.5299 96.46C91.2699 94.96 91.2099 93.68 91.0699 92.44C89.9099 92.46 88.2499 92.4 88.2499 91C88.2499 89.84 89.3099 89.6 90.1699 89.48C90.3499 89.46 90.5299 89.46 90.7499 89.44C90.6099 87.76 90.5699 86.2 90.5699 84.64C90.5699 80.36 93.9699 79.66 97.0899 81.5C97.7899 81.92 98.4499 82.4 98.9299 82.88C99.4899 83.5 99.5699 84.24 99.1299 84.82C98.6699 85.4 97.7899 85.58 97.1099 85.22C95.4899 84.24 93.7699 81.98 93.6699 85.06ZM104.037 91.12C104.277 92.44 106.117 92.8 107.377 92.08C107.837 91.82 108.277 91.66 108.797 91.8C109.917 92.12 110.297 93.34 109.497 94.2C108.917 94.82 108.157 95.16 107.317 95.32C103.097 96.12 100.477 93.1 100.457 89.58C100.457 86.14 102.577 83.46 105.917 83.24C111.697 82.9 111.817 91.06 106.337 91.12C105.617 91.14 104.877 91.12 104.037 91.12ZM103.837 88.12C104.477 88.16 105.077 88.2 105.697 88.2C107.737 88.2 107.957 86.16 106.037 86.16C105.017 86.14 104.097 87.1 103.837 88.12ZM111.609 89.76C111.229 86.98 113.209 84 115.889 83.22C117.029 82.88 118.149 82.94 119.269 83.28C119.809 83.44 120.329 83.66 120.809 83.92C121.489 84.26 121.789 84.94 121.609 85.58C121.409 86.24 120.789 86.7 120.029 86.64C119.669 86.6 119.309 86.46 118.969 86.32C117.509 85.74 116.089 86 115.289 87.22C114.729 88.06 114.569 89.14 114.889 90.12C115.549 92.14 118.009 92.42 119.709 92C119.989 91.92 120.349 91.94 120.629 92.02C121.189 92.18 121.549 92.58 121.649 93.18C121.729 93.74 121.489 94.18 121.069 94.54C120.569 94.94 119.969 95 119.369 95.06C118.869 95.1 118.369 95.1 117.889 95.08C114.589 94.9 112.069 93.04 111.609 89.76ZM126.021 88.8C125.541 88.8 125.141 88.82 124.721 88.8C124.441 88.78 124.141 88.76 123.881 88.68C123.201 88.44 122.841 87.86 122.901 87.2C123.041 85.74 124.721 85.9 125.721 85.82C125.881 85.82 126.041 85.8 126.261 85.78C126.461 83.86 126.681 82.04 126.941 80.24C127.081 79.22 128.001 78.62 128.941 78.9C129.661 79.1 130.101 79.68 130.021 80.5C129.901 82.28 129.601 83.98 129.421 85.7C129.781 85.7 130.081 85.68 130.381 85.7C131.341 85.76 132.301 86.1 132.341 87.16C132.361 87.76 131.961 88.32 131.361 88.52C131.101 88.62 130.821 88.64 130.561 88.66C130.141 88.68 129.701 88.66 129.201 88.66C129.141 90.14 128.941 91.68 128.961 93.88C128.961 94.66 128.741 95.26 128.041 95.52C126.761 96.02 125.821 94.88 125.821 93.74C125.861 91.68 125.961 90.24 126.021 88.8ZM137.503 91.5C136.303 90.48 134.963 89.8 134.143 88.64C133.223 87.4 133.463 85.98 134.163 84.84C135.223 83.18 137.183 82.34 138.963 81.8C141.563 81.02 142.103 84.42 139.743 84.72C138.683 84.84 135.603 86.18 137.223 87.48C138.283 88.36 139.443 88.94 140.243 90.02C140.803 90.78 141.183 91.6 141.163 92.56C141.123 94.12 139.883 95.4 138.183 95.5C137.223 95.56 136.243 95.46 135.263 95.44C135.203 95.44 135.143 95.42 135.083 95.42C134.283 95.24 133.763 94.56 133.843 93.8C133.923 93.04 134.583 92.48 135.423 92.5C135.963 92.52 136.503 92.56 137.043 92.58C138.003 92.64 138.323 92.2 137.503 91.5Z" fill="#202246"/>
<defs>
<clipPath id="clip0_123_1459">
<rect width="64" height="64" fill="white" transform="translate(39)"/>
</clipPath>
</defs>
</svg>
