<svg width="84" height="100" viewBox="0 0 84 100" fill="none" xmlns="http://www.w3.org/2000/svg">
<g clip-path="url(#clip0_753_2751)">
<path d="M63.703 0H20.297C14.6101 0 10 4.61013 10 10.297V53.703C10 59.3899 14.6101 64 20.297 64H63.703C69.3899 64 74 59.3899 74 53.703V10.297C74 4.61013 69.3899 0 63.703 0Z" fill="#B782B7"/>
<path d="M33.1186 37.9194C30.09 37.6047 27.1793 37.644 24.2293 38.3127C24.19 38.6667 24.1506 39.0207 24.1506 39.3747C24.19 41.2627 24.308 43.1114 24.3473 44.9994C24.3866 47.084 22.774 48.4214 20.7286 48.0674C19.4306 47.8707 18.408 46.848 18.2506 45.3927C18.1326 44.1734 18.054 42.8754 18.054 41.6167C17.9753 37.4474 17.8966 33.2387 18.4866 29.03C19.1553 24.1527 22.0266 17.4267 26.8253 15.814C30.562 14.516 35.1246 15.8534 37.17 19.7474C38.586 22.422 39.1366 25.254 39.294 28.204C39.5693 33.5534 39.294 38.9027 39.058 44.2127C38.9793 45.8647 38.1533 46.966 36.7766 47.3594C34.7313 47.9494 32.8433 46.5334 32.8826 44.4094C32.922 42.6787 33.04 40.9874 33.1186 39.2567C33.1186 38.8634 33.1186 38.47 33.1186 37.9194ZM33.1973 31.9014C33.2366 31.7834 33.276 31.626 33.276 31.4687C33.1186 28.9514 33.1973 26.552 32.45 24.31C30.798 19.354 26.4713 22.068 24.898 28.086C24.544 29.384 24.3866 30.7607 24.3866 32.1767C27.3366 32.0587 30.208 31.98 33.1973 31.9014Z" fill="#202246"/>
<path d="M48.0398 27.85C50.5571 23.602 55.6311 20.4554 61.0985 22.9727C63.3405 23.9954 64.7565 25.9227 65.4645 28.4794C66.7625 33.16 65.3465 38.1554 64.0485 42.4427C63.4978 44.3307 61.8458 45.2747 60.1545 44.724C58.5811 44.2127 57.7945 42.7967 58.1091 40.9874C58.2271 40.122 58.5025 39.2567 58.6991 38.3914C59.0531 36.7394 59.4465 35.1267 59.6431 33.4747C60.3905 26.9847 55.6705 27.6534 52.9565 31.98C51.0291 34.9694 50.8325 38.2734 50.8325 41.4987C50.8718 43.4654 49.8098 44.9207 48.1971 45.1567C46.5058 45.432 45.0505 44.4094 44.6178 42.4427C43.9491 39.3747 43.3985 36.2674 42.7298 33.1207C42.2578 30.918 41.7858 28.7547 41.2745 26.5914C40.8025 24.5854 41.5105 22.9334 43.1625 22.3434C44.8145 21.7927 46.5058 22.658 47.1745 24.5067C47.5285 25.5687 47.7251 26.6307 48.0398 27.85Z" fill="#202246"/>
</g>
<path d="M8.75461 91.48C7.21461 91.32 5.73461 91.34 4.23461 91.68C4.21461 91.86 4.19461 92.04 4.19461 92.22C4.21461 93.18 4.27461 94.12 4.29461 95.08C4.31461 96.14 3.49461 96.82 2.45461 96.64C1.79461 96.54 1.27461 96.02 1.19461 95.28C1.13461 94.66 1.09461 94 1.09461 93.36C1.05461 91.24 1.01461 89.1 1.31461 86.96C1.65461 84.48 3.11461 81.06 5.55461 80.24C7.45461 79.58 9.77461 80.26 10.8146 82.24C11.5346 83.6 11.8146 85.04 11.8946 86.54C12.0346 89.26 11.8946 91.98 11.7746 94.68C11.7346 95.52 11.3146 96.08 10.6146 96.28C9.57461 96.58 8.61461 95.86 8.63461 94.78C8.65461 93.9 8.71461 93.04 8.75461 92.16C8.75461 91.96 8.75461 91.76 8.75461 91.48ZM8.79461 88.42C8.81461 88.36 8.83461 88.28 8.83461 88.2C8.75461 86.92 8.79461 85.7 8.41461 84.56C7.57461 82.04 5.37461 83.42 4.57461 86.48C4.39461 87.14 4.31461 87.84 4.31461 88.56C5.81461 88.5 7.27461 88.46 8.79461 88.42ZM16.3416 86.36C17.6216 84.2 20.2016 82.6 22.9816 83.88C24.1216 84.4 24.8416 85.38 25.2016 86.68C25.8616 89.06 25.1416 91.6 24.4816 93.78C24.2016 94.74 23.3616 95.22 22.5016 94.94C21.7016 94.68 21.3016 93.96 21.4616 93.04C21.5216 92.6 21.6616 92.16 21.7616 91.72C21.9416 90.88 22.1416 90.06 22.2416 89.22C22.6216 85.92 20.2216 86.26 18.8416 88.46C17.8616 89.98 17.7616 91.66 17.7616 93.3C17.7816 94.3 17.2416 95.04 16.4216 95.16C15.5616 95.3 14.8216 94.78 14.6016 93.78C14.2616 92.22 13.9816 90.64 13.6416 89.04C13.4016 87.92 13.1616 86.82 12.9016 85.72C12.6616 84.7 13.0216 83.86 13.8616 83.56C14.7016 83.28 15.5616 83.72 15.9016 84.66C16.0816 85.2 16.1816 85.74 16.3416 86.36ZM27.1307 88.02C27.0907 87.1 27.8107 86.42 28.6507 86.4C29.5307 86.38 30.2107 87.02 30.2307 87.96C30.2507 89.38 30.2707 92.12 30.2307 93.54C30.2107 94.62 29.2707 95.3 28.2707 95.04C27.5907 94.86 27.1507 94.36 27.1307 93.66C27.1307 89.9 27.1707 88.96 27.1307 88.02ZM28.9707 85.16C28.0707 85.16 27.3707 84.52 27.3507 83.7C27.3507 82.88 28.0107 82.24 28.8707 82.24C29.7507 82.24 30.4707 82.9 30.4907 83.7C30.5107 84.52 29.8307 85.16 28.9707 85.16ZM34.9787 93.74C34.7587 94.88 33.8787 95.44 32.9187 95.14C32.3187 94.94 31.9387 94.48 31.8587 93.78C31.4587 90.92 31.8987 87.22 32.3987 84.86C32.5787 84.16 32.9987 83.68 33.6987 83.56C34.7787 83.34 35.6387 84.24 35.4987 85.42C35.4587 85.68 35.3387 86.52 35.2787 86.9C37.1187 85.14 38.4787 86.2 39.4587 87.88C40.3187 86.68 41.1187 85.66 42.3987 85.14C43.8387 84.58 45.4387 85.02 46.3987 86.32C47.7387 88.24 48.2187 90.64 48.9387 92.78C49.1787 93.54 48.9787 94.26 48.3787 94.68C47.7987 95.12 46.9587 95.1 46.4587 94.54C46.1787 94.22 45.9587 93.78 45.7987 93.34C45.3987 92.22 45.0587 91.04 44.6587 89.9C43.9387 87.92 42.8587 87.76 42.0587 89.86C41.6387 90.92 41.4387 91.92 41.1587 92.88C40.9387 93.6 40.4787 94.04 39.8187 94.16C39.1187 94.28 38.5187 94 38.1187 93.36C37.8987 93.02 37.7187 92.62 37.6187 92.2C36.3587 87.12 35.5587 90.62 34.9787 93.74ZM56.5934 88.48C56.5934 84.92 54.3934 84.94 53.1534 87.02C52.6934 87.78 51.7534 88 50.9934 87.56C50.2334 87.12 49.9934 86.26 50.4734 85.46C50.7134 85.06 51.0134 84.68 51.3534 84.36C54.0134 81.9 57.6334 82.18 59.0134 84.98C59.8534 86.64 59.7534 89.28 59.9334 91.08C60.0134 92.14 60.0934 93.02 59.7534 94C59.5134 94.66 58.7534 95 58.0534 94.82C57.6534 94.72 57.3534 94.8 56.9934 94.96C55.7134 95.62 54.3734 95.84 52.9534 95.54C49.3534 94.78 49.6734 90.1 52.6734 88.78C53.8734 88.24 55.3334 88.28 56.5934 88.48ZM56.4334 91.84C55.8934 90.74 53.6534 90.8 53.5334 92.02C53.4934 92.52 54.0934 92.96 55.2334 92.62C55.6934 92.48 56.1334 92.24 56.4334 91.84ZM64.4309 88.8C63.9509 88.8 63.5509 88.82 63.1309 88.8C62.8509 88.78 62.5509 88.76 62.2909 88.68C61.6109 88.44 61.2509 87.86 61.3109 87.2C61.4509 85.74 63.1309 85.9 64.1309 85.82C64.2909 85.82 64.4509 85.8 64.6709 85.78C64.8709 83.86 65.0909 82.04 65.3509 80.24C65.4909 79.22 66.4109 78.62 67.3509 78.9C68.0709 79.1 68.5109 79.68 68.4309 80.5C68.3109 82.28 68.0109 83.98 67.8309 85.7C68.1909 85.7 68.4909 85.68 68.7909 85.7C69.7509 85.76 70.7109 86.1 70.7509 87.16C70.7709 87.76 70.3709 88.32 69.7709 88.52C69.5109 88.62 69.2309 88.64 68.9709 88.66C68.5509 88.68 68.1109 88.66 67.6109 88.66C67.5509 90.14 67.3509 91.68 67.3709 93.88C67.3709 94.66 67.1509 95.26 66.4509 95.52C65.1709 96.02 64.2309 94.88 64.2309 93.74C64.2709 91.68 64.3709 90.24 64.4309 88.8ZM75.5135 91.12C75.7535 92.44 77.5935 92.8 78.8535 92.08C79.3135 91.82 79.7535 91.66 80.2735 91.8C81.3935 92.12 81.7735 93.34 80.9735 94.2C80.3935 94.82 79.6335 95.16 78.7935 95.32C74.5735 96.12 71.9535 93.1 71.9335 89.58C71.9335 86.14 74.0535 83.46 77.3935 83.24C83.1735 82.9 83.2935 91.06 77.8135 91.12C77.0935 91.14 76.3535 91.12 75.5135 91.12ZM75.3135 88.12C75.9535 88.16 76.5535 88.2 77.1735 88.2C79.2135 88.2 79.4335 86.16 77.5135 86.16C76.4935 86.14 75.5735 87.1 75.3135 88.12Z" fill="#202246"/>
<defs>
<clipPath id="clip0_753_2751">
<rect width="64" height="64" fill="white" transform="translate(10)"/>
</clipPath>
</defs>
</svg>
