<svg width="79" height="100" viewBox="0 0 79 100" fill="none" xmlns="http://www.w3.org/2000/svg">
<g clip-path="url(#clip0_123_1225)">
<path d="M61.7015 0H18.2985C12.6108 0 8 4.61079 8 10.2985V53.7015C8 59.3892 12.6108 64 18.2985 64H61.7015C67.3892 64 72 59.3892 72 53.7015V10.2985C72 4.61079 67.3892 0 61.7015 0Z" fill="#F7872B"/>
<path d="M40.9356 34.217C41.0204 32.7496 41.7355 31.457 42.8216 30.5405C43.8864 29.6399 45.3167 29.089 46.8795 29.089C48.4423 29.089 49.8726 29.6399 50.9321 30.5405C52.0181 31.457 52.7333 32.7496 52.8181 34.217C52.9028 35.7268 52.2936 37.1254 51.2288 38.1637C50.1428 39.218 48.6012 39.8854 46.8742 39.8854C45.1472 39.8854 43.6003 39.2232 42.5196 38.1637C41.4548 37.1254 40.8509 35.7268 40.9356 34.217Z" fill="#202446"/>
<path d="M31.4727 37.189C31.4833 37.7611 31.6634 38.8789 31.9389 39.753C32.5163 41.5966 33.4964 43.3024 34.8579 44.8069C36.2564 46.3538 37.9781 47.5934 39.97 48.4781C42.0626 49.4052 44.3246 49.8767 46.682 49.8714C49.0289 49.8714 51.2962 49.3893 53.3888 48.4516C55.3754 47.5617 57.0971 46.3167 58.4956 44.7698C59.8571 43.26 60.8372 41.5489 61.4146 39.7054C61.706 38.773 61.8914 37.8247 61.9655 36.8764C62.0397 35.9388 62.0079 35.0064 61.8755 34.0687C61.6159 32.2464 60.9855 30.5352 60.016 28.9725C59.126 27.5368 57.9818 26.2866 56.6203 25.2271L42.8731 14.669C42.8625 14.6584 42.8519 14.6478 42.836 14.6425C41.9354 13.9485 40.415 13.9538 39.4244 14.6425C38.4231 15.3418 38.3066 16.502 39.2019 17.2383L44.9338 21.9055L27.4571 21.9267H27.4359C25.9897 21.9267 24.6017 22.875 24.3263 24.0722C24.0455 25.2907 25.0256 26.3025 26.5248 26.3078L35.3823 26.2972L19.5796 38.4286C19.5796 38.4286 19.5373 38.4604 19.5214 38.471C18.0328 39.6153 17.5507 41.5118 18.4883 42.7144C19.4419 43.9381 21.4656 43.9381 22.9754 42.7197L31.5998 35.658C31.5998 35.658 31.4727 36.6116 31.4833 37.1837L31.4727 37.189ZM53.6378 40.3781C51.8631 42.1899 49.3732 43.2176 46.682 43.2229C43.9856 43.2229 41.4957 42.2111 39.721 40.4046C38.8522 39.5252 38.2165 38.5081 37.8192 37.4327C37.4325 36.3732 37.2841 35.2448 37.3848 34.1111C37.4802 32.9986 37.8086 31.9391 38.3384 30.9802C38.8575 30.0373 39.5727 29.1844 40.4521 28.4639C42.1791 27.0547 44.3776 26.2919 46.682 26.2919C48.9865 26.2919 51.185 27.0441 52.912 28.448C53.7914 29.1632 54.5066 30.0108 55.0257 30.9538C55.5555 31.9126 55.8839 32.9668 55.9793 34.0793C56.0746 35.213 55.9263 36.3361 55.5396 37.4009C55.1476 38.4816 54.5119 39.4987 53.6431 40.3834L53.6378 40.3781Z" fill="#202446"/>
</g>
<path d="M10.7054 87.88C11.0854 88.14 11.4654 88.36 11.7854 88.64C12.7454 89.46 13.2654 90.46 13.1854 91.76C13.1454 92.66 12.7054 93.42 12.0854 94.06C11.0254 95.18 9.66539 95.7 8.16539 95.88C7.12539 95.98 6.08539 95.98 5.06539 95.78C4.82539 95.72 4.58539 95.64 4.36539 95.56C4.12539 95.48 3.88539 95.38 3.66539 95.34C2.80539 95.2 2.30539 94.74 2.22539 93.88C2.06539 91.96 1.94539 90.04 1.80539 88.12C1.76539 87.42 1.72539 86.74 1.68539 86.06C1.60539 84.72 0.705391 83.14 2.00539 82.04C3.34539 80.92 4.92539 80.2 6.64539 79.9C8.04539 79.64 9.42539 79.76 10.6654 80.58C12.7254 81.96 13.2254 84.62 11.7854 86.64C11.4654 87.06 11.0854 87.44 10.7054 87.88ZM4.92539 87.52C6.10539 87.02 7.20539 86.62 8.14539 85.96C8.48539 85.72 8.80539 85.44 9.06539 85.12C9.26539 84.9 9.40539 84.58 9.44539 84.3C9.56539 83.42 8.92539 82.74 7.94539 82.72C6.68539 82.72 5.62539 83.28 4.62539 83.88C4.72539 85.1 4.82539 86.26 4.92539 87.52ZM5.24539 92.8C6.46539 93.08 7.60539 93.12 8.72539 92.72C9.14539 92.58 9.52539 92.28 9.84539 91.96C10.2054 91.62 10.1454 91.32 9.80539 90.94C9.70539 90.84 9.58539 90.74 9.46539 90.66C8.00539 89.82 6.56539 90 5.08539 90.68C5.14539 91.4 5.18539 92.08 5.24539 92.8ZM18.217 81.24C17.677 85.04 17.777 89.58 17.877 93.5C17.877 93.72 17.877 93.96 17.857 94.18C17.817 94.96 17.297 95.5 16.537 95.58C15.757 95.68 15.077 95.26 14.857 94.52C14.797 94.32 14.777 94.08 14.757 93.86C14.597 90.8 14.577 84.96 15.177 80.4C15.297 79.36 16.417 78.82 17.357 79.26C18.217 79.68 18.357 80.32 18.217 81.24ZM22.9002 91.12C23.1402 92.44 24.9802 92.8 26.2402 92.08C26.7002 91.82 27.1402 91.66 27.6602 91.8C28.7802 92.12 29.1602 93.34 28.3602 94.2C27.7802 94.82 27.0202 95.16 26.1802 95.32C21.9602 96.12 19.3402 93.1 19.3202 89.58C19.3202 86.14 21.4402 83.46 24.7802 83.24C30.5602 82.9 30.6802 91.06 25.2002 91.12C24.4802 91.14 23.7402 91.12 22.9002 91.12ZM22.7002 88.12C23.3402 88.16 23.9402 88.2 24.5602 88.2C26.6002 88.2 26.8202 86.16 24.9002 86.16C23.8802 86.14 22.9602 87.1 22.7002 88.12ZM33.5721 86.36C34.8521 84.2 37.4321 82.6 40.2121 83.88C41.3521 84.4 42.0721 85.38 42.4321 86.68C43.0921 89.06 42.3721 91.6 41.7121 93.78C41.4321 94.74 40.5921 95.22 39.7321 94.94C38.9321 94.68 38.5321 93.96 38.6921 93.04C38.7521 92.6 38.8921 92.16 38.9921 91.72C39.1721 90.88 39.3721 90.06 39.4721 89.22C39.8521 85.92 37.4521 86.26 36.0721 88.46C35.0921 89.98 34.9921 91.66 34.9921 93.3C35.0121 94.3 34.4721 95.04 33.6521 95.16C32.7921 95.3 32.0521 94.78 31.8321 93.78C31.4921 92.22 31.2121 90.64 30.8721 89.04C30.6321 87.92 30.3921 86.82 30.1321 85.72C29.8921 84.7 30.2521 83.86 31.0921 83.56C31.9321 83.28 32.7921 83.72 33.1321 84.66C33.3121 85.2 33.4121 85.74 33.5721 86.36ZM51.9212 84.1C51.9612 82.96 51.9812 81.66 52.0012 80.58C52.0212 80.42 52.0012 80.24 52.0212 80.08C52.0612 79.2 52.7212 78.58 53.6012 78.58C54.4412 78.6 55.0812 79.2 55.1012 80.06C55.1212 80.78 55.1012 81.48 55.0812 82.18C55.0012 85.86 54.9412 89.52 54.8612 93.2C54.9012 94.78 54.3212 94.96 53.0412 95.08C51.8612 95.24 50.6812 95.4 49.4812 95.22C44.2812 94.46 42.8412 88.44 46.0012 85.02C47.6612 83.22 50.2612 83.28 51.9212 84.1ZM51.7612 90.84C51.8012 89.76 51.8212 88.64 51.8412 87.56C51.8412 87.44 51.7812 87.32 51.6612 87.2C50.4612 86.06 48.7412 86.16 47.9412 87.52C46.5612 89.84 47.9412 92.42 50.3612 92.32C51.5412 92.28 51.7612 91.8 51.7612 90.84ZM60.0291 91.12C60.2691 92.44 62.1091 92.8 63.3691 92.08C63.8291 91.82 64.2691 91.66 64.7891 91.8C65.9091 92.12 66.2891 93.34 65.4891 94.2C64.9091 94.82 64.1491 95.16 63.3091 95.32C59.0891 96.12 56.4691 93.1 56.4491 89.58C56.4491 86.14 58.5691 83.46 61.9091 83.24C67.6891 82.9 67.8091 91.06 62.3291 91.12C61.6091 91.14 60.8691 91.12 60.0291 91.12ZM59.8291 88.12C60.4691 88.16 61.0691 88.2 61.6891 88.2C63.7291 88.2 63.9491 86.16 62.0291 86.16C61.0091 86.14 60.0891 87.1 59.8291 88.12ZM70.561 85.3C74.481 81.12 78.921 84.5 77.981 89.52C77.781 90.64 76.461 91.16 75.541 90.54C75.041 90.2 74.841 89.74 74.901 89.16C75.041 87.36 74.181 85.58 72.321 86.94C70.921 87.98 71.281 91.32 71.721 92.94C71.781 93.14 71.821 93.36 71.841 93.56C71.901 94.38 71.481 95.02 70.741 95.22C70.001 95.42 69.081 95.22 68.761 94.52C68.601 94.18 68.561 93.64 68.461 93.24C67.761 90.5 67.621 87.74 67.341 85C67.261 84.12 67.861 83.42 68.741 83.32C69.541 83.22 70.281 83.78 70.441 84.62C70.461 84.82 70.501 85.02 70.561 85.3Z" fill="#202246"/>
<defs>
<clipPath id="clip0_123_1225">
<rect width="64" height="64" fill="white" transform="translate(8)"/>
</clipPath>
</defs>
</svg>
