<svg width="105" height="100" viewBox="0 0 105 100" fill="none" xmlns="http://www.w3.org/2000/svg">
<g clip-path="url(#clip0_123_1462)">
<path d="M75.7015 0H32.2985C26.6108 0 22 4.61079 22 10.2985V53.7015C22 59.3892 26.6108 64 32.2985 64H75.7015C81.3892 64 86 59.3892 86 53.7015V10.2985C86 4.61079 81.3892 0 75.7015 0Z" fill="#80C6B6"/>
<path d="M71.4629 20.5069C71.1874 20.0831 70.8961 19.6963 70.5888 19.3043C70.2868 18.9123 69.9531 18.5468 69.5982 18.2024C69.2538 17.8475 68.8936 17.5137 68.5122 17.2012C68.1413 16.878 67.7493 16.5814 67.3414 16.2847C66.7375 15.8609 66.1071 15.4689 65.4555 15.1139C64.147 14.42 62.7643 13.8796 61.3286 13.5088C60.6135 13.3287 59.8877 13.1856 59.1566 13.085C58.7858 13.032 58.4097 13.0002 58.0547 12.9684C57.6892 12.9207 57.3184 12.8995 56.9529 12.9048H55.8351C55.4642 12.9048 55.0881 12.9578 54.7173 13.0002C54.3464 13.0426 53.9703 13.0956 53.5995 13.1591C53.2287 13.2227 52.8684 13.3075 52.4976 13.4028C52.1268 13.4982 51.7665 13.5935 51.4116 13.7101C51.0567 13.8266 50.6964 13.9538 50.3415 14.1021L39.6881 18.462C39.3967 18.5785 39.1053 18.7216 38.8245 18.854C38.5491 18.9918 38.2895 19.1454 38.0299 19.3149C37.7756 19.4738 37.5372 19.6487 37.2988 19.8341C37.0658 20.0089 36.8486 20.2049 36.6472 20.4168C36.3453 20.7188 36.0645 21.0366 35.8049 21.3757C35.5559 21.7094 35.3334 22.0591 35.1427 22.4299C34.952 22.7954 34.7878 23.1768 34.6554 23.5689C34.5388 23.9556 34.4488 24.3529 34.3799 24.7502C34.3481 24.9621 34.3269 25.1528 34.3163 25.37C34.2898 25.5819 34.2792 25.7885 34.2845 26.0005C34.2845 26.2124 34.2845 26.4243 34.3163 26.6309C34.3481 26.8375 34.3693 27.0547 34.4011 27.2613C34.4329 27.4679 34.4964 27.6639 34.5494 27.8811L34.7401 28.5115C34.8249 28.7234 34.899 28.9353 34.9997 29.1313C35.1004 29.3273 35.1904 29.5339 35.307 29.7511C35.4553 30.0213 35.6248 30.2809 35.8102 30.5299C35.985 30.7736 36.1811 31.0173 36.393 31.2609C36.6049 31.4887 36.8168 31.7218 37.0446 31.9231C37.2724 32.1244 37.5055 32.3258 37.7597 32.5218C38.1306 32.8131 38.5279 33.078 38.9411 33.3005C39.3543 33.5336 39.7834 33.7402 40.2231 33.9203C40.6734 34.1004 41.129 34.2541 41.6005 34.3812C42.0614 34.4978 42.5381 34.5931 43.0096 34.6567C43.2533 34.6885 43.497 34.7097 43.7407 34.7203C43.9844 34.7309 44.2281 34.7203 44.4718 34.7203C44.7155 34.7203 44.9591 34.7203 45.2028 34.6885C45.4465 34.6567 45.6902 34.6355 45.9339 34.6037C46.1776 34.5719 46.4213 34.519 46.665 34.4766C46.9086 34.4342 47.1523 34.36 47.3801 34.2965C47.6079 34.2329 47.841 34.1481 48.0741 34.0687C48.3072 33.9892 48.535 33.8885 48.7575 33.7932L58.166 29.6664C58.558 29.4968 58.913 29.2532 59.2043 28.9353C59.4745 28.6492 59.6705 28.3049 59.7871 27.9341C59.8983 27.5685 59.9354 27.1765 59.8824 26.7951C59.8241 26.3872 59.6811 25.9952 59.4586 25.6455C59.2255 25.2747 58.9235 24.9568 58.5633 24.7078C57.8481 24.1834 56.9793 23.9185 56.0999 23.9609C55.6549 23.9768 55.2152 24.0774 54.802 24.2523L45.4889 28.2784L45.2134 28.3738L44.938 28.4585L44.6625 28.5115C44.5724 28.5221 44.4771 28.5221 44.387 28.5115C44.244 28.5221 44.1062 28.5221 43.9632 28.5115C43.8255 28.5009 43.693 28.4797 43.5606 28.4479C43.4228 28.4161 43.2904 28.3791 43.158 28.3314C43.0308 28.289 42.9037 28.236 42.7871 28.1725C42.7236 28.146 42.6653 28.1142 42.607 28.0771C42.5434 28.0453 42.4852 28.0082 42.4269 27.9606L42.268 27.844C42.215 27.791 42.1726 27.7592 42.1196 27.7169L41.9713 27.5685C41.9236 27.5262 41.8812 27.4732 41.8442 27.4202C41.8018 27.3725 41.7647 27.3195 41.7276 27.2613C41.6852 27.203 41.6482 27.1447 41.6111 27.0812C41.5581 26.9964 41.5263 26.9222 41.4839 26.8375L41.3886 26.5938C41.3621 26.5143 41.3409 26.4349 41.325 26.3501C41.3038 26.2706 41.2932 26.1912 41.2932 26.1064C41.2773 25.9899 41.2773 25.868 41.2932 25.7515C41.3091 25.6296 41.3303 25.5131 41.3568 25.3965C41.3886 25.28 41.4257 25.1687 41.4733 25.0575C41.5263 24.9462 41.5846 24.835 41.6535 24.7343C41.6852 24.6814 41.7223 24.6337 41.77 24.586C41.8018 24.533 41.8548 24.4906 41.8865 24.4377C41.9236 24.39 41.966 24.3476 42.0137 24.3105C42.0667 24.2575 42.109 24.2258 42.162 24.1834C42.2044 24.141 42.2574 24.1039 42.3104 24.0668L42.4693 23.9503L42.6494 23.8549C42.713 23.8231 42.7765 23.7914 42.8401 23.7702L53.5465 19.2937C53.8114 19.1825 54.0816 19.0818 54.3517 18.9971C54.6272 18.9123 54.9027 18.8381 55.1941 18.7693C55.4748 18.7057 55.7556 18.658 56.0364 18.6209C56.3277 18.5891 56.6032 18.568 56.8999 18.5574C57.329 18.5415 57.7581 18.5574 58.1819 18.5891C58.6163 18.6209 59.0454 18.6845 59.4639 18.7799C59.8877 18.8752 60.3062 18.9918 60.7141 19.1189C61.122 19.246 61.5088 19.4262 61.8955 19.6063L62.4623 19.8976C62.6424 20.0142 62.8332 20.1095 63.0133 20.2367C63.1934 20.3532 63.3629 20.4751 63.5324 20.6075C63.702 20.7347 63.8662 20.8724 64.0198 21.0154C64.1787 21.1585 64.3324 21.3121 64.4807 21.4763C64.629 21.6247 64.7721 21.7836 64.9416 21.9372C65.0846 22.0961 65.2171 22.2657 65.3442 22.4405C65.4714 22.6206 65.6038 22.7954 65.715 22.9755C65.8687 23.2139 66.0117 23.4629 66.1388 23.7225C66.266 23.9609 66.3772 24.2099 66.462 24.4695C66.5574 24.7184 66.6368 24.9727 66.7057 25.2323C66.7693 25.4919 66.8222 25.7356 66.8646 25.9952C66.9229 26.3766 66.9494 26.758 66.9494 27.1447C66.9441 27.5262 66.907 27.9076 66.8328 28.2837C66.7693 28.6598 66.6686 29.0307 66.5415 29.3856C66.4143 29.7458 66.2501 30.0955 66.0541 30.4239C65.9587 30.5934 65.8581 30.7524 65.7468 30.9113C65.6356 31.0702 65.519 31.2239 65.3919 31.3722C65.2647 31.5205 65.1323 31.6795 64.9999 31.8331C64.8621 31.9867 64.7085 32.1297 64.539 32.2569C64.3959 32.3946 64.2423 32.5271 64.0781 32.6489C63.9192 32.776 63.739 32.8926 63.5589 33.0197C63.3735 33.1363 63.1881 33.2475 62.9921 33.3429C62.8014 33.4382 62.6001 33.5548 62.3935 33.6343L47.2106 40.5105L53.1174 49.4157C53.3823 49.813 53.7266 50.1521 54.1186 50.417C54.5107 50.6766 54.9451 50.8726 55.4007 50.9838C55.851 51.0951 56.3171 51.1268 56.778 51.0792C57.2495 51.0262 57.7104 50.8832 58.1236 50.6554C58.5103 50.4435 58.8494 50.1574 59.1249 49.813C59.644 49.1614 59.8665 48.3191 59.7447 47.4927C59.6758 47.0583 59.5222 46.6451 59.2838 46.2743C59.2838 46.2743 59.2838 46.2425 59.252 46.2213C59.2202 46.2001 59.252 46.1895 59.2202 46.1683C59.1884 46.1471 59.2202 46.1365 59.1884 46.1153C59.1566 46.0942 59.1884 46.0836 59.1566 46.0624L57.3343 43.2811L65.9322 39.308C66.4196 39.0802 66.8699 38.8471 67.3096 38.5769C67.7493 38.3067 68.1731 38.0259 68.5757 37.7346C68.973 37.4432 69.3492 37.1307 69.7147 36.7969C70.0644 36.4791 70.3981 36.1347 70.7054 35.7745C71.1609 35.25 71.5689 34.6885 71.9397 34.1004C72.2946 33.5283 72.6019 32.9244 72.8562 32.2993C73.1052 31.6847 73.3065 31.049 73.4548 30.4027C73.5925 29.7564 73.6879 29.0995 73.7303 28.4426V27.4414C73.7303 27.1023 73.6985 26.7792 73.6667 26.4401C73.6349 26.1011 73.5713 25.778 73.5184 25.4389C73.4654 25.0999 73.37 24.7767 73.2747 24.4377C73.1793 24.0986 73.084 23.7755 72.9515 23.447C72.8191 23.1186 72.6919 22.7848 72.5489 22.4564C72.4059 22.1279 72.2417 21.8048 72.0615 21.4869C71.8814 21.1691 71.6536 20.8353 71.4417 20.5281" fill="#202446"/>
</g>
<path d="M10.5905 80.14C12.6105 80.82 12.0505 83.9 10.0105 83.4C8.99055 83.16 8.01055 83.18 7.27055 83.76C5.99055 84.8 5.19055 86.2 5.03055 88C4.73055 90.74 6.63055 93.62 9.51055 92.24C9.65055 92.18 9.77055 92.1 9.91055 92.04C10.6905 91.74 11.5305 92.12 11.8705 92.9C12.1905 93.66 11.9505 94.6 11.1905 95.04C10.5905 95.36 9.91055 95.62 9.25055 95.74C6.35055 96.24 3.75055 94.56 2.55055 92.18C0.850547 88.7 2.29055 83.98 4.91055 81.52C6.47055 80.04 8.65055 79.6 10.5905 80.14ZM16.881 81.24C16.341 85.04 16.441 89.58 16.541 93.5C16.541 93.72 16.541 93.96 16.521 94.18C16.481 94.96 15.961 95.5 15.201 95.58C14.421 95.68 13.741 95.26 13.521 94.52C13.461 94.32 13.441 94.08 13.421 93.86C13.261 90.8 13.241 84.96 13.841 80.4C13.961 79.36 15.081 78.82 16.021 79.26C16.881 79.68 17.021 80.32 16.881 81.24ZM18.0643 88.02C18.0243 87.1 18.7443 86.42 19.5843 86.4C20.4643 86.38 21.1443 87.02 21.1643 87.96C21.1843 89.38 21.2043 92.12 21.1643 93.54C21.1443 94.62 20.2043 95.3 19.2043 95.04C18.5243 94.86 18.0843 94.36 18.0643 93.66C18.0643 89.9 18.1043 88.96 18.0643 88.02ZM19.9043 85.16C19.0043 85.16 18.3043 84.52 18.2843 83.7C18.2843 82.88 18.9443 82.24 19.8043 82.24C20.6843 82.24 21.4043 82.9 21.4243 83.7C21.4443 84.52 20.7643 85.16 19.9043 85.16ZM26.0323 94.18C26.0323 95.02 26.0323 95.8 26.0323 96.56C26.0323 96.76 26.0723 96.98 26.0523 97.18C26.0123 98.02 25.4323 98.64 24.6123 98.68C23.7723 98.72 23.1123 98.2 22.9923 97.36C22.9323 97.02 22.8923 96.66 22.9123 96.32C22.9323 92.46 22.9723 88.6 23.0323 84.76C23.0323 83.64 23.6923 82.92 24.6723 83C25.0123 83.02 25.3523 83.18 25.6323 83.38C25.8523 83.52 26.0323 83.58 26.3123 83.54C27.8923 83.36 29.3523 83.68 30.6323 84.66C33.0323 86.5 33.7123 90.5 30.2323 92.9C28.9923 93.76 27.5923 94.18 26.0323 94.18ZM26.0323 91.22C27.5923 91.58 29.8323 90.36 29.4523 88.26C29.1723 86.68 27.7323 86.3 26.6323 86.48C26.1323 86.56 26.0323 86.66 26.0523 87.2C26.0923 88.64 26.0323 90 26.0323 91.22ZM49.2246 80.1C50.0446 80.32 50.5046 80.94 50.4046 81.7C50.3246 82.38 49.7246 82.94 48.9246 82.96C48.0646 82.96 47.1646 82.68 46.3846 82.62C44.4246 82.5 43.2246 84.72 45.5646 85.5C46.8846 85.9 48.3646 86.26 49.4446 86.98C53.4446 89.62 52.3646 93.76 49.4046 95.3C47.7846 96.12 44.3446 96.1 42.8846 95.44C42.1646 95.1 41.8446 94.44 42.0246 93.76C42.1846 93.12 42.8046 92.66 43.5246 92.68C45.0046 92.74 46.8646 93.2 47.9446 92.74C49.2446 92.18 49.6646 90.58 47.6446 89.34C46.3446 88.54 44.9446 88.5 43.7446 87.96C41.5446 87.02 40.9446 85.02 41.2846 83.44C41.8246 81 43.8046 79.72 46.2646 79.72C47.2846 79.72 48.3046 79.88 49.2246 80.1ZM56.4387 88.8C55.9587 88.8 55.5587 88.82 55.1387 88.8C54.8587 88.78 54.5587 88.76 54.2987 88.68C53.6187 88.44 53.2587 87.86 53.3187 87.2C53.4587 85.74 55.1387 85.9 56.1387 85.82C56.2987 85.82 56.4587 85.8 56.6787 85.78C56.8787 83.86 57.0987 82.04 57.3587 80.24C57.4987 79.22 58.4187 78.62 59.3587 78.9C60.0787 79.1 60.5187 79.68 60.4387 80.5C60.3187 82.28 60.0187 83.98 59.8387 85.7C60.1987 85.7 60.4987 85.68 60.7987 85.7C61.7587 85.76 62.7187 86.1 62.7587 87.16C62.7787 87.76 62.3787 88.32 61.7787 88.52C61.5187 88.62 61.2387 88.64 60.9787 88.66C60.5587 88.68 60.1187 88.66 59.6187 88.66C59.5587 90.14 59.3587 91.68 59.3787 93.88C59.3787 94.66 59.1587 95.26 58.4587 95.52C57.1787 96.02 56.2387 94.88 56.2387 93.74C56.2787 91.68 56.3787 90.24 56.4387 88.8ZM68.0213 95.08C63.5013 93.94 63.5813 88.14 64.8813 84.8C65.3613 83.48 66.5813 83 67.4413 83.46C68.0213 83.78 68.5613 84.56 68.0613 85.7C67.6613 86.66 67.3413 88.54 67.6013 90.02C68.0613 92.86 70.9813 92.66 71.4813 90.04C71.7413 88.68 71.3613 86.56 71.2413 85.7C71.0613 84.44 71.6613 83.6 72.6613 83.5C73.5613 83.42 74.3413 84.04 74.5213 85.06C74.7613 86.34 74.9413 87.88 74.9213 89.3C74.8213 92.88 71.9813 96.1 68.0213 95.08ZM83.9446 84.1C83.9846 82.96 84.0046 81.66 84.0246 80.58C84.0446 80.42 84.0246 80.24 84.0446 80.08C84.0846 79.2 84.7446 78.58 85.6246 78.58C86.4646 78.6 87.1046 79.2 87.1246 80.06C87.1446 80.78 87.1246 81.48 87.1046 82.18C87.0246 85.86 86.9646 89.52 86.8846 93.2C86.9246 94.78 86.3446 94.96 85.0646 95.08C83.8846 95.24 82.7046 95.4 81.5046 95.22C76.3046 94.46 74.8646 88.44 78.0246 85.02C79.6846 83.22 82.2846 83.28 83.9446 84.1ZM83.7846 90.84C83.8246 89.76 83.8446 88.64 83.8646 87.56C83.8646 87.44 83.8046 87.32 83.6846 87.2C82.4846 86.06 80.7646 86.16 79.9646 87.52C78.5846 89.84 79.9646 92.42 82.3846 92.32C83.5646 92.28 83.7846 91.8 83.7846 90.84ZM88.5526 88.02C88.5126 87.1 89.2326 86.42 90.0726 86.4C90.9526 86.38 91.6326 87.02 91.6526 87.96C91.6726 89.38 91.6926 92.12 91.6526 93.54C91.6326 94.62 90.6926 95.3 89.6926 95.04C89.0126 94.86 88.5726 94.36 88.5526 93.66C88.5526 89.9 88.5926 88.96 88.5526 88.02ZM90.3926 85.16C89.4926 85.16 88.7926 84.52 88.7726 83.7C88.7726 82.88 89.4326 82.24 90.2926 82.24C91.1726 82.24 91.8926 82.9 91.9126 83.7C91.9326 84.52 91.2526 85.16 90.3926 85.16ZM95.2005 85.04C97.3205 82.7 100.421 82.56 102.421 84.98C103.701 86.52 104.261 88.8 103.781 90.72C102.641 94.94 98.0805 96.6 95.0605 93.9C92.5005 91.68 93.1805 87.24 95.2005 85.04ZM100.781 90.34C101.341 88.7 100.721 86.42 98.9605 86.32C97.5605 86.26 96.1805 88.56 96.4405 90.26C96.8805 92.98 100.041 92.68 100.781 90.34Z" fill="#202246"/>
<defs>
<clipPath id="clip0_123_1462">
<rect width="64" height="64" fill="white" transform="translate(22)"/>
</clipPath>
</defs>
</svg>
