<svg width="64" height="100" viewBox="0 0 64 100" fill="none" xmlns="http://www.w3.org/2000/svg">
<g clip-path="url(#clip0_161_1768)">
<path d="M53.7015 0H10.2985C4.61079 0 0 4.61079 0 10.2985V53.7015C0 59.3892 4.61079 64 10.2985 64H53.7015C59.3892 64 64 59.3892 64 53.7015V10.2985C64 4.61079 59.3892 0 53.7015 0Z" fill="#80C6B6"/>
<path d="M38.3551 25.6455C34.8428 25.6455 31.998 28.4903 31.998 32.0026C31.998 35.5149 34.8428 38.3597 38.3551 38.3597C41.8674 38.3597 44.7122 35.5149 44.7122 32.0026C44.7122 28.4903 41.8674 25.6455 38.3551 25.6455Z" fill="#202346"/>
<path d="M38.355 25.6456C41.8673 25.6456 44.7121 22.8008 44.7121 19.2885C44.7121 15.7762 41.8673 12.9314 38.355 12.9314H25.6462C22.1339 12.9314 19.2891 15.7762 19.2891 19.2885C19.2891 22.8008 22.1339 25.6456 25.6462 25.6456C22.1339 25.6456 19.2891 28.4904 19.2891 32.0027C19.2891 35.515 22.1339 38.3598 25.6462 38.3598C22.1339 38.3598 19.2891 41.2046 19.2891 44.7168C19.2891 48.2291 22.1339 51.0739 25.6462 51.0739C29.1584 51.0739 32.0032 48.2291 32.0032 44.7168V25.6509H38.3603L38.355 25.6456Z" fill="#202346"/>
</g>
<path d="M7.8425 89.96C7.8425 90.38 7.8625 90.72 7.8425 91.08C7.8225 92.02 7.8425 93.64 7.7825 94.58C7.7225 95.44 7.3025 95.94 6.5825 96.12C5.6225 96.36 4.7425 95.74 4.6825 94.76C4.6425 94.32 4.7025 93.86 4.7025 93.4C4.7025 90.32 4.7025 86.56 4.6825 83.48C4.6825 83.18 4.6425 82.2 4.6025 81.9C4.4425 80.74 5.1425 79.68 6.5025 79.9C8.3425 80.2 10.1825 80.04 12.0225 80.1C12.3625 80.1 12.7025 80.12 13.0025 80.2C13.8225 80.4 14.2825 81.06 14.1825 81.8C14.1025 82.52 13.4825 83.06 12.6625 83.06C11.2825 83.06 9.9225 83.02 8.5425 83C8.3225 83 8.1025 83 7.8625 83C7.8625 84.36 7.8625 85.64 7.8625 87C8.1625 87.02 8.4425 87.06 8.7025 87.06C9.3825 87.08 10.0625 87.08 10.7425 87.08C11.4825 87.08 12.0825 87.56 12.2425 88.24C12.4025 88.88 12.0625 89.58 11.4025 89.86C11.0625 90 10.6825 90.06 10.3225 90.06C9.6825 90.06 9.0225 90 8.3825 89.96C8.2425 89.96 8.1025 89.96 7.8425 89.96ZM15.3084 88.02C15.2684 87.1 15.9884 86.42 16.8284 86.4C17.7084 86.38 18.3884 87.02 18.4084 87.96C18.4284 89.38 18.4484 92.12 18.4084 93.54C18.3884 94.62 17.4484 95.3 16.4484 95.04C15.7684 94.86 15.3284 94.36 15.3084 93.66C15.3084 89.9 15.3484 88.96 15.3084 88.02ZM17.1484 85.16C16.2484 85.16 15.5484 84.52 15.5284 83.7C15.5284 82.88 16.1884 82.24 17.0484 82.24C17.9284 82.24 18.6484 82.9 18.6684 83.7C18.6884 84.52 18.0084 85.16 17.1484 85.16ZM20.1964 87.26C20.8764 84.44 23.7764 82.86 26.4164 83.28C26.5564 83.3 26.6964 83.32 26.8364 83.36C26.9364 83.2 27.0164 83.04 27.0964 82.92C27.4964 82.34 28.0564 82.12 28.7364 82.22C29.6364 82.42 30.0164 83.1 30.0964 83.9C30.3964 86.98 30.5964 90.06 30.6364 93.16C30.6364 95.16 29.9964 97 28.1764 97.68C26.2164 98.46 23.0764 97.64 21.4564 96.84C20.7764 96.46 20.4764 95.78 20.6964 95.12C20.9364 94.44 21.6564 94 22.3764 94.12C22.6964 94.16 23.0164 94.3 23.3364 94.4C25.2364 95 27.4964 96.16 27.4964 93.26C27.4964 92.58 27.4564 91.92 27.4764 91.24C26.2364 92.72 24.3364 93.54 22.6964 93C20.3564 92.22 19.6764 89.36 20.1964 87.26ZM25.2164 88.76C25.4764 88.24 25.6564 87.7 25.8164 87.14C26.0164 86.54 26.0964 86.06 25.2764 86.18C24.1964 86.32 23.4364 87.04 23.1964 88.12C22.8364 90.3 24.2964 90.64 25.2164 88.76ZM35.2853 93.74C35.0653 94.88 34.1853 95.44 33.2253 95.14C32.6253 94.94 32.2453 94.48 32.1653 93.78C31.7653 90.92 32.2053 87.22 32.7053 84.86C32.8853 84.16 33.3053 83.68 34.0053 83.56C35.0853 83.34 35.9453 84.24 35.8053 85.42C35.7653 85.68 35.6453 86.52 35.5853 86.9C37.4253 85.14 38.7853 86.2 39.7653 87.88C40.6253 86.68 41.4253 85.66 42.7053 85.14C44.1453 84.58 45.7453 85.02 46.7053 86.32C48.0453 88.24 48.5253 90.64 49.2453 92.78C49.4853 93.54 49.2853 94.26 48.6853 94.68C48.1053 95.12 47.2653 95.1 46.7653 94.54C46.4853 94.22 46.2653 93.78 46.1053 93.34C45.7053 92.22 45.3653 91.04 44.9653 89.9C44.2453 87.92 43.1653 87.76 42.3653 89.86C41.9453 90.92 41.7453 91.92 41.4653 92.88C41.2453 93.6 40.7853 94.04 40.1253 94.16C39.4253 94.28 38.8253 94 38.4253 93.36C38.2053 93.02 38.0253 92.62 37.9253 92.2C36.6653 87.12 35.8653 90.62 35.2853 93.74ZM56.9 88.48C56.9 84.92 54.7 84.94 53.46 87.02C53 87.78 52.06 88 51.3 87.56C50.54 87.12 50.3 86.26 50.78 85.46C51.02 85.06 51.32 84.68 51.66 84.36C54.32 81.9 57.94 82.18 59.32 84.98C60.16 86.64 60.06 89.28 60.24 91.08C60.32 92.14 60.4 93.02 60.06 94C59.82 94.66 59.06 95 58.36 94.82C57.96 94.72 57.66 94.8 57.3 94.96C56.02 95.62 54.68 95.84 53.26 95.54C49.66 94.78 49.98 90.1 52.98 88.78C54.18 88.24 55.64 88.28 56.9 88.48ZM56.74 91.84C56.2 90.74 53.96 90.8 53.84 92.02C53.8 92.52 54.4 92.96 55.54 92.62C56 92.48 56.44 92.24 56.74 91.84Z" fill="#202246"/>
<defs>
<clipPath id="clip0_161_1768">
<rect width="64" height="64" fill="white"/>
</clipPath>
</defs>
</svg>
