<svg width="92" height="100" viewBox="0 0 92 100" fill="none" xmlns="http://www.w3.org/2000/svg">
<g clip-path="url(#clip0_123_1526)">
<path d="M68.7015 0H25.2985C19.6108 0 15 4.61079 15 10.2985V53.7015C15 59.3892 19.6108 64 25.2985 64H68.7015C74.3892 64 79 59.3892 79 53.7015V10.2985C79 4.61079 74.3892 0 68.7015 0Z" fill="#F7872B"/>
<path d="M56.253 30.8954C55.9617 30.567 55.6756 30.2332 55.4001 29.9207C55.273 30.0796 55.1406 30.2438 54.9975 30.4028C53.3129 32.3364 51.3687 33.3535 49.3662 33.3535C48.6457 33.3535 47.9147 33.2211 47.2048 32.9562C45.4513 32.3046 43.2793 30.62 42.8714 26.2759C42.8025 25.5343 42.7972 24.8138 42.8237 24.1781C41.6423 24.3635 40.1802 24.6708 38.9724 24.9621L38.8717 24.9886C38.7499 25.0204 38.6333 25.0469 38.5168 25.0734C38.1035 25.9051 37.6956 26.9011 37.3301 28.0771C36.0481 32.2198 34.0721 50.0726 40.7258 52.5678C46.9452 54.8987 55.9299 40.5264 57.7576 32.5695C57.3496 32.1245 56.8464 31.5629 56.253 30.8901V30.8954Z" fill="#202446"/>
<path d="M59.6902 22.1756C59.6902 22.1756 56.4692 19.2673 52.5172 20.7983C52.4484 20.7294 52.3742 20.6605 52.2894 20.6023C52.3477 20.5016 52.3848 20.3851 52.3848 20.2579C52.3954 19.1189 55.6799 14.2717 58.1274 12.497C58.4558 12.2586 58.53 11.803 58.2916 11.4745C58.0532 11.1461 57.5976 11.0719 57.2692 11.3103C54.9647 12.9791 51.2458 17.9111 50.9439 20.0036C50.8591 19.9824 50.8061 19.9666 50.8061 19.9666C50.8061 19.9666 49.1321 14.7855 42.5154 16.094C37.398 17.1059 36.1213 22.5359 36.6192 23.1875C36.9318 23.6007 37.5781 23.4206 38.5422 23.1875C39.5064 22.9544 43.522 22.0273 44.8728 22.2074C44.8728 22.2074 43.4266 29.6081 47.8448 31.2451C52.263 32.882 55.1978 26.8799 55.1978 26.8799C55.1978 26.8799 59.9815 32.49 60.2888 32.49C61.5867 32.49 64.2408 26.3342 59.6902 22.1756Z" fill="#202446"/>
</g>
<path d="M3.93039 89.96C3.93039 90.38 3.95039 90.72 3.93039 91.08C3.91039 92.02 3.93039 93.64 3.87039 94.58C3.81039 95.44 3.39039 95.94 2.67039 96.12C1.71039 96.36 0.830391 95.74 0.770391 94.76C0.730391 94.32 0.790391 93.86 0.790391 93.4C0.790391 90.32 0.790391 86.56 0.770391 83.48C0.770391 83.18 0.730391 82.2 0.690391 81.9C0.530391 80.74 1.23039 79.68 2.59039 79.9C4.43039 80.2 6.27039 80.04 8.11039 80.1C8.45039 80.1 8.79039 80.12 9.09039 80.2C9.91039 80.4 10.3704 81.06 10.2704 81.8C10.1904 82.52 9.57039 83.06 8.75039 83.06C7.37039 83.06 6.01039 83.02 4.63039 83C4.41039 83 4.19039 83 3.95039 83C3.95039 84.36 3.95039 85.64 3.95039 87C4.25039 87.02 4.53039 87.06 4.79039 87.06C5.47039 87.08 6.15039 87.08 6.83039 87.08C7.57039 87.08 8.17039 87.56 8.33039 88.24C8.49039 88.88 8.15039 89.58 7.49039 89.86C7.15039 90 6.77039 90.06 6.41039 90.06C5.77039 90.06 5.11039 90 4.47039 89.96C4.33039 89.96 4.19039 89.96 3.93039 89.96ZM14.7363 92.9C15.2363 92.82 15.6963 92.72 16.1763 92.66C16.8563 92.58 17.5163 92.48 18.1963 92.44C18.4363 92.42 18.6963 92.48 18.9363 92.58C19.5563 92.84 19.9363 93.5 19.8763 94.18C19.8163 94.88 19.2963 95.5 18.6363 95.6C17.1763 95.8 15.7163 95.98 14.2563 96.16C14.0163 96.2 13.7963 96.18 13.5763 96.18C12.3563 96.1 11.6563 95.34 11.5963 94C11.5763 93.2 11.5563 92.4 11.5563 91.6C11.5163 88.98 11.4563 85.26 11.4163 82.62C11.4163 82.18 11.3763 81.72 11.3763 81.26C11.3763 80.28 11.9163 79.58 12.7763 79.48C13.5963 79.38 14.2963 79.98 14.4563 80.92C14.5163 81.26 14.5163 81.6 14.5363 81.94C14.5763 85 14.6563 89.16 14.6963 92.22C14.6963 92.42 14.7163 92.62 14.7363 92.9ZM36.3848 80.1C37.2048 80.32 37.6648 80.94 37.5648 81.7C37.4848 82.38 36.8848 82.94 36.0848 82.96C35.2248 82.96 34.3248 82.68 33.5448 82.62C31.5848 82.5 30.3848 84.72 32.7248 85.5C34.0448 85.9 35.5248 86.26 36.6048 86.98C40.6048 89.62 39.5248 93.76 36.5648 95.3C34.9448 96.12 31.5048 96.1 30.0448 95.44C29.3248 95.1 29.0048 94.44 29.1848 93.76C29.3448 93.12 29.9648 92.66 30.6848 92.68C32.1648 92.74 34.0248 93.2 35.1048 92.74C36.4048 92.18 36.8248 90.58 34.8048 89.34C33.5048 88.54 32.1048 88.5 30.9048 87.96C28.7048 87.02 28.1048 85.02 28.4448 83.44C28.9848 81 30.9648 79.72 33.4248 79.72C34.4448 79.72 35.4648 79.88 36.3848 80.1ZM43.5988 88.8C43.1188 88.8 42.7188 88.82 42.2988 88.8C42.0188 88.78 41.7188 88.76 41.4588 88.68C40.7788 88.44 40.4188 87.86 40.4788 87.2C40.6188 85.74 42.2988 85.9 43.2988 85.82C43.4588 85.82 43.6188 85.8 43.8388 85.78C44.0388 83.86 44.2588 82.04 44.5188 80.24C44.6588 79.22 45.5788 78.62 46.5188 78.9C47.2388 79.1 47.6788 79.68 47.5988 80.5C47.4788 82.28 47.1788 83.98 46.9988 85.7C47.3588 85.7 47.6588 85.68 47.9588 85.7C48.9188 85.76 49.8788 86.1 49.9188 87.16C49.9388 87.76 49.5388 88.32 48.9388 88.52C48.6788 88.62 48.3988 88.64 48.1388 88.66C47.7188 88.68 47.2788 88.66 46.7788 88.66C46.7188 90.14 46.5188 91.68 46.5388 93.88C46.5388 94.66 46.3188 95.26 45.6188 95.52C44.3388 96.02 43.3988 94.88 43.3988 93.74C43.4388 91.68 43.5388 90.24 43.5988 88.8ZM55.1815 95.08C50.6615 93.94 50.7415 88.14 52.0415 84.8C52.5215 83.48 53.7415 83 54.6015 83.46C55.1815 83.78 55.7215 84.56 55.2215 85.7C54.8215 86.66 54.5015 88.54 54.7615 90.02C55.2215 92.86 58.1415 92.66 58.6415 90.04C58.9015 88.68 58.5215 86.56 58.4015 85.7C58.2215 84.44 58.8215 83.6 59.8215 83.5C60.7215 83.42 61.5015 84.04 61.6815 85.06C61.9215 86.34 62.1015 87.88 62.0815 89.3C61.9815 92.88 59.1415 96.1 55.1815 95.08ZM71.1048 84.1C71.1448 82.96 71.1648 81.66 71.1848 80.58C71.2048 80.42 71.1848 80.24 71.2048 80.08C71.2448 79.2 71.9048 78.58 72.7848 78.58C73.6248 78.6 74.2648 79.2 74.2848 80.06C74.3048 80.78 74.2848 81.48 74.2648 82.18C74.1848 85.86 74.1248 89.52 74.0448 93.2C74.0848 94.78 73.5048 94.96 72.2248 95.08C71.0448 95.24 69.8648 95.4 68.6648 95.22C63.4648 94.46 62.0248 88.44 65.1848 85.02C66.8448 83.22 69.4448 83.28 71.1048 84.1ZM70.9448 90.84C70.9848 89.76 71.0048 88.64 71.0248 87.56C71.0248 87.44 70.9648 87.32 70.8448 87.2C69.6448 86.06 67.9248 86.16 67.1248 87.52C65.7448 89.84 67.1248 92.42 69.5448 92.32C70.7248 92.28 70.9448 91.8 70.9448 90.84ZM75.7127 88.02C75.6727 87.1 76.3927 86.42 77.2327 86.4C78.1127 86.38 78.7927 87.02 78.8127 87.96C78.8327 89.38 78.8527 92.12 78.8127 93.54C78.7927 94.62 77.8527 95.3 76.8527 95.04C76.1727 94.86 75.7327 94.36 75.7127 93.66C75.7127 89.9 75.7527 88.96 75.7127 88.02ZM77.5527 85.16C76.6527 85.16 75.9527 84.52 75.9327 83.7C75.9327 82.88 76.5927 82.24 77.4527 82.24C78.3327 82.24 79.0527 82.9 79.0727 83.7C79.0927 84.52 78.4127 85.16 77.5527 85.16ZM82.3607 85.04C84.4807 82.7 87.5807 82.56 89.5807 84.98C90.8607 86.52 91.4207 88.8 90.9407 90.72C89.8007 94.94 85.2407 96.6 82.2207 93.9C79.6607 91.68 80.3407 87.24 82.3607 85.04ZM87.9407 90.34C88.5007 88.7 87.8807 86.42 86.1207 86.32C84.7207 86.26 83.3407 88.56 83.6007 90.26C84.0407 92.98 87.2007 92.68 87.9407 90.34Z" fill="#202246"/>
<defs>
<clipPath id="clip0_123_1526">
<rect width="64" height="64" fill="white" transform="translate(15)"/>
</clipPath>
</defs>
</svg>
