<svg width="96" height="96" viewBox="0 0 96 96" fill="none" xmlns="http://www.w3.org/2000/svg">
<g clip-path="url(#clip0_119_2258)">
<path d="M80.5523 0H15.4477C6.91618 0 0 6.91618 0 15.4477V80.5523C0 89.0838 6.91618 96 15.4477 96H80.5523C89.0838 96 96 89.0838 96 80.5523V15.4477C96 6.91618 89.0838 0 80.5523 0Z" fill="#E5395E"/>
<path d="M32.421 26.7793C34.0977 27.6136 34.9956 29.0519 35.234 31.0862C35.2976 31.6822 35.2976 32.2861 35.2976 32.8821C34.9956 41.2019 34.7016 49.5297 34.4552 57.786C34.336 61.4413 34.2169 65.0887 34.2169 68.744C34.1533 70.7226 33.4381 72.153 31.8806 73.1145C30.2675 74.0124 28.6464 74.0124 27.089 72.9317C25.595 71.9146 24.8163 70.3571 24.8719 68.442C24.9355 64.3735 24.9911 60.3606 25.1103 56.2841C25.3487 47.7815 25.8255 39.5808 25.9447 31.3802C25.9447 27.9712 29.2345 25.2694 32.413 26.7713L32.421 26.7793Z" fill="#202346"/>
<path d="M61.8226 28.2096C61.8862 27.7328 61.8226 27.1924 61.8862 26.7156C62.0054 24.0775 63.984 22.226 66.6143 22.226C69.1253 22.2895 71.0483 24.0854 71.104 26.66C71.1675 28.8135 71.104 30.9113 71.0404 33.0092C70.802 44.0228 70.6192 54.9809 70.3809 66.0025C70.5 70.7305 68.7677 71.2709 64.9296 71.6285C61.3935 72.1053 57.8653 72.59 54.2736 72.0496C38.7067 69.777 34.3918 51.7546 43.8559 41.5118C48.8224 36.1241 56.6098 36.3069 61.5763 38.7544C61.6955 35.3454 61.759 31.4517 61.8147 28.2175L61.8226 28.2096ZM61.3458 49.1085C61.3458 48.7509 61.1631 48.3933 60.8055 48.0278C57.2137 44.6188 52.0645 44.9128 49.6726 48.9893C45.5405 55.9344 49.6726 63.6583 56.9197 63.3563C60.4558 63.2371 61.1074 61.7988 61.1074 58.9223C61.2266 55.6881 61.2902 52.3347 61.3458 49.1005V49.1085Z" fill="#202346"/>
</g>
<defs>
<clipPath id="clip0_119_2258">
<rect width="96" height="96" fill="white"/>
</clipPath>
</defs>
</svg>
