<svg width="113" height="100" viewBox="0 0 113 100" fill="none" xmlns="http://www.w3.org/2000/svg">
<g clip-path="url(#clip0_123_1219)">
<path d="M77.7015 0H34.2985C28.6108 0 24 4.61079 24 10.2985V53.7015C24 59.3892 28.6108 64 34.2985 64H77.7015C83.3892 64 88 59.3892 88 53.7015V10.2985C88 4.61079 83.3892 0 77.7015 0Z" fill="#F8C128"/>
<path d="M79.0533 27.6587C78.9739 27.2772 78.5819 26.0111 76.733 25.8204L72.0235 25.3277V20.6129C72.0235 18.7905 70.5984 17.2383 68.7761 17.0794L66.9007 16.9152V15.0398C66.9007 13.9697 66.4186 13.0638 65.5869 12.5553C64.7181 12.0202 63.6268 11.999 62.5991 12.5023L55.5533 15.9192L43.4801 14.8597C42.5213 14.775 41.6154 15.0822 40.9532 15.702C40.2698 16.3218 39.8831 17.2118 39.8831 18.1495V30.816L34.2994 33.8727C33.0439 34.5773 32.7896 35.6633 32.9697 36.4473C33.0704 36.887 33.5101 38.0472 35.2795 38.2326L39.8884 38.7147V43.4401C39.8884 45.2625 41.3134 46.8147 43.1358 46.9736L45.0853 47.1431V48.9549C45.0853 50.0197 45.5674 50.9309 46.3938 51.4342C46.8335 51.7096 47.3527 51.8527 47.893 51.8527C48.4334 51.8527 48.9525 51.7202 49.3869 51.4924L56.3268 48.1285L68.3734 49.1827C68.5324 49.2039 68.6648 49.2039 68.7337 49.2039C69.576 49.2039 70.3706 48.8913 70.964 48.3457C71.6473 47.7259 72.0341 46.8359 72.0341 45.8982V33.2847L77.7237 30.1697C78.9792 29.4704 79.2335 28.3791 79.0639 27.6481L79.0533 27.6587ZM43.9463 39.1491L45.0747 39.2656V43.0746L43.9463 42.9739V39.1438V39.1491ZM67.9549 24.8933L66.9007 24.7821V20.9837L67.9549 21.0738V24.8933ZM58.0008 36.3626C57.8577 36.4314 57.4339 36.5162 57.2485 36.5003L49.1379 35.6474V30.3657L53.9905 27.7063C54.1018 27.6534 54.4355 27.5686 54.6898 27.5686H54.7534L62.8375 28.4162V33.7138L58.0008 36.3626ZM55.3785 23.5742C54.2713 23.463 52.7933 23.749 51.8662 24.2576L49.1432 25.7515V23.7279C49.1803 23.6272 49.3128 23.463 49.3869 23.4312L56.3215 20.0672L62.8481 20.6341V24.3583L55.3838 23.5742H55.3785ZM45.08 35.2183L43.9516 35.1018V33.2105L45.08 32.5907V35.2183ZM56.6393 40.4841C56.7929 40.5 56.9625 40.5106 57.1426 40.5106C58.1756 40.5106 59.3517 40.2351 60.1463 39.8007L62.8428 38.3227V40.2828C62.8057 40.3834 62.6732 40.5477 62.5991 40.5794L55.5586 43.9911L49.1432 43.4295V39.6947L56.6393 40.4841ZM66.906 28.8453L67.9602 28.9566V30.9114L66.906 31.4888V28.8453ZM47.6175 19.7653C46.1501 20.4804 45.0853 22.1227 45.0853 23.6643V27.9712L43.9569 28.591V18.9865L48.4281 19.3785L47.6228 19.7706L47.6175 19.7653ZM64.3738 44.2348C65.8412 43.5196 66.906 41.8773 66.906 40.3358V36.103L67.9602 35.5256V45.0824L63.4414 44.6851L64.3738 44.2348Z" fill="#202346"/>
</g>
<path d="M4.43555 92.9C4.93555 92.82 5.39555 92.72 5.87555 92.66C6.55555 92.58 7.21555 92.48 7.89555 92.44C8.13555 92.42 8.39555 92.48 8.63555 92.58C9.25555 92.84 9.63555 93.5 9.57555 94.18C9.51555 94.88 8.99555 95.5 8.33555 95.6C6.87555 95.8 5.41555 95.98 3.95555 96.16C3.71555 96.2 3.49555 96.18 3.27555 96.18C2.05555 96.1 1.35555 95.34 1.29555 94C1.27555 93.2 1.25555 92.4 1.25555 91.6C1.21555 88.98 1.15555 85.26 1.11555 82.62C1.11555 82.18 1.07555 81.72 1.07555 81.26C1.07555 80.28 1.61555 79.58 2.47555 79.48C3.29555 79.38 3.99555 79.98 4.15555 80.92C4.21555 81.26 4.21555 81.6 4.23555 81.94C4.27555 85 4.35555 89.16 4.39555 92.22C4.39555 92.42 4.41555 92.62 4.43555 92.9ZM14.3807 91.12C14.6207 92.44 16.4607 92.8 17.7207 92.08C18.1807 91.82 18.6207 91.66 19.1407 91.8C20.2607 92.12 20.6407 93.34 19.8407 94.2C19.2607 94.82 18.5007 95.16 17.6607 95.32C13.4407 96.12 10.8207 93.1 10.8007 89.58C10.8007 86.14 12.9207 83.46 16.2607 83.24C22.0407 82.9 22.1607 91.06 16.6807 91.12C15.9607 91.14 15.2207 91.12 14.3807 91.12ZM14.1807 88.12C14.8207 88.16 15.4207 88.2 16.0407 88.2C18.0807 88.2 18.3007 86.16 16.3807 86.16C15.3607 86.14 14.4407 87.1 14.1807 88.12ZM25.0526 86.36C26.3326 84.2 28.9126 82.6 31.6926 83.88C32.8326 84.4 33.5526 85.38 33.9126 86.68C34.5726 89.06 33.8526 91.6 33.1926 93.78C32.9126 94.74 32.0726 95.22 31.2126 94.94C30.4126 94.68 30.0126 93.96 30.1726 93.04C30.2326 92.6 30.3726 92.16 30.4726 91.72C30.6526 90.88 30.8526 90.06 30.9526 89.22C31.3326 85.92 28.9326 86.26 27.5526 88.46C26.5726 89.98 26.4726 91.66 26.4726 93.3C26.4926 94.3 25.9526 95.04 25.1326 95.16C24.2726 95.3 23.5326 94.78 23.3126 93.78C22.9726 92.22 22.6926 90.64 22.3526 89.04C22.1126 87.92 21.8726 86.82 21.6126 85.72C21.3726 84.7 21.7326 83.86 22.5726 83.56C23.4126 83.28 24.2726 83.72 24.6126 84.66C24.7926 85.2 24.8926 85.74 25.0526 86.36ZM39.7416 91.5C38.5416 90.48 37.2016 89.8 36.3816 88.64C35.4616 87.4 35.7016 85.98 36.4016 84.84C37.4616 83.18 39.4216 82.34 41.2016 81.8C43.8016 81.02 44.3416 84.42 41.9816 84.72C40.9216 84.84 37.8416 86.18 39.4616 87.48C40.5216 88.36 41.6816 88.94 42.4816 90.02C43.0416 90.78 43.4216 91.6 43.4016 92.56C43.3616 94.12 42.1216 95.4 40.4216 95.5C39.4616 95.56 38.4816 95.46 37.5016 95.44C37.4416 95.44 37.3816 95.42 37.3216 95.42C36.5216 95.24 36.0016 94.56 36.0816 93.8C36.1616 93.04 36.8216 92.48 37.6616 92.5C38.2016 92.52 38.7416 92.56 39.2816 92.58C40.2416 92.64 40.5616 92.2 39.7416 91.5ZM56.0893 91.5C54.8893 90.48 53.5493 89.8 52.7293 88.64C51.8093 87.4 52.0493 85.98 52.7493 84.84C53.8093 83.18 55.7693 82.34 57.5493 81.8C60.1493 81.02 60.6893 84.42 58.3293 84.72C57.2693 84.84 54.1893 86.18 55.8093 87.48C56.8693 88.36 58.0293 88.94 58.8293 90.02C59.3893 90.78 59.7693 91.6 59.7493 92.56C59.7093 94.12 58.4693 95.4 56.7693 95.5C55.8093 95.56 54.8293 95.46 53.8493 95.44C53.7893 95.44 53.7293 95.42 53.6693 95.42C52.8693 95.24 52.3493 94.56 52.4293 93.8C52.5093 93.04 53.1693 92.48 54.0093 92.5C54.5493 92.52 55.0893 92.56 55.6293 92.58C56.5893 92.64 56.9093 92.2 56.0893 91.5ZM64.3137 88.8C63.8337 88.8 63.4337 88.82 63.0137 88.8C62.7337 88.78 62.4337 88.76 62.1737 88.68C61.4937 88.44 61.1337 87.86 61.1937 87.2C61.3337 85.74 63.0137 85.9 64.0137 85.82C64.1737 85.82 64.3337 85.8 64.5537 85.78C64.7537 83.86 64.9737 82.04 65.2337 80.24C65.3737 79.22 66.2937 78.62 67.2337 78.9C67.9537 79.1 68.3937 79.68 68.3137 80.5C68.1937 82.28 67.8937 83.98 67.7137 85.7C68.0737 85.7 68.3737 85.68 68.6737 85.7C69.6337 85.76 70.5937 86.1 70.6337 87.16C70.6537 87.76 70.2537 88.32 69.6537 88.52C69.3937 88.62 69.1137 88.64 68.8537 88.66C68.4337 88.68 67.9937 88.66 67.4937 88.66C67.4337 90.14 67.2337 91.68 67.2537 93.88C67.2537 94.66 67.0337 95.26 66.3337 95.52C65.0537 96.02 64.1137 94.88 64.1137 93.74C64.1537 91.68 64.2537 90.24 64.3137 88.8ZM75.8963 95.08C71.3763 93.94 71.4563 88.14 72.7563 84.8C73.2363 83.48 74.4563 83 75.3163 83.46C75.8963 83.78 76.4363 84.56 75.9363 85.7C75.5363 86.66 75.2163 88.54 75.4763 90.02C75.9363 92.86 78.8563 92.66 79.3563 90.04C79.6163 88.68 79.2363 86.56 79.1163 85.7C78.9363 84.44 79.5363 83.6 80.5363 83.5C81.4363 83.42 82.2163 84.04 82.3963 85.06C82.6363 86.34 82.8163 87.88 82.7963 89.3C82.6963 92.88 79.8563 96.1 75.8963 95.08ZM91.8196 84.1C91.8596 82.96 91.8796 81.66 91.8996 80.58C91.9196 80.42 91.8996 80.24 91.9196 80.08C91.9596 79.2 92.6196 78.58 93.4996 78.58C94.3396 78.6 94.9796 79.2 94.9996 80.06C95.0196 80.78 94.9996 81.48 94.9796 82.18C94.8996 85.86 94.8396 89.52 94.7596 93.2C94.7996 94.78 94.2196 94.96 92.9396 95.08C91.7596 95.24 90.5796 95.4 89.3796 95.22C84.1796 94.46 82.7396 88.44 85.8996 85.02C87.5596 83.22 90.1596 83.28 91.8196 84.1ZM91.6596 90.84C91.6996 89.76 91.7196 88.64 91.7396 87.56C91.7396 87.44 91.6796 87.32 91.5596 87.2C90.3596 86.06 88.6396 86.16 87.8396 87.52C86.4596 89.84 87.8396 92.42 90.2596 92.32C91.4396 92.28 91.6596 91.8 91.6596 90.84ZM96.4276 88.02C96.3876 87.1 97.1076 86.42 97.9476 86.4C98.8276 86.38 99.5076 87.02 99.5276 87.96C99.5476 89.38 99.5676 92.12 99.5276 93.54C99.5076 94.62 98.5676 95.3 97.5676 95.04C96.8876 94.86 96.4476 94.36 96.4276 93.66C96.4276 89.9 96.4676 88.96 96.4276 88.02ZM98.2676 85.16C97.3676 85.16 96.6676 84.52 96.6476 83.7C96.6476 82.88 97.3076 82.24 98.1676 82.24C99.0476 82.24 99.7676 82.9 99.7876 83.7C99.8076 84.52 99.1276 85.16 98.2676 85.16ZM103.076 85.04C105.196 82.7 108.296 82.56 110.296 84.98C111.576 86.52 112.136 88.8 111.656 90.72C110.516 94.94 105.956 96.6 102.936 93.9C100.376 91.68 101.056 87.24 103.076 85.04ZM108.656 90.34C109.216 88.7 108.596 86.42 106.836 86.32C105.436 86.26 104.056 88.56 104.316 90.26C104.756 92.98 107.916 92.68 108.656 90.34Z" fill="#202246"/>
<defs>
<clipPath id="clip0_123_1219">
<rect width="64" height="64" fill="white" transform="translate(24)"/>
</clipPath>
</defs>
</svg>
