<svg width="104" height="100" viewBox="0 0 104 100" fill="none" xmlns="http://www.w3.org/2000/svg">
<g clip-path="url(#clip0_119_2414)">
<path d="M73.7015 0H30.2985C24.6108 0 20 4.61079 20 10.2985V53.7015C20 59.3892 24.6108 64 30.2985 64H73.7015C79.3892 64 84 59.3892 84 53.7015V10.2985C84 4.61079 79.3892 0 73.7015 0Z" fill="#4E58DD"/>
<path d="M39.5422 44.595C39.3409 46.7511 37.1477 48.0702 35.1929 47.1908C33.9957 46.714 33.3547 45.7922 33.3547 44.5155C33.3547 42.5978 33.4341 39.843 33.397 37.9306C33.2381 33.5018 33.0792 29.0307 32.8779 24.5595C32.8355 23.6007 32.6395 22.6842 32.4806 21.7253C31.919 18.5309 34.3559 17.2171 37.1901 16.735C41.2639 16.094 44.9722 17.0158 48.0872 18.9282C56.3885 23.9185 55.3131 34.2541 47.9283 38.8047C45.5709 40.2827 42.7367 40.9979 39.5846 41.1621C39.5846 42.0415 39.627 43.7156 39.5422 44.595ZM44.5696 23.6801C42.7738 22.5624 40.6176 21.9637 39.0231 22.361C39.2244 26.5938 39.4628 30.7842 39.6641 35.2553C46.3284 36.1347 50.879 27.7116 44.5749 23.6801H44.5696Z" fill="#202346"/>
<path d="M57.4271 32.6596C55.5888 30.1856 56.0709 27.3514 57.4694 25.0734C59.5832 21.7625 63.4981 20.0831 67.0474 19.0077C72.2391 17.4502 73.3145 24.2364 68.6049 24.835C66.4912 25.0734 60.3407 27.7487 63.5775 30.3445C65.6913 32.1033 68.0063 33.2582 69.6062 35.4143C70.724 36.9294 71.4815 38.5664 71.4444 40.4841C71.365 43.5991 68.891 46.1525 65.4953 46.3538C63.5775 46.4756 61.6227 46.2743 59.6679 46.2319C59.5461 46.2319 59.4295 46.1896 59.3077 46.1896C57.7131 45.8293 56.6748 44.4732 56.8337 42.958C56.9927 41.4429 58.3118 40.3252 59.9858 40.3622C61.0612 40.4046 62.1419 40.4841 63.2173 40.5212C65.135 40.643 65.7707 39.7636 64.1338 38.3651C61.7393 36.3308 59.064 34.9746 57.4271 32.6543V32.6596Z" fill="#202346"/>
</g>
<path d="M4.09883 92.9C4.09883 93.34 4.11883 94.18 4.07883 94.62C3.97883 95.7 2.87883 96.36 1.89883 95.92C1.29883 95.68 0.978828 95.22 0.978828 94.58C0.978828 93.62 1.01883 92.24 0.998828 91.28C0.918828 89.06 0.838828 86.82 0.738828 84.58C0.718828 84.1 0.618828 83.64 0.538828 83.16C0.258828 81.56 1.47883 80.9 2.89883 80.66C4.93883 80.34 6.79883 80.8 8.35883 81.76C12.5188 84.26 11.9788 89.44 8.27883 91.72C7.09883 92.46 5.67883 92.82 4.09883 92.9ZM4.13883 89.94C7.47883 90.38 9.75883 86.16 6.59883 84.14C5.69883 83.58 4.61883 83.28 3.81883 83.48C3.91883 85.6 4.03883 87.7 4.13883 89.94ZM15.6218 87.58C18.6618 84.84 22.6018 86.68 22.7018 90.7C22.7218 91.44 22.7218 92.18 22.7218 92.92C22.7218 94.02 22.5618 95.1 21.3618 95.22C20.0418 95.34 19.4418 94.14 19.5418 93.12C19.5618 92.18 19.7618 91.24 19.4418 90.42C18.6818 88.3 15.6818 89.4 16.1018 93.56C16.2218 94.72 15.0018 95.56 14.1018 95.34C13.4618 95.16 13.0418 94.52 12.9818 93.86C12.8818 92.88 12.8418 91.9 12.7618 90.94C12.6218 89.14 12.4618 87.34 12.3218 85.54C12.2618 84.8 12.1818 84.06 12.1618 83.32C12.0818 82.2 12.9418 81.32 14.0618 81.5C14.7618 81.62 15.2418 82.18 15.2818 82.94C15.3218 83.72 15.3618 84.48 15.4218 85.24C15.4818 85.98 15.5618 86.72 15.6218 87.58ZM26.2201 85.04C28.3401 82.7 31.4401 82.56 33.4401 84.98C34.7201 86.52 35.2801 88.8 34.8001 90.72C33.6601 94.94 29.1001 96.6 26.0801 93.9C23.5201 91.68 24.2001 87.24 26.2201 85.04ZM31.8001 90.34C32.3601 88.7 31.7401 86.42 29.9801 86.32C28.5801 86.26 27.2001 88.56 27.4601 90.26C27.9001 92.98 31.0601 92.68 31.8001 90.34ZM39.509 88.8C39.029 88.8 38.629 88.82 38.209 88.8C37.929 88.78 37.629 88.76 37.369 88.68C36.689 88.44 36.329 87.86 36.389 87.2C36.529 85.74 38.209 85.9 39.209 85.82C39.369 85.82 39.529 85.8 39.749 85.78C39.949 83.86 40.169 82.04 40.429 80.24C40.569 79.22 41.489 78.62 42.429 78.9C43.149 79.1 43.589 79.68 43.509 80.5C43.389 82.28 43.089 83.98 42.909 85.7C43.269 85.7 43.569 85.68 43.869 85.7C44.829 85.76 45.789 86.1 45.829 87.16C45.849 87.76 45.449 88.32 44.849 88.52C44.589 88.62 44.309 88.64 44.049 88.66C43.629 88.68 43.189 88.66 42.689 88.66C42.629 90.14 42.429 91.68 42.449 93.88C42.449 94.66 42.229 95.26 41.529 95.52C40.249 96.02 39.309 94.88 39.309 93.74C39.349 91.68 39.449 90.24 39.509 88.8ZM49.0716 85.04C51.1916 82.7 54.2916 82.56 56.2916 84.98C57.5716 86.52 58.1316 88.8 57.6516 90.72C56.5116 94.94 51.9516 96.6 48.9316 93.9C46.3716 91.68 47.0516 87.24 49.0716 85.04ZM54.6516 90.34C55.2116 88.7 54.5916 86.42 52.8316 86.32C51.4316 86.26 50.0516 88.56 50.3116 90.26C50.7516 92.98 53.9116 92.68 54.6516 90.34ZM63.1205 91.5C61.9205 90.48 60.5805 89.8 59.7605 88.64C58.8405 87.4 59.0805 85.98 59.7805 84.84C60.8405 83.18 62.8005 82.34 64.5805 81.8C67.1805 81.02 67.7205 84.42 65.3605 84.72C64.3005 84.84 61.2205 86.18 62.8405 87.48C63.9005 88.36 65.0605 88.94 65.8605 90.02C66.4205 90.78 66.8005 91.6 66.7805 92.56C66.7405 94.12 65.5005 95.4 63.8005 95.5C62.8405 95.56 61.8605 95.46 60.8805 95.44C60.8205 95.44 60.7605 95.42 60.7005 95.42C59.9005 95.24 59.3805 94.56 59.4605 93.8C59.5405 93.04 60.2005 92.48 61.0405 92.5C61.5805 92.52 62.1205 92.56 62.6605 92.58C63.6205 92.64 63.9405 92.2 63.1205 91.5ZM71.3249 87.58C74.3649 84.84 78.3049 86.68 78.4049 90.7C78.4249 91.44 78.4249 92.18 78.4249 92.92C78.4249 94.02 78.2649 95.1 77.0649 95.22C75.7449 95.34 75.1449 94.14 75.2449 93.12C75.2649 92.18 75.4649 91.24 75.1449 90.42C74.3849 88.3 71.3849 89.4 71.8049 93.56C71.9249 94.72 70.7049 95.56 69.8049 95.34C69.1649 95.16 68.7449 94.52 68.6849 93.86C68.5849 92.88 68.5449 91.9 68.4649 90.94C68.3249 89.14 68.1649 87.34 68.0249 85.54C67.9649 84.8 67.8849 84.06 67.8649 83.32C67.7849 82.2 68.6449 81.32 69.7649 81.5C70.4649 81.62 70.9449 82.18 70.9849 82.94C71.0249 83.72 71.0649 84.48 71.1249 85.24C71.1849 85.98 71.2649 86.72 71.3249 87.58ZM81.9232 85.04C84.0432 82.7 87.1432 82.56 89.1432 84.98C90.4232 86.52 90.9832 88.8 90.5032 90.72C89.3632 94.94 84.8032 96.6 81.7832 93.9C79.2232 91.68 79.9032 87.24 81.9232 85.04ZM87.5032 90.34C88.0632 88.7 87.4432 86.42 85.6832 86.32C84.2832 86.26 82.9032 88.56 83.1632 90.26C83.6032 92.98 86.7632 92.68 87.5032 90.34ZM95.3721 94.18C95.3721 95.02 95.3721 95.8 95.3721 96.56C95.3721 96.76 95.4121 96.98 95.3921 97.18C95.3521 98.02 94.7721 98.64 93.9521 98.68C93.1121 98.72 92.4521 98.2 92.3321 97.36C92.2721 97.02 92.2321 96.66 92.2521 96.32C92.2721 92.46 92.3121 88.6 92.3721 84.76C92.3721 83.64 93.0321 82.92 94.0121 83C94.3521 83.02 94.6921 83.18 94.9721 83.38C95.1921 83.52 95.3721 83.58 95.6521 83.54C97.2321 83.36 98.6921 83.68 99.9721 84.66C102.372 86.5 103.052 90.5 99.5721 92.9C98.3321 93.76 96.9321 94.18 95.3721 94.18ZM95.3721 91.22C96.9321 91.58 99.1721 90.36 98.7921 88.26C98.5121 86.68 97.0721 86.3 95.9721 86.48C95.4721 86.56 95.3721 86.66 95.3921 87.2C95.4321 88.64 95.3721 90 95.3721 91.22Z" fill="#202246"/>
<defs>
<clipPath id="clip0_119_2414">
<rect width="64" height="64" fill="white" transform="translate(20)"/>
</clipPath>
</defs>
</svg>
