<svg width="136" height="100" viewBox="0 0 136 100" fill="none" xmlns="http://www.w3.org/2000/svg">
<g clip-path="url(#clip0_119_2351)">
<path d="M89.703 0H46.297C40.6101 0 36 4.61013 36 10.297V53.703C36 59.3899 40.6101 64 46.297 64H89.703C95.3899 64 100 59.3899 100 53.703V10.297C100 4.61013 95.3899 0 89.703 0Z" fill="#8763E0"/>
<path d="M52.7848 44.5954C52.5865 46.749 50.39 48.067 48.4345 47.1884C47.2398 46.7115 46.5969 45.7901 46.5969 44.515C46.5969 42.597 46.6773 39.8433 46.6344 37.9307C46.4737 33.5001 46.313 29.0266 46.1147 24.5585C46.0772 23.5995 45.8737 22.6834 45.7129 21.7244C45.1558 18.5314 47.588 17.2135 50.4221 16.7367C54.4938 16.0991 58.2065 17.0152 61.3192 18.9332C69.6232 23.921 68.5463 34.2608 61.1584 38.8093C58.8012 40.288 55.9671 41.0059 52.8169 41.1666C52.8169 42.0452 52.8544 43.7221 52.7794 44.6007L52.7848 44.5954ZM57.8154 23.6799C56.0206 22.5602 53.8616 21.9655 52.2651 22.362C52.4633 26.5943 52.7044 30.7839 52.9026 35.2573C59.5673 36.136 64.1211 27.7141 57.81 23.6799H57.8154Z" fill="#202346"/>
<path d="M90.1097 34.4162C89.7079 36.6502 87.0774 37.6896 85.2398 36.452C84.2433 35.7716 83.8415 34.8555 83.9647 33.6983C84.2433 30.1034 82.5289 26.5514 78.8162 29.2677C76.0196 31.341 76.7429 38.011 77.6162 41.2415C77.734 41.6434 77.8144 42.0773 77.8572 42.4791C77.9751 44.1131 77.1393 45.3936 75.6607 45.79C74.182 46.1865 72.3498 45.79 71.7069 44.3917C71.3854 43.7113 71.3051 42.6345 71.1069 41.8362C69.7086 36.3663 69.43 30.8588 68.8728 25.3889C68.7121 23.6316 69.9122 22.2333 71.6694 22.0351C73.2659 21.8369 74.7446 22.9512 75.0607 24.6281C75.0982 25.0299 75.1785 25.4264 75.3017 25.9835C83.1236 17.642 91.9848 24.387 90.1097 34.4054V34.4162Z" fill="#202346"/>
</g>
<path d="M4.24141 92.9C4.24141 93.34 4.26141 94.18 4.22141 94.62C4.12141 95.7 3.02141 96.36 2.04141 95.92C1.44141 95.68 1.12141 95.22 1.12141 94.58C1.12141 93.62 1.16141 92.24 1.14141 91.28C1.06141 89.06 0.981406 86.82 0.881406 84.58C0.861406 84.1 0.761406 83.64 0.681406 83.16C0.401406 81.56 1.62141 80.9 3.04141 80.66C5.08141 80.34 6.94141 80.8 8.50141 81.76C12.6614 84.26 12.1214 89.44 8.42141 91.72C7.24141 92.46 5.82141 92.82 4.24141 92.9ZM4.28141 89.94C7.62141 90.38 9.90141 86.16 6.74141 84.14C5.84141 83.58 4.76141 83.28 3.96141 83.48C4.06141 85.6 4.18141 87.7 4.28141 89.94ZM15.5044 85.3C19.4244 81.12 23.8644 84.5 22.9244 89.52C22.7244 90.64 21.4044 91.16 20.4844 90.54C19.9844 90.2 19.7844 89.74 19.8444 89.16C19.9844 87.36 19.1244 85.58 17.2644 86.94C15.8644 87.98 16.2244 91.32 16.6644 92.94C16.7244 93.14 16.7644 93.36 16.7844 93.56C16.8444 94.38 16.4244 95.02 15.6844 95.22C14.9444 95.42 14.0244 95.22 13.7044 94.52C13.5444 94.18 13.5044 93.64 13.4044 93.24C12.7044 90.5 12.5644 87.74 12.2844 85C12.2044 84.12 12.8044 83.42 13.6844 83.32C14.4844 83.22 15.2244 83.78 15.3844 84.62C15.4044 84.82 15.4444 85.02 15.5044 85.3ZM28.078 91.12C28.318 92.44 30.158 92.8 31.418 92.08C31.878 91.82 32.318 91.66 32.838 91.8C33.958 92.12 34.338 93.34 33.538 94.2C32.958 94.82 32.198 95.16 31.358 95.32C27.138 96.12 24.518 93.1 24.498 89.58C24.498 86.14 26.618 83.46 29.958 83.24C35.738 82.9 35.858 91.06 30.378 91.12C29.658 91.14 28.918 91.12 28.078 91.12ZM27.878 88.12C28.518 88.16 29.118 88.2 29.738 88.2C31.778 88.2 31.998 86.16 30.078 86.16C29.058 86.14 28.138 87.1 27.878 88.12ZM38.9298 93.74C38.7098 94.88 37.8298 95.44 36.8698 95.14C36.2698 94.94 35.8898 94.48 35.8098 93.78C35.4098 90.92 35.8498 87.22 36.3498 84.86C36.5298 84.16 36.9498 83.68 37.6498 83.56C38.7298 83.34 39.5898 84.24 39.4498 85.42C39.4098 85.68 39.2898 86.52 39.2298 86.9C41.0698 85.14 42.4298 86.2 43.4098 87.88C44.2698 86.68 45.0698 85.66 46.3498 85.14C47.7898 84.58 49.3898 85.02 50.3498 86.32C51.6898 88.24 52.1698 90.64 52.8898 92.78C53.1298 93.54 52.9298 94.26 52.3298 94.68C51.7498 95.12 50.9098 95.1 50.4098 94.54C50.1298 94.22 49.9098 93.78 49.7498 93.34C49.3498 92.22 49.0098 91.04 48.6098 89.9C47.8898 87.92 46.8098 87.76 46.0098 89.86C45.5898 90.92 45.3898 91.92 45.1098 92.88C44.8898 93.6 44.4298 94.04 43.7698 94.16C43.0698 94.28 42.4698 94 42.0698 93.36C41.8498 93.02 41.6698 92.62 41.5698 92.2C40.3098 87.12 39.5098 90.62 38.9298 93.74ZM54.3045 88.02C54.2645 87.1 54.9845 86.42 55.8245 86.4C56.7045 86.38 57.3845 87.02 57.4045 87.96C57.4245 89.38 57.4445 92.12 57.4045 93.54C57.3845 94.62 56.4445 95.3 55.4445 95.04C54.7645 94.86 54.3245 94.36 54.3045 93.66C54.3045 89.9 54.3445 88.96 54.3045 88.02ZM56.1445 85.16C55.2445 85.16 54.5445 84.52 54.5245 83.7C54.5245 82.88 55.1845 82.24 56.0445 82.24C56.9245 82.24 57.6445 82.9 57.6645 83.7C57.6845 84.52 57.0045 85.16 56.1445 85.16ZM62.4725 91.12C62.7125 92.44 64.5525 92.8 65.8125 92.08C66.2725 91.82 66.7125 91.66 67.2325 91.8C68.3525 92.12 68.7325 93.34 67.9325 94.2C67.3525 94.82 66.5925 95.16 65.7525 95.32C61.5325 96.12 58.9125 93.1 58.8925 89.58C58.8925 86.14 61.0125 83.46 64.3525 83.24C70.1325 82.9 70.2525 91.06 64.7725 91.12C64.0525 91.14 63.3125 91.12 62.4725 91.12ZM62.2725 88.12C62.9125 88.16 63.5125 88.2 64.1325 88.2C66.1725 88.2 66.3925 86.16 64.4725 86.16C63.4525 86.14 62.5325 87.1 62.2725 88.12ZM73.0044 85.3C76.9244 81.12 81.3644 84.5 80.4244 89.52C80.2244 90.64 78.9044 91.16 77.9844 90.54C77.4844 90.2 77.2844 89.74 77.3444 89.16C77.4844 87.36 76.6244 85.58 74.7644 86.94C73.3644 87.98 73.7244 91.32 74.1644 92.94C74.2244 93.14 74.2644 93.36 74.2844 93.56C74.3444 94.38 73.9244 95.02 73.1844 95.22C72.4444 95.42 71.5244 95.22 71.2044 94.52C71.0444 94.18 71.0044 93.64 70.9044 93.24C70.2044 90.5 70.0644 87.74 69.7844 85C69.7044 84.12 70.3044 83.42 71.1844 83.32C71.9844 83.22 72.7244 83.78 72.8844 84.62C72.9044 84.82 72.9444 85.02 73.0044 85.3ZM85.578 91.12C85.818 92.44 87.658 92.8 88.918 92.08C89.378 91.82 89.818 91.66 90.338 91.8C91.458 92.12 91.838 93.34 91.038 94.2C90.458 94.82 89.698 95.16 88.858 95.32C84.638 96.12 82.018 93.1 81.998 89.58C81.998 86.14 84.118 83.46 87.458 83.24C93.238 82.9 93.358 91.06 87.878 91.12C87.158 91.14 86.418 91.12 85.578 91.12ZM85.378 88.12C86.018 88.16 86.618 88.2 87.238 88.2C89.278 88.2 89.498 86.16 87.578 86.16C86.558 86.14 85.638 87.1 85.378 88.12ZM103.753 92.9C103.753 93.34 103.773 94.18 103.733 94.62C103.633 95.7 102.533 96.36 101.553 95.92C100.953 95.68 100.633 95.22 100.633 94.58C100.633 93.62 100.673 92.24 100.653 91.28C100.573 89.06 100.493 86.82 100.393 84.58C100.373 84.1 100.273 83.64 100.193 83.16C99.9131 81.56 101.133 80.9 102.553 80.66C104.593 80.34 106.453 80.8 108.013 81.76C112.173 84.26 111.633 89.44 107.933 91.72C106.753 92.46 105.333 92.82 103.753 92.9ZM103.793 89.94C107.133 90.38 109.413 86.16 106.253 84.14C105.353 83.58 104.273 83.28 103.473 83.48C103.573 85.6 103.693 87.7 103.793 89.94ZM115.016 85.3C118.936 81.12 123.376 84.5 122.436 89.52C122.236 90.64 120.916 91.16 119.996 90.54C119.496 90.2 119.296 89.74 119.356 89.16C119.496 87.36 118.636 85.58 116.776 86.94C115.376 87.98 115.736 91.32 116.176 92.94C116.236 93.14 116.276 93.36 116.296 93.56C116.356 94.38 115.936 95.02 115.196 95.22C114.456 95.42 113.536 95.22 113.216 94.52C113.056 94.18 113.016 93.64 112.916 93.24C112.216 90.5 112.076 87.74 111.796 85C111.716 84.12 112.316 83.42 113.196 83.32C113.996 83.22 114.736 83.78 114.896 84.62C114.916 84.82 114.956 85.02 115.016 85.3ZM126.07 85.04C128.19 82.7 131.29 82.56 133.29 84.98C134.57 86.52 135.13 88.8 134.65 90.72C133.51 94.94 128.95 96.6 125.93 93.9C123.37 91.68 124.05 87.24 126.07 85.04ZM131.65 90.34C132.21 88.7 131.59 86.42 129.83 86.32C128.43 86.26 127.05 88.56 127.31 90.26C127.75 92.98 130.91 92.68 131.65 90.34Z" fill="#202246"/>
<defs>
<clipPath id="clip0_119_2351">
<rect width="64" height="64" fill="white" transform="translate(36)"/>
</clipPath>
</defs>
</svg>
