<svg width="64" height="105" viewBox="0 0 64 105" fill="none" xmlns="http://www.w3.org/2000/svg">
<path d="M19.8111 96.96C20.4311 97.32 21.3711 97.8 21.9311 98.14C22.1311 98.24 22.3311 98.36 22.5111 98.5C23.0711 98.92 23.2711 99.62 23.0111 100.2C22.7311 100.8 22.0111 101.22 21.3511 101.06C21.0311 101 20.6911 100.86 20.3911 100.68C19.1911 99.98 17.9911 99.26 16.8111 98.56C16.6111 98.44 16.4111 98.34 16.1311 98.18C16.1111 98.7 16.0911 99.12 16.0711 99.54C16.0511 99.78 16.0511 100 16.0311 100.24C15.9111 101.06 15.2711 101.64 14.4511 101.6C13.6311 101.58 12.9711 101 12.9511 100.16C12.9311 99.22 12.9711 98.26 13.0111 97.3C13.1511 93.86 13.4311 90.44 13.3711 86.98C13.3511 86.06 13.7511 85.5 14.5111 85.26C14.8911 85.14 15.2711 85.16 15.5911 85.34C15.8911 85.52 16.1711 85.48 16.4711 85.38C17.1111 85.18 17.7311 85.06 18.3711 85.06C21.4711 85.06 23.6511 87.06 24.1311 89.94C24.4511 91.94 23.8511 94.28 22.2511 95.66C21.5111 96.32 20.6511 96.76 19.8111 96.96ZM16.3511 95C17.4111 95.06 18.5911 94.8 19.5111 94.22C22.3511 92.4 21.1511 87.24 17.5311 88.12C16.9911 88.24 16.5111 88.46 16.5111 88.92C16.4511 91.1 16.3511 93.04 16.3511 95ZM25.3553 93.02C25.3153 92.1 26.0353 91.42 26.8753 91.4C27.7553 91.38 28.4353 92.02 28.4553 92.96C28.4753 94.38 28.4953 97.12 28.4553 98.54C28.4353 99.62 27.4953 100.3 26.4953 100.04C25.8153 99.86 25.3753 99.36 25.3553 98.66C25.3553 94.9 25.3953 93.96 25.3553 93.02ZM27.1953 90.16C26.2953 90.16 25.5953 89.52 25.5753 88.7C25.5753 87.88 26.2353 87.24 27.0953 87.24C27.9753 87.24 28.6953 87.9 28.7153 88.7C28.7353 89.52 28.0553 90.16 27.1953 90.16ZM34.6033 96.14C35.6633 93.36 36.5433 90.56 37.4433 87.76C37.7233 86.9 38.3033 86.48 39.1433 86.54C40.0433 86.6 40.6433 87.36 40.5233 88.26C40.5033 88.38 40.4833 88.5 40.4433 88.62C39.5433 91.3 38.6633 93.96 37.7433 96.62C37.5033 97.3 37.2033 97.98 36.8433 98.6C35.7833 100.54 33.7433 100.68 32.5633 98.82C30.9633 96.3 30.2233 92.84 29.8833 89.8C29.7433 88.6 30.8833 87.92 31.8033 88.16C32.4233 88.32 32.8433 88.7 32.9233 89.34C33.3233 91.94 33.5433 93.96 34.6033 96.14ZM44.617 96.12C44.857 97.44 46.697 97.8 47.957 97.08C48.417 96.82 48.857 96.66 49.377 96.8C50.497 97.12 50.877 98.34 50.077 99.2C49.497 99.82 48.737 100.16 47.897 100.32C43.677 101.12 41.057 98.1 41.037 94.58C41.037 91.14 43.157 88.46 46.497 88.24C52.277 87.9 52.397 96.06 46.917 96.12C46.197 96.14 45.457 96.12 44.617 96.12ZM44.417 93.12C45.057 93.16 45.657 93.2 46.277 93.2C48.317 93.2 48.537 91.16 46.617 91.16C45.597 91.14 44.677 92.1 44.417 93.12Z" fill="#202246"/>
<path d="M53.7015 0H10.2985C4.61079 0 0 4.61079 0 10.2985V53.7015C0 59.3892 4.61079 64 10.2985 64H53.7015C59.3892 64 64 59.3892 64 53.7015V10.2985C64 4.61079 59.3892 0 53.7015 0Z" fill="#202446"/>
<path d="M49.3414 46.4438L42.4757 35.605C43.7789 34.8951 44.7643 34.021 45.4741 33.2157C47.3972 31.0384 48.4567 28.1407 48.4567 25.0575C48.4567 19.1083 44.3617 13.085 36.5318 13.085H17.1109C15.5005 13.085 14.1973 14.3882 14.1973 15.9986C14.1973 17.6091 15.5005 18.9123 17.1109 18.9123H36.5318C41.342 18.9123 42.6294 22.7742 42.6294 25.0575C42.6294 26.6944 42.0731 28.2625 41.1089 29.3591C40.0229 30.5828 38.4866 31.208 36.5318 31.208H27.42C25.8095 31.208 24.5063 32.5112 24.5063 34.1216C24.5063 35.7321 25.8095 37.0353 27.42 37.0353H36.4789L44.4146 49.5641C44.9709 50.4382 45.9138 50.9202 46.878 50.9202C47.4131 50.9202 47.9481 50.7719 48.4355 50.4699C49.797 49.6117 50.1996 47.8106 49.3361 46.4491L49.3414 46.4438Z" fill="#FDEFE1"/>
</svg>
