<svg width="1440" height="688" viewBox="0 0 1440 688" fill="none" xmlns="http://www.w3.org/2000/svg">
<rect width="1440" height="679" fill="url(#paint0_linear_934_5395)"/>
<rect width="1440" height="679" fill="url(#paint1_linear_934_5395)"/>
<g opacity="0.7" filter="url(#filter0_f_934_5395)">
<ellipse cx="705.65" cy="299.554" rx="159.65" ry="159.326" fill="#EFC8E2"/>
</g>
<g filter="url(#filter1_f_934_5395)">
<path fill-rule="evenodd" clip-rule="evenodd" d="M850.231 238.673C848.57 236.652 846.92 234.777 845.303 233.042C835.345 222.29 823.687 213.675 810.738 207.332C805.776 204.958 800.712 203.059 795.512 201.464C797.721 198.446 799.692 195.325 801.358 191.933C806.66 181.351 809.447 169.107 809.481 156.625C809.447 145.194 802.377 134.239 792.011 129.66C784.058 126.166 775.799 123.962 767.439 123.215C760.607 122.605 753.878 122.944 747.386 124.199C739.936 125.628 732.812 128.31 726.252 132.159L726.45 132.035L697.867 148.689L697.051 149.198C696.168 149.707 695.318 150.249 694.468 150.826C684.476 157.406 676.387 166.666 670.881 177.621C669.127 181.123 667.774 184.858 666.624 188.662C660.364 188.683 654.264 189.277 648.382 190.407C637.777 192.468 627.885 196.316 619.074 201.832L592.745 217.136C587.783 220.019 583.16 223.411 578.912 227.277C568.41 236.876 560.423 249.154 555.087 263.943C549.513 279.24 546.998 297.284 547.508 317.364C548.188 345.482 554.985 373.057 567.798 399.242C578.504 421.221 593.186 441.707 611.302 460.294C626.324 475.625 643.352 489.124 660.481 499.266C672.207 506.253 689.302 514.766 704.392 516.191C710.136 516.7 716.628 516.225 724.785 514.631C731.65 513.172 738.991 510.9 746.536 507.813C752.382 505.405 759.757 502.013 767.914 497.265L795.552 481.2C795.888 481.01 796.225 480.815 796.566 480.611L795.552 481.2C794.897 481.571 794.247 481.922 793.59 482.276L793.579 482.282C793.397 482.38 793.214 482.479 793.031 482.578C802.173 477.558 812.472 470.843 822.872 461.922C840.579 446.795 854.548 428.852 864.438 408.637C876.265 384.386 881.873 357.421 881.194 328.489C880.187 285.17 864.78 256.359 850.231 238.673Z" fill="#EFC8E2"/>
</g>
<path d="M858.534 226.26C848.541 215.508 836.918 206.893 823.935 200.585C818.973 198.176 813.908 196.277 808.708 194.717C810.918 191.698 812.889 188.578 814.554 185.186C819.856 174.637 822.643 162.359 822.677 149.877C822.677 138.447 815.574 127.491 805.208 122.912C797.255 119.419 788.996 117.214 780.635 116.468C773.804 115.857 767.074 116.163 760.583 117.451C751.916 119.147 743.691 122.471 736.282 127.389C737.132 126.813 737.981 126.27 738.865 125.761C739.137 125.592 739.409 125.422 739.681 125.253L711.097 141.906C710.825 142.076 710.554 142.246 710.282 142.415C709.398 142.924 708.548 143.467 707.699 144.043C697.706 150.623 689.617 159.883 684.112 170.838C682.344 174.366 680.985 178.131 679.829 181.964C673.61 181.997 667.526 182.506 661.646 183.659C650.634 185.796 640.472 189.934 631.431 195.802C632.485 195.124 633.539 194.344 634.626 193.699L605.975 210.353C601.013 213.236 596.391 216.628 592.142 220.494C581.64 230.093 573.653 242.372 568.317 257.16C562.743 272.457 560.228 290.501 560.738 310.581C561.418 338.699 568.215 366.274 581.029 392.459C591.735 414.438 606.417 434.924 624.532 453.511C639.554 468.842 656.582 482.342 673.712 492.483C685.437 499.47 702.533 507.984 717.623 509.408C723.367 509.917 729.858 509.442 738.015 507.848C744.881 506.389 752.222 504.117 759.767 501.03C765.613 498.622 772.988 495.23 781.145 490.482L809.796 473.828C808.606 474.54 807.451 475.151 806.261 475.795C815.404 470.776 825.702 464.06 836.102 455.139C853.809 440.012 867.778 422.069 877.668 401.854C889.496 377.603 895.104 350.638 894.424 321.706C893.302 273.44 874.304 243.186 858.534 226.26Z" fill="url(#paint2_linear_934_5395)"/>
<path d="M698.864 349.516C699.849 391.879 713.512 431.224 736.623 464.566C699.136 452.661 616.275 390.523 614.066 296.129C612.706 239.452 639.216 215.2 668.581 209.502C698.15 203.77 730.54 216.862 740.124 234.635L739.172 233.007C712.153 259.429 697.878 307.559 698.864 349.516Z" fill="#ED9A00" stroke="#EE9A02" stroke-width="0.687337" stroke-miterlimit="10"/>
<path d="M768.466 217.202C802.045 210.69 850.443 231.312 865.261 287.039C867.844 296.74 869.408 307.526 869.68 319.431C870.699 361.422 856.085 393.542 836.27 416.911C835.727 417.556 835.489 417.861 835.217 418.132C810.678 446.454 778.56 461.581 758.066 465.55C756.537 465.855 755.075 466.093 753.716 466.262C753.478 466.296 753.24 466.364 752.968 466.398C750.487 466.805 748.006 466.805 745.763 466.601C740.121 465.957 736.79 464.702 736.62 464.634C713.509 431.225 699.846 391.914 698.86 349.55C697.875 307.594 712.149 259.464 739.135 233.076L740.087 234.704C746.068 225.512 756.299 219.576 768.466 217.202Z" fill="#F3B500" stroke="#F4B603" stroke-width="0.687337" stroke-miterlimit="10"/>
<path d="M858.536 226.258C874.306 243.183 893.271 273.438 894.392 321.669C895.106 350.635 889.464 377.6 877.636 401.818C867.746 422.033 853.777 439.975 836.07 455.103C817.955 470.603 800.146 479.524 788.386 484.34C780.875 487.427 773.5 489.665 766.634 491.158C758.444 492.752 751.986 493.227 746.242 492.718C731.152 491.293 714.056 482.78 702.331 475.793C685.201 465.651 668.174 452.118 653.151 436.821C635.002 418.268 620.354 397.747 609.648 375.769C596.835 349.584 590.037 322.008 589.358 293.89C588.882 273.777 591.397 255.767 596.937 240.469C602.273 225.681 610.26 213.403 620.762 203.804C632.079 193.493 646.082 186.642 661.614 183.623C670.621 181.893 680.137 181.418 689.959 182.334C695.024 182.809 699.986 183.759 704.914 184.912C705.492 173.99 708.109 163.476 712.731 154.148C718.237 143.193 726.36 133.899 736.318 127.353C743.727 122.435 751.952 119.077 760.619 117.415C767.11 116.16 773.84 115.821 780.671 116.431C789.032 117.177 797.291 119.382 805.244 122.876C815.61 127.455 822.679 138.41 822.713 149.84C822.679 162.322 819.892 174.567 814.59 185.149C812.925 188.541 810.954 191.661 808.745 194.68C813.945 196.274 819.009 198.174 823.971 200.548C836.92 206.891 848.577 215.506 858.536 226.258ZM869.683 319.465C869.412 307.559 867.848 296.773 865.265 287.073C850.447 231.346 802.049 210.723 768.47 217.236C756.268 219.61 746.038 225.546 740.09 234.669C730.506 216.896 698.116 203.804 668.548 209.536C639.217 215.234 612.673 239.486 614.032 296.163C616.241 390.557 699.136 452.695 736.59 464.6C736.59 464.634 740.09 465.957 744.815 466.499C748.009 466.805 750.491 466.805 752.972 466.397C754.569 466.228 756.268 465.957 758.036 465.617C778.496 461.649 810.648 446.488 835.22 418.166C835.458 417.895 835.696 417.623 835.934 417.318C856.089 393.542 870.703 361.421 869.683 319.465ZM751.034 150.078C736.862 159.405 729.351 175.449 729.385 192.34C739.105 196.613 749.675 198.004 759.701 196.037C765.513 194.918 771.155 192.679 776.355 189.253C790.459 179.858 797.937 163.815 797.937 146.924C788.284 142.65 777.748 141.259 767.722 143.226C761.876 144.38 756.234 146.618 751.034 150.078Z" fill="white"/>
<path d="M698.864 349.516C699.849 391.879 713.512 431.224 736.623 464.566C699.136 452.66 616.275 390.523 614.066 296.129C612.706 239.452 639.216 215.2 668.581 209.502C698.15 203.77 730.54 216.862 740.124 234.635L739.172 233.007C712.153 259.429 697.878 307.559 698.864 349.516Z" fill="#F49D00"/>
<path d="M768.466 217.202C802.045 210.69 850.443 231.312 865.261 287.039C867.844 296.74 869.408 307.526 869.68 319.431C870.699 361.422 856.085 393.542 836.27 416.911C835.727 417.556 835.489 417.861 835.217 418.132C810.678 446.454 778.56 461.581 758.066 465.55C756.537 465.855 755.075 466.093 753.716 466.262C753.478 466.296 753.24 466.364 752.968 466.398C750.487 466.805 748.006 466.805 745.763 466.601C740.121 465.957 736.79 464.702 736.62 464.634C713.509 431.225 699.846 391.914 698.86 349.55C697.875 307.594 712.149 259.464 739.135 233.076L740.087 234.704C746.068 225.512 756.299 219.576 768.466 217.202ZM800.176 292.263C800.04 287.311 796.166 282.935 791.407 282.46C790.66 282.393 789.946 282.426 789.232 282.562C785.63 283.274 782.979 286.564 783.08 290.736C783.216 295.756 787.091 300.132 791.849 300.539C792.597 300.606 793.345 300.573 794.058 300.437C797.661 299.725 800.278 296.469 800.176 292.263ZM826.618 294.705C826.482 289.685 822.54 285.343 817.849 284.902C817.102 284.835 816.354 284.869 815.64 285.004C812.038 285.716 809.421 288.973 809.522 293.178C809.658 298.13 813.533 302.506 818.291 302.981C819.039 303.049 819.753 303.015 820.466 302.879C824.069 302.167 826.72 298.877 826.618 294.705ZM795.86 272.081C795.996 277.101 799.87 281.477 804.628 281.884C805.376 281.952 806.124 281.918 806.837 281.782C810.44 281.07 812.989 277.847 812.887 273.709C812.819 268.69 808.877 264.314 804.187 263.907C803.405 263.839 802.657 263.873 801.977 264.009C798.341 264.687 795.758 267.943 795.86 272.081Z" fill="#FABA00"/>
<path d="M767.722 143.226C777.748 141.292 788.284 142.649 797.937 146.923C797.937 163.814 790.46 179.857 776.355 189.252C771.155 192.678 765.513 194.917 759.701 196.036C749.641 197.969 739.071 196.613 729.385 192.339C729.385 175.448 736.862 159.405 751.035 150.077C756.235 146.617 761.876 144.379 767.722 143.226Z" fill="#21C064"/>
<path d="M815.644 285.039C816.358 284.903 817.071 284.869 817.853 284.937C822.543 285.378 826.486 289.719 826.622 294.739C826.724 298.911 824.107 302.201 820.47 302.913C819.79 303.049 819.043 303.083 818.295 303.015C813.537 302.54 809.662 298.165 809.526 293.213C809.424 288.973 812.041 285.717 815.644 285.039Z" fill="#F49D00"/>
<path d="M789.26 282.562C789.94 282.426 790.687 282.393 791.435 282.46C796.193 282.935 800.068 287.311 800.204 292.263C800.306 296.469 797.689 299.725 794.086 300.437C793.372 300.573 792.659 300.607 791.877 300.539C787.153 300.132 783.244 295.756 783.108 290.736C783.006 286.598 785.623 283.274 789.26 282.562Z" fill="#F49D00"/>
<path d="M801.98 263.974C802.694 263.838 803.441 263.804 804.189 263.872C808.879 264.313 812.822 268.655 812.89 273.674C812.992 277.812 810.409 281.069 806.84 281.747C806.126 281.883 805.413 281.917 804.631 281.849C799.907 281.442 795.998 277.066 795.862 272.046C795.76 267.942 798.343 264.686 801.98 263.974Z" fill="#F49D00"/>
<rect width="1440" height="679" fill="url(#paint3_linear_934_5395)"/>
<path d="M368 679C165 679 61.3333 601.167 -0.5 559.5V679L1444.5 688C1444.5 688 1283.8 559.5 1039 559.5C733 559.5 594.027 679 368 679Z" fill="#FEF0E1"/>
<defs>
<filter id="filter0_f_934_5395" x="503.579" y="97.8077" width="404.142" height="403.493" filterUnits="userSpaceOnUse" color-interpolation-filters="sRGB">
<feFlood flood-opacity="0" result="BackgroundImageFix"/>
<feBlend mode="normal" in="SourceGraphic" in2="BackgroundImageFix" result="shape"/>
<feGaussianBlur stdDeviation="21.2103" result="effect1_foregroundBlur_934_5395"/>
</filter>
<filter id="filter1_f_934_5395" x="519.95" y="95.4265" width="388.792" height="448.453" filterUnits="userSpaceOnUse" color-interpolation-filters="sRGB">
<feFlood flood-opacity="0" result="BackgroundImageFix"/>
<feBlend mode="normal" in="SourceGraphic" in2="BackgroundImageFix" result="shape"/>
<feGaussianBlur stdDeviation="13.7467" result="effect1_foregroundBlur_934_5395"/>
</filter>
<linearGradient id="paint0_linear_934_5395" x1="1429.5" y1="5.99783" x2="1127.59" y2="1016.05" gradientUnits="userSpaceOnUse">
<stop stop-color="#FFE045"/>
<stop offset="0.5" stop-color="#FF88F3"/>
<stop offset="1" stop-color="#C4A8FF"/>
</linearGradient>
<linearGradient id="paint1_linear_934_5395" x1="720" y1="0" x2="720" y2="679" gradientUnits="userSpaceOnUse">
<stop stop-color="#EE6F7D" stop-opacity="0"/>
<stop offset="0.5" stop-color="#EE6F7D" stop-opacity="0.795"/>
<stop offset="1" stop-color="#EE6F7D"/>
</linearGradient>
<linearGradient id="paint2_linear_934_5395" x1="727.576" y1="116.165" x2="727.576" y2="509.603" gradientUnits="userSpaceOnUse">
<stop stop-color="#FBFBFB"/>
<stop offset="1" stop-color="#F5D6E9"/>
</linearGradient>
<linearGradient id="paint3_linear_934_5395" x1="720" y1="0" x2="720" y2="679" gradientUnits="userSpaceOnUse">
<stop stop-color="#EE6F7D" stop-opacity="0"/>
<stop offset="0.5" stop-color="#EE6F7D" stop-opacity="0.795"/>
<stop offset="1" stop-color="#EE6F7D"/>
</linearGradient>
</defs>
</svg>
