<svg width="56" height="56" viewBox="0 0 56 56" fill="none" xmlns="http://www.w3.org/2000/svg">
<g clip-path="url(#clip0_127_1785)">
<path d="M46.9888 0H9.01118C4.03444 0 0 4.03444 0 9.01118V46.9888C0 51.9656 4.03444 56 9.01118 56H46.9888C51.9656 56 56 51.9656 56 46.9888V9.01118C56 4.03444 51.9656 0 46.9888 0Z" fill="#B782B7"/>
<path d="M14.2492 33.8475C14.2121 34.1627 14.1796 34.4779 14.1796 34.7885C14.2167 36.4665 14.3187 38.1074 14.3558 39.7854C14.3928 41.635 12.9605 42.8216 11.1434 42.511C9.98924 42.3349 9.08071 41.4264 8.94164 40.1377C8.83503 39.0577 8.7655 37.9035 8.7655 36.7864C8.69597 33.0827 8.62644 29.3466 9.15024 25.6105C9.74356 21.281 12.293 15.306 16.5529 13.8737C19.8719 12.7195 23.9232 13.9108 25.7403 17.3688C26.9964 19.7421 27.4878 22.2591 27.6269 24.8781C27.8725 29.6293 27.6269 34.3806 27.4183 39.0948C27.3487 40.5596 26.6163 41.5376 25.3926 41.8899C23.5755 42.4137 21.9022 41.1575 21.9346 39.2709C21.9717 37.7366 22.0737 36.2347 22.1432 34.6958V33.5091C19.4547 33.231 16.8681 33.2635 14.2492 33.8568V33.8475ZM22.2823 27.7705C22.1432 25.5363 22.2127 23.404 21.5499 21.4154C20.0851 17.0165 16.2424 19.4269 14.8425 24.7668C14.5273 25.921 14.3882 27.1401 14.3882 28.401C17.0072 28.2943 19.5567 28.2248 22.2127 28.1553C22.2498 28.0487 22.2823 27.9096 22.2823 27.7705Z" fill="#202346"/>
<path d="M42.0846 34.5428C42.8865 34.0886 43.6559 33.8104 44.5645 34.0561C46.5206 34.617 47.1835 36.7446 45.7882 38.2465C44.7731 39.3312 43.4474 39.9245 41.9826 40.2026C34.6123 41.5979 30.0372 36.3275 30.0048 30.1809C30.0048 24.1735 33.7084 19.4918 39.5397 19.107C49.6356 18.5137 49.8442 32.7628 40.2721 32.8695C39.0159 32.9065 37.7227 32.8695 36.2532 32.8695C36.6704 35.1732 39.8874 35.8037 42.0846 34.5475V34.5428ZM39.1504 27.7659C42.715 27.7659 43.0951 24.2013 39.7437 24.2013C37.9637 24.1642 36.3552 25.8422 35.901 27.6222C37.0181 27.6917 38.0657 27.7613 39.1504 27.7613V27.7659Z" fill="#202346"/>
</g>
<defs>
<clipPath id="clip0_127_1785">
<rect width="56" height="56" fill="white"/>
</clipPath>
</defs>
</svg>
