<svg width="56" height="56" viewBox="0 0 56 56" fill="none" xmlns="http://www.w3.org/2000/svg">
<g clip-path="url(#clip0_127_1795)">
<path d="M46.9888 0H9.01118C4.03444 0 0 4.03444 0 9.01118V46.9888C0 51.9656 4.03444 56 9.01118 56H46.9888C51.9656 56 56 51.9656 56 46.9888V9.01118C56 4.03444 51.9656 0 46.9888 0Z" fill="#80C6B6"/>
<path d="M33.5601 22.4399C30.4869 22.4399 27.9977 24.9291 27.9977 28.0023C27.9977 31.0756 30.4869 33.5648 33.5601 33.5648C36.6334 33.5648 39.1226 31.0756 39.1226 28.0023C39.1226 24.9291 36.6334 22.4399 33.5601 22.4399Z" fill="#202346"/>
<path d="M33.5602 22.4399C36.6334 22.4399 39.1226 19.9507 39.1226 16.8774C39.1226 13.8042 36.6334 11.315 33.5602 11.315H22.4399C19.3666 11.315 16.8774 13.8042 16.8774 16.8774C16.8774 19.9507 19.3666 22.4399 22.4399 22.4399C19.3666 22.4399 16.8774 24.9291 16.8774 28.0023C16.8774 31.0756 19.3666 33.5648 22.4399 33.5648C19.3666 33.5648 16.8774 36.054 16.8774 39.1272C16.8774 42.2005 19.3666 44.6897 22.4399 44.6897C25.5132 44.6897 28.0023 42.2005 28.0023 39.1272V22.4445H33.5648L33.5602 22.4399Z" fill="#202346"/>
</g>
<defs>
<clipPath id="clip0_127_1795">
<rect width="56" height="56" fill="white"/>
</clipPath>
</defs>
</svg>
