<svg width="56" height="56" viewBox="0 0 56 56" fill="none" xmlns="http://www.w3.org/2000/svg">
<g clip-path="url(#clip0_127_1812)">
<path d="M46.9888 0H9.01118C4.03444 0 0 4.03444 0 9.01118V46.9888C0 51.9656 4.03444 56 9.01118 56H46.9888C51.9656 56 56 51.9656 56 46.9888V9.01118C56 4.03444 51.9656 0 46.9888 0Z" fill="#E5395E"/>
<path d="M18.9123 15.6212C19.8904 16.1079 20.4142 16.9469 20.5532 18.1336C20.5903 18.4813 20.5903 18.8335 20.5903 19.1812C20.4142 24.0344 20.2427 28.8923 20.099 33.7085C20.0294 35.8407 19.9599 37.9684 19.9599 40.1007C19.9228 41.2549 19.5056 42.0892 18.5971 42.6501C17.6561 43.1739 16.7105 43.1739 15.802 42.5435C14.9305 41.9502 14.4763 41.0416 14.5087 39.9245C14.5458 37.5512 14.5782 35.2103 14.6478 32.8324C14.7868 27.8725 15.065 23.0888 15.1345 18.3051C15.1345 16.3165 17.0535 14.7405 18.9077 15.6166L18.9123 15.6212Z" fill="#202346"/>
<path d="M36.0633 16.4556C36.1004 16.1775 36.0633 15.8623 36.1004 15.5841C36.1699 14.0452 37.3241 12.9651 38.8584 12.9651C40.3232 13.0022 41.4449 14.0498 41.4774 15.5517C41.5145 16.8079 41.4774 18.0316 41.4403 19.2554C41.3013 25.68 41.1946 32.0722 41.0556 38.5014C41.1251 41.2595 40.1146 41.5747 37.8757 41.7833C35.813 42.0614 33.7549 42.3442 31.6597 42.029C22.579 40.7032 20.0619 30.1902 25.5827 24.2152C28.4798 21.0724 33.0225 21.179 35.9196 22.6067C35.9891 20.6182 36.0262 18.3468 36.0586 16.4602L36.0633 16.4556ZM35.7851 28.6466C35.7851 28.438 35.6785 28.2294 35.4699 28.0162C33.3748 26.0276 30.371 26.1992 28.9758 28.5771C26.5654 32.6284 28.9758 37.134 33.2032 36.9579C35.266 36.8883 35.6461 36.0493 35.6461 34.3713C35.7156 32.4847 35.7527 30.5286 35.7851 28.642V28.6466Z" fill="#202346"/>
</g>
<defs>
<clipPath id="clip0_127_1812">
<rect width="56" height="56" fill="white"/>
</clipPath>
</defs>
</svg>
