<svg width="1421" height="800" viewBox="0 0 1421 800" fill="none" xmlns="http://www.w3.org/2000/svg">
<path d="M795.97 815.13C795.97 815.13 921.51 740.93 904.5 606C887.49 471.07 825.19 408.74 688 392.87C551.15 377.04 431.12 473.27 256.5 471C143.37 469.53 52.81 424.2 -8.5 379L-16.67 15H640.63C640.63 15 719.85 162.14 818.5 207.5C917.15 252.86 1421 161.61 1421 481.5C1421 623.23 1296.2 669.3 1231 734.5C1165.8 799.7 1197.35 815.13 1197.35 815.13H795.96H795.97Z" fill="#7EC7B7"/>
<path d="M798.97 800.13C798.97 800.13 920.29 731.08 903.28 596.15C886.27 461.22 810.3 409.06 673.11 393.19C536.26 377.36 430.66 461.04 256.04 458.77C142.91 457.3 47.31 423.07 -14 377.87L-13.67 0H643.63C643.63 0 724.13 153.94 822.78 199.3C921.43 244.66 1408.98 200.43 1408.98 466.89C1408.98 608.62 1312.04 653.41 1246.84 718.61C1181.64 783.81 1200.35 800.13 1200.35 800.13H798.96H798.97Z" fill="#F8C22A"/>
<path d="M1358.42 302.908C1354.02 296.218 1336.16 272.818 1291.69 254.478C1289.46 253.558 1289.42 250.418 1291.64 249.468C1301.99 244.998 1325.01 238.158 1346.15 253.378C1370.1 270.618 1363.16 295.408 1360.43 302.698C1360.1 303.568 1358.93 303.698 1358.42 302.928V302.908Z" fill="#F8C22A"/>
<path d="M65.0097 464.41C74.3997 470.32 100.14 483.26 145.57 483.31C146.77 483.31 147.41 484.72 146.61 485.61C140.45 492.42 120.28 511.42 92.2897 504.37C66.7297 497.93 61.8597 476.81 61.0097 466.83C60.8297 464.68 63.1897 463.26 65.0097 464.41Z" fill="#F8C22A"/>
<path d="M435.38 129.26C419.98 132.09 415.99 136.09 413.15 151.49C412.9 152.87 410.91 152.87 410.66 151.49C407.83 136.09 403.83 132.1 388.43 129.26C387.05 129.01 387.05 127.02 388.43 126.77C403.83 123.94 407.82 119.94 410.66 104.54C410.91 103.16 412.9 103.16 413.15 104.54C415.98 119.94 419.98 123.93 435.38 126.77C436.76 127.02 436.76 129.01 435.38 129.26Z" fill="#FEF0E1"/>
<path d="M449.55 154.54C441.85 155.96 439.85 157.95 438.44 165.65C438.31 166.34 437.32 166.34 437.19 165.65C435.77 157.95 433.78 155.95 426.08 154.54C425.39 154.41 425.39 153.42 426.08 153.29C433.78 151.87 435.78 149.88 437.19 142.18C437.32 141.49 438.31 141.49 438.44 142.18C439.86 149.88 441.85 151.88 449.55 153.29C450.24 153.42 450.24 154.41 449.55 154.54Z" fill="#FEF0E1"/>
<path d="M1274.99 483.755C1259.59 486.585 1255.6 490.585 1252.76 505.985C1252.51 507.365 1250.52 507.365 1250.27 505.985C1247.44 490.585 1243.44 486.595 1228.04 483.755C1226.66 483.505 1226.66 481.515 1228.04 481.265C1243.44 478.435 1247.43 474.435 1250.27 459.035C1250.52 457.655 1252.51 457.655 1252.76 459.035C1255.59 474.435 1259.59 478.425 1274.99 481.265C1276.37 481.515 1276.37 483.505 1274.99 483.755Z" fill="#FEF0E1"/>
<path d="M1289.16 509.035C1281.46 510.455 1279.46 512.445 1278.05 520.145C1277.92 520.835 1276.93 520.835 1276.8 520.145C1275.38 512.445 1273.39 510.445 1265.69 509.035C1265 508.905 1265 507.915 1265.69 507.785C1273.39 506.365 1275.39 504.375 1276.8 496.675C1276.93 495.985 1277.92 495.985 1278.05 496.675C1279.47 504.375 1281.46 506.375 1289.16 507.785C1289.85 507.915 1289.85 508.905 1289.16 509.035Z" fill="#FEF0E1"/>
<path d="M232.79 393.06C225.09 394.48 223.09 396.47 221.68 404.17C221.55 404.86 220.56 404.86 220.43 404.17C219.01 396.47 217.02 394.47 209.32 393.06C208.63 392.93 208.63 391.94 209.32 391.81C217.02 390.39 219.02 388.4 220.43 380.7C220.56 380.01 221.55 380.01 221.68 380.7C223.1 388.4 225.09 390.4 232.79 391.81C233.48 391.94 233.48 392.93 232.79 393.06Z" fill="#FEF0E1"/>
</svg>
