<svg width="186" height="187" viewBox="0 0 186 187" fill="none" xmlns="http://www.w3.org/2000/svg">
<path d="M145.181 70.9086L145.361 70.9686L112.071 29.1186C110.671 27.3486 107.881 27.7486 107.021 29.8286L98.8708 49.5686C92.2008 49.4986 85.3209 50.3686 78.4509 52.3086C71.5709 54.2486 65.2508 57.1086 59.6108 60.6486L42.3408 48.0786C40.5208 46.7486 37.9408 47.8686 37.6608 50.1086L31.1508 103.189L31.2708 103.039C30.6508 108.809 31.0808 114.689 32.7108 120.469C40.6808 148.739 74.0909 164.049 107.331 154.679C140.571 145.299 161.051 114.789 153.071 86.5186C151.441 80.7386 148.731 75.5086 145.191 70.9086H145.181Z" fill="#FEF0E1"/>
<path d="M101.341 118.038C96.7808 118.038 94.1907 114.518 93.8507 113.328C93.5907 112.408 94.1308 111.448 95.0508 111.188C95.9108 110.948 96.8007 111.398 97.1307 112.208C97.3107 112.518 99.1507 115.428 103.101 114.308C106.941 113.228 107.071 109.118 107.071 109.078C107.091 108.118 107.901 107.378 108.841 107.378C109.801 107.398 110.561 108.188 110.541 109.148C110.501 111.468 109.081 116.228 104.051 117.648C103.091 117.918 102.181 118.038 101.351 118.038H101.341ZM97.1407 112.238C97.1407 112.238 97.1708 112.338 97.1908 112.388C97.1908 112.358 97.1707 112.308 97.1407 112.238Z" fill="#202246"/>
<path d="M88.0609 121.779C83.5009 121.779 80.9109 118.259 80.5709 117.069C80.3109 116.149 80.8509 115.189 81.7709 114.929C82.6309 114.689 83.5208 115.139 83.8508 115.949C84.0308 116.259 85.8609 119.169 89.8209 118.049C93.6609 116.969 93.7909 112.859 93.7909 112.819C93.8109 111.859 94.6409 111.099 95.5609 111.119C96.5209 111.139 97.2809 111.929 97.2609 112.889C97.2209 115.209 95.8009 119.969 90.7709 121.389C89.8109 121.659 88.9109 121.779 88.0709 121.779H88.0609ZM83.8608 115.979C83.8608 115.979 83.8909 116.079 83.9109 116.129C83.9109 116.099 83.8908 116.049 83.8608 115.979Z" fill="#202246"/>
<path d="M96.6507 112.299L98.5107 104.989C98.7807 103.919 97.7907 102.959 96.7307 103.259L89.4706 105.309C88.4106 105.609 88.0707 106.939 88.8607 107.709L94.2607 112.969C95.0507 113.739 96.3707 113.359 96.6507 112.299Z" fill="#202246"/>
<path d="M103.881 93.4285C103.121 93.4285 102.431 92.9285 102.211 92.1685C101.951 91.2485 102.491 90.2885 103.411 90.0285L127.191 83.3185C128.111 83.0585 129.071 83.5985 129.331 84.5185C129.591 85.4385 129.051 86.3985 128.131 86.6585L104.351 93.3685C104.191 93.4085 104.031 93.4385 103.881 93.4385V93.4285Z" fill="#202246"/>
<path d="M53.5408 107.628C52.7808 107.628 52.0908 107.128 51.8708 106.368C51.6108 105.448 52.1508 104.488 53.0708 104.228L76.8508 97.5184C77.7708 97.2584 78.7308 97.7984 78.9908 98.7184C79.2508 99.6384 78.7108 100.598 77.7908 100.858L54.0108 107.568C53.8508 107.608 53.6908 107.638 53.5408 107.638V107.628Z" fill="#202246"/>
</svg>
