<svg width="330" height="586" viewBox="0 0 330 586" fill="none" xmlns="http://www.w3.org/2000/svg">
<circle cx="165" cy="279" r="165" fill="#F8C22A"/>
<path d="M236.41 282.12C234.61 277.11 243.87 278.06 243.87 267.14C243.87 256.22 227.71 250.42 227.71 245.74C227.71 241.06 244.58 237.52 239.33 210.17C238.24 204.46 242.45 177.05 242.45 127.92C242.45 78.79 196.82 59.79 164.12 59.79C131.42 59.79 85.8 78.78 85.8 127.91C85.8 177.04 90.01 204.45 88.92 210.16C83.68 237.51 100.54 241.06 100.54 245.73C100.54 250.4 84.38 256.22 84.38 267.13C84.38 278.04 93.64 277.1 91.84 282.11C90.04 287.12 84.85 291.09 80.12 284.09C82.29 296.04 93.92 297.51 98.83 289.38C132.75 307.99 164.12 308.75 164.12 308.75C164.12 308.75 195.49 307.99 229.41 289.38C234.32 297.51 245.95 296.03 248.12 284.09C243.4 291.08 238.2 287.11 236.4 282.11L236.41 282.12Z" fill="#29191C" stroke="#202246" stroke-width="3" stroke-linecap="round" stroke-linejoin="round"/>
<path d="M176.4 218.6L165.43 219.58L154.46 218.6C154.46 218.6 155.86 233.9 151.47 235.47C156.86 244.4 165.43 243.94 165.43 243.94C165.43 243.94 174 244.4 179.39 235.47C175 233.89 176.4 218.6 176.4 218.6Z" fill="#FAD6CE" stroke="#202246" stroke-width="2.89" stroke-miterlimit="10"/>
<path d="M164.19 59.79C124.11 59.79 91.95 79.73 94.67 124.14C97.39 168.55 106.14 197.57 111.69 201.25C117.2 204.9 143.67 219.66 165.51 219.66C187.35 219.66 213.82 204.9 219.33 201.25C224.88 197.57 233.63 168.55 236.35 124.14C239.07 79.73 204.25 59.79 164.18 59.79H164.19Z" fill="#FAD6CE" stroke="#202246" stroke-width="3" stroke-miterlimit="10"/>
<path d="M207.99 202.38C215.507 202.38 221.6 198.445 221.6 193.59C221.6 188.735 215.507 184.8 207.99 184.8C200.473 184.8 194.38 188.735 194.38 193.59C194.38 198.445 200.473 202.38 207.99 202.38Z" fill="#F5B0B3"/>
<path d="M118.79 202.38C126.307 202.38 132.4 198.445 132.4 193.59C132.4 188.735 126.307 184.8 118.79 184.8C111.273 184.8 105.18 188.735 105.18 193.59C105.18 198.445 111.273 202.38 118.79 202.38Z" fill="#F5B0B3"/>
<path d="M165.36 184.8C170.629 184.8 174.9 183.018 174.9 180.82C174.9 178.622 170.629 176.84 165.36 176.84C160.091 176.84 155.82 178.622 155.82 180.82C155.82 183.018 160.091 184.8 165.36 184.8Z" fill="#F5B0B3"/>
<path d="M229.7 162.22C237.26 153.04 256.53 159.28 255.02 177.35C253.16 199.64 231.4 195.75 229.7 194.81C228 193.87 229.7 162.22 229.7 162.22Z" fill="#FAD6CE" stroke="#202246" stroke-width="3" stroke-miterlimit="10"/>
<path d="M236.51 168.54C236.51 168.54 243.6 164.57 248.42 171.75L236.51 168.54Z" fill="#FAD6CE"/>
<path d="M236.51 168.54C236.51 168.54 243.6 164.57 248.42 171.75" stroke="#202246" stroke-width="2" stroke-miterlimit="10" stroke-linecap="round"/>
<path d="M237.12 189.71H236.46C235.234 189.71 234.24 190.704 234.24 191.93V200.62C234.24 201.846 235.234 202.84 236.46 202.84H237.12C238.346 202.84 239.34 201.846 239.34 200.62V191.93C239.34 190.704 238.346 189.71 237.12 189.71Z" fill="#F8C22A" stroke="#202246" stroke-width="3" stroke-miterlimit="10"/>
<path d="M182.07 181.25C182.07 181.25 175.64 160.25 189.06 151.4C202.48 142.55 223.45 153.75 223.45 153.75C223.45 153.75 226.14 175.44 209.7 182.81C193.26 190.18 182.06 181.25 182.06 181.25H182.07Z" fill="#F2E7E3" stroke="#202246" stroke-width="3" stroke-miterlimit="10" stroke-linejoin="round"/>
<path d="M198.34 178.49C206.696 178.49 213.47 171.716 213.47 163.36C213.47 155.004 206.696 148.23 198.34 148.23C189.984 148.23 183.21 155.004 183.21 163.36C183.21 171.716 189.984 178.49 198.34 178.49Z" fill="#29191C" stroke="#202246" stroke-width="3" stroke-miterlimit="10" stroke-linejoin="round"/>
<path d="M202.08 160.42C204.157 160.42 205.84 158.737 205.84 156.66C205.84 154.583 204.157 152.9 202.08 152.9C200.003 152.9 198.32 154.583 198.32 156.66C198.32 158.737 200.003 160.42 202.08 160.42Z" fill="#F2E7E3" stroke="#202246" stroke-width="2" stroke-miterlimit="10" stroke-linejoin="round"/>
<path d="M174 194.29C174 194.29 168.05 200.1 165.43 200.1C162.81 200.1 156.86 194.29 156.86 194.29" stroke="#202246" stroke-width="3" stroke-linecap="round" stroke-linejoin="round"/>
<path d="M175.7 133.2C175.7 133.2 182.08 130.93 187.61 133.2" stroke="#202246" stroke-width="3" stroke-linecap="round" stroke-linejoin="round"/>
<path d="M97.0801 162.22C89.5201 153.04 70.2501 159.28 71.7601 177.35C73.6201 199.64 95.3801 195.75 97.0801 194.81C98.7801 193.87 97.0801 162.22 97.0801 162.22Z" fill="#FAD6CE" stroke="#202246" stroke-width="3" stroke-miterlimit="10"/>
<path d="M90.2701 168.54C90.2701 168.54 83.1801 164.57 78.3601 171.75L90.2701 168.54Z" fill="#FAD6CE"/>
<path d="M90.2701 168.54C90.2701 168.54 83.1801 164.57 78.3601 171.75" stroke="#202246" stroke-width="2" stroke-miterlimit="10" stroke-linecap="round"/>
<path d="M89.66 202.84H90.32C91.5461 202.84 92.54 201.846 92.54 200.62V191.93C92.54 190.704 91.5461 189.71 90.32 189.71H89.66C88.434 189.71 87.44 190.704 87.44 191.93V200.62C87.44 201.846 88.434 202.84 89.66 202.84Z" fill="#F8C22A" stroke="#202246" stroke-width="3" stroke-miterlimit="10"/>
<path d="M144.71 181.25C144.71 181.25 151.14 160.25 137.72 151.4C124.3 142.55 103.33 153.75 103.33 153.75C103.33 153.75 100.64 175.44 117.08 182.81C133.52 190.18 144.72 181.25 144.72 181.25H144.71Z" fill="#F2E7E3" stroke="#202246" stroke-width="3" stroke-miterlimit="10" stroke-linejoin="round"/>
<path d="M128.44 178.49C136.796 178.49 143.57 171.716 143.57 163.36C143.57 155.004 136.796 148.23 128.44 148.23C120.084 148.23 113.31 155.004 113.31 163.36C113.31 171.716 120.084 178.49 128.44 178.49Z" fill="#29191C" stroke="#202246" stroke-width="3" stroke-miterlimit="10" stroke-linejoin="round"/>
<path d="M132.39 160.42C134.467 160.42 136.15 158.737 136.15 156.66C136.15 154.583 134.467 152.9 132.39 152.9C130.313 152.9 128.63 154.583 128.63 156.66C128.63 158.737 130.313 160.42 132.39 160.42Z" fill="#F2E7E3" stroke="#202246" stroke-width="2" stroke-miterlimit="10" stroke-linejoin="round"/>
<path d="M151.08 133.2C151.08 133.2 144.7 130.93 139.17 133.2" stroke="#202246" stroke-width="3" stroke-linecap="round" stroke-linejoin="round"/>
<path d="M160.82 59.79C184.21 47.6 166.21 9.04999 133.04 35.7C161.95 37.4 160.82 59.79 160.82 59.79Z" fill="#29191C" stroke="#202246" stroke-width="3" stroke-linecap="round" stroke-linejoin="round"/>
<path d="M163.8 90.4C163.8 90.4 164.51 129.05 195.88 141.52C206.46 145.33 221.6 151.29 221.6 151.29C221.6 151.29 220.44 190.28 209.86 216.17C215.34 219.19 222.38 215.98 224.62 213.9C226.86 211.82 223.13 208.61 224.62 204.45C226.11 200.29 230.27 199.55 230.65 193.59C231.03 187.63 227.06 185.73 228.19 181.58C229.47 176.91 236.32 176.86 236.5 168.54C236.68 160.22 231.96 156.82 232.53 151.34C233.1 145.86 240.13 140.29 242.17 133.2C249.35 108.26 218.93 49.86 164.12 59.78C158.07 74.24 163.79 90.39 163.79 90.39L163.8 90.4Z" fill="#29191C" stroke="#202246" stroke-width="3" stroke-linecap="round" stroke-linejoin="round"/>
<path d="M162.98 90.4C162.98 90.4 162.27 129.05 130.9 141.52C120.32 145.33 105.18 151.29 105.18 151.29C105.18 151.29 106.34 190.28 116.92 216.17C111.44 219.19 104.4 215.98 102.16 213.9C99.92 211.82 103.65 208.61 102.16 204.45C100.67 200.29 96.51 199.55 96.13 193.59C95.75 187.63 99.72 185.73 98.59 181.58C97.31 176.91 90.46 176.86 90.28 168.54C90.09 160.23 94.82 156.82 94.25 151.34C93.68 145.86 86.65 140.29 84.61 133.2C77.43 108.26 107.85 49.86 162.66 59.78C168.71 74.24 162.99 90.39 162.99 90.39L162.98 90.4Z" fill="#29191C" stroke="#202246" stroke-width="3" stroke-linecap="round" stroke-linejoin="round"/>
<path d="M246.27 384.18L258.37 407.81L245.8 414.25L230.96 385.27" fill="#F8C22A"/>
<path d="M246.27 384.18L258.37 407.81L245.8 414.25L230.96 385.27" stroke="#202246" stroke-width="2" stroke-linecap="round" stroke-linejoin="round"/>
<path d="M242.21 386.4L254.25 409.92L249.86 412.17L237.03 387.13" stroke="#202246" stroke-width="2" stroke-linecap="round" stroke-linejoin="round"/>
<path d="M258.36 415.14L258.37 407.81L245.8 414.25L251.75 418.53" fill="#FEF0E1"/>
<path d="M258.36 415.14L258.37 407.81L245.8 414.25L251.75 418.53" stroke="#202246" stroke-width="2" stroke-linecap="round" stroke-linejoin="round"/>
<path d="M251.77 418.51L258.37 423.31L258.34 415.14" fill="#EE6F7D"/>
<path d="M251.77 418.51L258.37 423.31L258.34 415.14" stroke="#202246" stroke-width="2" stroke-linecap="round" stroke-linejoin="round"/>
<path d="M224.6 324.45C224.6 324.45 237.07 363.57 239.53 366.02C241.99 368.47 265.89 386.43 254.65 399.85C252.1 399.85 239.48 382.94 239.48 382.94C239.48 382.94 240.61 396.55 234.66 396.4C228.71 396.25 227.29 389.74 226.16 372.87C223.75 368.57 207.31 331.06 207.31 331.06C207.31 331.06 209.15 311.03 224.6 324.45Z" fill="#FAD6CE" stroke="#202246" stroke-width="3" stroke-linejoin="round"/>
<path d="M103.44 324.45C103.44 324.45 90.97 363.57 88.51 366.02C86.05 368.47 57.25 399.85 73.39 399.85C89.53 399.85 88.56 382.94 88.56 382.94C88.56 382.94 87.43 396.55 93.38 396.4C99.33 396.26 100.75 389.74 101.88 372.87C104.29 368.57 120.73 331.06 120.73 331.06C120.73 331.06 118.89 311.03 103.44 324.45Z" fill="#FAD6CE" stroke="#202246" stroke-width="3" stroke-linejoin="round"/>
<path d="M202.29 240.73C196.79 236.19 179.39 235.47 179.39 235.47C171.25 243.22 169.17 243.94 165.43 243.94C161.69 243.94 159.62 243.22 151.47 235.47C151.47 235.47 134.07 236.2 128.57 240.73C123.07 245.27 95.5201 299.12 90.5701 307.63C90.5701 307.63 103.61 336.73 123.55 336.35L128.58 323.12C128.58 323.12 137.07 327.65 165.51 327.65C193.95 327.65 202.29 323.12 202.29 323.12L207.32 336.35C227.26 336.73 240.3 307.63 240.3 307.63C234.73 299.32 207.8 245.27 202.3 240.73H202.29Z" fill="#202246" stroke="#EE6F7D" stroke-width="3" stroke-linejoin="round"/>
<path d="M188.79 282.55L188.85 282.59L180.08 263.13C179.71 262.31 178.59 262.19 178.06 262.91L172.97 269.75C170.4 269.07 167.65 268.73 164.8 268.8C161.95 268.87 159.22 269.36 156.69 270.18L151.24 263.62C150.66 262.93 149.56 263.11 149.23 263.95L141.5 283.84L141.56 283.79C140.75 285.96 140.34 288.28 140.4 290.67C140.71 302.39 152.13 311.6 165.91 311.23C179.69 310.86 190.61 301.07 190.3 289.36C190.24 286.96 189.7 284.67 188.78 282.55H188.79Z" fill="#FEF0E1"/>
<path d="M165.46 293.9C165.46 294.06 166.07 295.96 168.27 295.9C170.47 295.84 170.97 293.76 170.97 293.76" stroke="#202246" stroke-width="1.38" stroke-miterlimit="10" stroke-linecap="round"/>
<path d="M159.95 294.05C159.95 294.21 160.56 296.11 162.76 296.05C164.96 295.99 165.46 293.91 165.46 293.91" stroke="#202246" stroke-width="1.38" stroke-miterlimit="10" stroke-linecap="round"/>
<path d="M165.95 293.8L167.39 291.15C167.6 290.76 167.31 290.29 166.87 290.31L163.86 290.39C163.42 290.4 163.16 290.88 163.39 291.26L164.96 293.83C165.19 294.2 165.74 294.19 165.95 293.8Z" fill="#202246"/>
<path d="M202.29 323.12C202.29 323.12 205.19 322.69 209.02 318.58C212.85 314.47 202.23 298.45 202.29 284.14C202.31 278.78 203.02 274.73 203.9 271.77" fill="#202246"/>
<path d="M202.29 323.12C202.29 323.12 205.19 322.69 209.02 318.58C212.85 314.47 202.23 298.45 202.29 284.14C202.31 278.78 203.02 274.73 203.9 271.77" stroke="#EE6F7D" stroke-width="3" stroke-linecap="round" stroke-linejoin="round"/>
<path d="M128.62 323.12C128.62 323.12 125.72 322.69 121.89 318.58C118.06 314.47 128.68 298.45 128.62 284.14C128.6 278.78 127.89 274.73 127.01 271.77" fill="#202246"/>
<path d="M128.62 323.12C128.62 323.12 125.72 322.69 121.89 318.58C118.06 314.47 128.68 298.45 128.62 284.14C128.6 278.78 127.89 274.73 127.01 271.77" stroke="#EE6F7D" stroke-width="3" stroke-linecap="round" stroke-linejoin="round"/>
<path d="M170.75 553.02C170.75 553.02 172.18 534.5 171.99 528.92C183.15 529.97 194.18 530.96 199.09 529.2L197.29 543.66C197.29 543.66 194.27 559.53 182.17 559.44C170.08 559.35 170.74 553.02 170.74 553.02H170.75Z" fill="#202246" stroke="#202246" stroke-width="3" stroke-miterlimit="10"/>
<path d="M173.1 550.72C173.1 550.72 172.83 529.44 174.15 528.94C175.47 528.44 182.94 526.69 187.66 529.08C192.38 531.47 184.92 551.99 184.92 551.99L173.1 550.71V550.72Z" fill="#202246" stroke="#FEF0E1" stroke-width="1.38" stroke-linecap="round" stroke-linejoin="round"/>
<path d="M197.3 543.66C196.83 545.83 186.71 554.68 186.71 554.68C185.29 551.42 182.04 549.14 178.26 549.14C173.17 549.14 169.05 553.26 169.05 558.35C169.05 563.44 173.17 564.82 178.26 564.82C179.89 564.82 181.42 564.68 182.75 564.31C192.94 562.08 196.55 553.18 197.3 551.68C198.15 549.98 197.3 543.65 197.3 543.65V543.66Z" fill="#FEF0E1" stroke="#202246" stroke-width="3" stroke-linecap="round" stroke-linejoin="round"/>
<path d="M187.47 550.11L172.09 544.18" stroke="#FEF0E1" stroke-width="1.38" stroke-linecap="round" stroke-linejoin="round"/>
<path d="M188.14 542.6L173.07 549.28" stroke="#FEF0E1" stroke-width="1.38" stroke-linecap="round" stroke-linejoin="round"/>
<path d="M187.47 542.6L172.09 536.67" stroke="#FEF0E1" stroke-width="1.38" stroke-linecap="round" stroke-linejoin="round"/>
<path d="M188.14 535.09L173.07 541.77" stroke="#FEF0E1" stroke-width="1.38" stroke-linecap="round" stroke-linejoin="round"/>
<path d="M178.89 536.36C178.89 536.36 192.73 538.41 190.02 541.39C187.31 544.37 182.51 542.1 178.89 536.36Z" stroke="#FEF0E1" stroke-width="1.38" stroke-linecap="round" stroke-linejoin="round"/>
<path d="M182.53 545.35C182.53 545.35 181.86 541.08 178.89 536.36" stroke="#FEF0E1" stroke-width="1.38" stroke-linecap="round" stroke-linejoin="round"/>
<path d="M178.89 536.36C178.89 536.36 168.5 538.41 170.53 541.39C172.56 544.37 176.17 542.1 178.89 536.36Z" stroke="#FEF0E1" stroke-width="1.2" stroke-linecap="round" stroke-linejoin="round"/>
<path d="M176.16 545.35C176.16 545.35 176.66 541.08 178.89 536.36" stroke="#FEF0E1" stroke-width="1.2" stroke-linecap="round" stroke-linejoin="round"/>
<path d="M159.83 553.02C159.83 553.02 158.4 534.5 158.59 528.92C147.43 529.97 136.4 530.96 131.49 529.2L133.29 543.66C133.29 543.66 136.31 559.53 148.41 559.44C160.5 559.35 159.84 553.02 159.84 553.02H159.83Z" fill="#202246" stroke="#202246" stroke-width="3" stroke-miterlimit="10"/>
<path d="M157.48 550.72C157.48 550.72 157.75 529.44 156.43 528.94C155.11 528.44 147.64 526.69 142.92 529.08C138.2 531.47 145.66 551.99 145.66 551.99L157.48 550.71V550.72Z" fill="#202246" stroke="#FEF0E1" stroke-width="1.38" stroke-linecap="round" stroke-linejoin="round"/>
<path d="M133.28 543.66C133.75 545.83 143.87 554.68 143.87 554.68C145.29 551.42 148.54 549.14 152.32 549.14C157.41 549.14 161.53 553.26 161.53 558.35C161.53 563.44 157.41 564.82 152.32 564.82C150.69 564.82 149.16 564.68 147.83 564.31C137.64 562.08 134.03 553.18 133.28 551.68C132.43 549.98 133.28 543.65 133.28 543.65V543.66Z" fill="#FEF0E1" stroke="#202246" stroke-width="3" stroke-linecap="round" stroke-linejoin="round"/>
<path d="M143.11 550.11L158.49 544.18" stroke="#FEF0E1" stroke-width="1.38" stroke-linecap="round" stroke-linejoin="round"/>
<path d="M142.44 542.6L157.5 549.28" stroke="#FEF0E1" stroke-width="1.38" stroke-linecap="round" stroke-linejoin="round"/>
<path d="M143.11 542.6L158.49 536.67" stroke="#FEF0E1" stroke-width="1.38" stroke-linecap="round" stroke-linejoin="round"/>
<path d="M142.44 535.09L157.5 541.77" stroke="#FEF0E1" stroke-width="1.38" stroke-linecap="round" stroke-linejoin="round"/>
<path d="M151.68 536.36C151.68 536.36 137.84 538.41 140.55 541.39C143.26 544.37 148.06 542.1 151.68 536.36Z" stroke="#FEF0E1" stroke-width="1.38" stroke-linecap="round" stroke-linejoin="round"/>
<path d="M148.05 545.35C148.05 545.35 148.72 541.08 151.69 536.36" stroke="#FEF0E1" stroke-width="1.38" stroke-linecap="round" stroke-linejoin="round"/>
<path d="M151.68 536.36C151.68 536.36 162.07 538.41 160.04 541.39C158.01 544.37 154.4 542.1 151.68 536.36Z" stroke="#FEF0E1" stroke-width="1.2" stroke-linecap="round" stroke-linejoin="round"/>
<path d="M154.42 545.35C154.42 545.35 153.92 541.08 151.69 536.36" stroke="#FEF0E1" stroke-width="1.2" stroke-linecap="round" stroke-linejoin="round"/>
<path d="M203.91 334.46L201.83 322.98C201.83 322.98 183.03 327.17 165.29 327.23C147.54 327.17 128.75 322.98 128.75 322.98L126.67 334.46C126.67 334.46 107.96 379.81 111.93 402.21C115.9 424.6 117.24 449.01 118.02 458.9C119.07 472.23 122.56 533.17 122.56 533.17C126.91 537.14 159.46 535.15 161.54 529.67C163.62 524.19 159.84 464.1 160.31 457.86C160.78 451.62 164.66 402.21 161.54 397.1C161.42 397.08 162.71 397.79 165.23 397.79C167.75 397.79 169.05 397.1 169.05 397.1C165.93 402.2 169.81 451.62 170.28 457.86C170.75 464.1 166.97 524.19 169.05 529.67C171.13 535.15 202.97 536.85 207.32 532.88C207.32 532.88 211.49 468.46 212.71 458.61C213.93 448.76 214.69 424.59 218.66 402.2C222.63 379.81 203.92 334.45 203.92 334.45L203.91 334.46Z" fill="#EE6F7D" stroke="#202246" stroke-width="3" stroke-linejoin="round"/>
<path d="M139.28 346.23C139.28 346.23 138.45 362.87 116.61 364.12" stroke="#202246" stroke-width="3" stroke-linecap="round" stroke-linejoin="round"/>
<path d="M191.29 346.23C191.29 346.23 192.12 362.87 213.96 364.12" stroke="#202246" stroke-width="3" stroke-linecap="round" stroke-linejoin="round"/>
<path d="M160.55 337.76V372.31C160.55 372.31 161.34 378.12 165.68 378.12C170.02 378.12 170.32 372.03 170.32 372.03" stroke="#202246" stroke-width="2.49" stroke-linecap="round" stroke-linejoin="round"/>
<path d="M130.64 333.47C142.66 337.65 162.31 337.98 165.29 338C168.27 337.97 187.92 337.65 199.94 333.47" stroke="#202246" stroke-width="3" stroke-linecap="round" stroke-linejoin="round"/>
<path d="M165.29 335.74C166.842 335.74 168.1 334.482 168.1 332.93C168.1 331.378 166.842 330.12 165.29 330.12C163.738 330.12 162.48 331.378 162.48 332.93C162.48 334.482 163.738 335.74 165.29 335.74Z" stroke="#202246" stroke-width="3" stroke-linejoin="round"/>
<path d="M278 506.179C269 496.679 254 499.679 251 508.679C248 517.679 262 521.179 261 509.179C260 497.179 248.5 494.179 240 495.179" stroke="#7EC7B7" stroke-width="5" stroke-linecap="round" stroke-linejoin="round"/>
<path d="M85.0301 556.412C72.825 558.655 69.6627 561.825 67.4119 574.03C67.2138 575.124 65.6365 575.124 65.4384 574.03C63.1955 561.825 60.0254 558.663 47.8203 556.412C46.7266 556.214 46.7266 554.637 47.8203 554.438C60.0254 552.196 63.1876 549.025 65.4384 536.82C65.6365 535.727 67.2138 535.727 67.4119 536.82C69.6548 549.025 72.825 552.188 85.0301 554.438C86.1238 554.637 86.1238 556.214 85.0301 556.412Z" fill="#F8C22A"/>
<path d="M96.2603 576.447C90.1577 577.573 88.5727 579.15 87.4552 585.252C87.3522 585.799 86.5675 585.799 86.4645 585.252C85.3391 579.15 83.762 577.565 77.6594 576.447C77.1126 576.344 77.1126 575.56 77.6594 575.457C83.762 574.331 85.347 572.754 86.4645 566.651C86.5675 566.105 87.3522 566.105 87.4552 566.651C88.5806 572.754 90.1577 574.339 96.2603 575.457C96.8071 575.56 96.8071 576.344 96.2603 576.447Z" fill="#F8C22A"/>
<path d="M249.03 20.4119C236.825 22.6548 233.663 25.8249 231.412 38.03C231.214 39.1237 229.637 39.1237 229.438 38.03C227.196 25.8249 224.025 22.6627 211.82 20.4119C210.727 20.2137 210.727 18.6365 211.82 18.4384C224.025 16.1955 227.188 13.0254 229.438 0.820278C229.637 -0.273426 231.214 -0.273426 231.412 0.820278C233.655 13.0254 236.825 16.1876 249.03 18.4384C250.124 18.6365 250.124 20.2137 249.03 20.4119Z" fill="#F8C22A"/>
<path d="M260.26 40.4472C254.158 41.5727 252.573 43.1498 251.455 49.2523C251.352 49.7992 250.568 49.7992 250.465 49.2523C249.339 43.1498 247.762 41.5647 241.659 40.4472C241.113 40.3442 241.113 39.5596 241.659 39.4566C247.762 38.3312 249.347 36.754 250.465 30.6515C250.568 30.1046 251.352 30.1046 251.455 30.6515C252.581 36.754 254.158 38.3391 260.26 39.4566C260.807 39.5596 260.807 40.3442 260.26 40.4472Z" fill="#F8C22A"/>
<path d="M40 72.1787C49 62.6787 64 65.6787 67 74.6787C70 83.6787 56 87.1787 57 75.1787C58 63.1787 69.5 60.1787 78 61.1787" stroke="#7EC7B7" stroke-width="5" stroke-linecap="round" stroke-linejoin="round"/>
</svg>
