<svg width="186" height="188" viewBox="0 0 186 188" fill="none" xmlns="http://www.w3.org/2000/svg">
<path d="M76.13 153.202C55.79 153.202 36.67 145.282 22.3 130.902C7.91999 116.522 0 97.4024 0 77.0724C0 56.7424 7.91999 37.6224 22.3 23.2424C36.68 8.86239 55.8 0.942383 76.13 0.942383C96.46 0.942383 115.59 8.86239 129.96 23.2424C144.34 37.6224 152.26 56.7424 152.26 77.0724C152.26 97.4024 144.34 116.532 129.96 130.902C115.58 145.282 96.46 153.202 76.13 153.202ZM76.13 6.93238C57.4 6.93238 39.78 14.2324 26.54 27.4724C13.29 40.7224 6 58.3324 6 77.0624C6 95.7924 13.3 113.412 26.54 126.652C53.89 153.992 98.38 153.992 125.72 126.652C138.97 113.402 146.26 95.7924 146.26 77.0624C146.26 58.3324 138.96 40.7224 125.72 27.4724C112.47 14.2224 94.86 6.93238 76.13 6.93238Z" fill="#202246"/>
<path d="M87.18 177.522C86.41 177.522 85.64 177.232 85.06 176.642C83.89 175.472 83.89 173.572 85.06 172.402L166.98 90.4824C168.15 89.3124 170.05 89.3124 171.22 90.4824C172.39 91.6524 172.39 93.5524 171.22 94.7224L89.3 176.642C88.71 177.232 87.95 177.522 87.18 177.522Z" fill="#202246"/>
<path d="M169.1 98.2724C172.231 98.2724 174.77 95.7338 174.77 92.6024C174.77 89.4709 172.231 86.9324 169.1 86.9324C165.969 86.9324 163.43 89.4709 163.43 92.6024C163.43 95.7338 165.969 98.2724 169.1 98.2724Z" fill="#202246"/>
<path d="M88.03 180.192C91.1615 180.192 93.7 177.654 93.7 174.522C93.7 171.391 91.1615 168.852 88.03 168.852C84.8986 168.852 82.36 171.391 82.36 174.522C82.36 177.654 84.8986 180.192 88.03 180.192Z" fill="#202246"/>
<path d="M125.458 122.513L117.092 130.878C116.389 131.581 116.389 132.72 117.092 133.423L125.458 141.789C126.16 142.491 127.3 142.491 128.003 141.789L136.368 133.423C137.071 132.72 137.071 131.581 136.368 130.878L128.003 122.513C127.3 121.81 126.16 121.81 125.458 122.513Z" fill="#FEF0E1"/>
<path d="M126.73 125.472L133.4 132.142L126.73 138.812L120.06 132.142L126.73 125.472ZM126.73 121.972C126.27 121.972 125.81 122.152 125.45 122.502L117.09 130.862C116.39 131.562 116.39 132.712 117.09 133.412L125.45 141.772C125.8 142.122 126.26 142.302 126.73 142.302C127.2 142.302 127.65 142.122 128.01 141.772L136.37 133.412C137.07 132.712 137.07 131.562 136.37 130.862L128.01 122.502C127.66 122.152 127.2 121.972 126.73 121.972Z" fill="#202246"/>
<path d="M130.69 138.482L153.28 185.622C154.3 187.752 157.43 187.442 158.02 185.152L163.07 165.312C163.27 164.532 163.83 163.882 164.58 163.582L183.59 155.992C185.79 155.112 185.69 151.972 183.44 151.232L133.76 134.972C131.64 134.282 129.73 136.462 130.69 138.472V138.482Z" fill="#FEF0E1"/>
</svg>
