<svg width="469" height="289" viewBox="0 0 469 289" fill="none" xmlns="http://www.w3.org/2000/svg">
<g clip-path="url(#clip0_191_1989)">
<path d="M420.13 25.75C404.73 28.58 400.74 32.58 397.9 47.98C397.65 49.36 395.66 49.36 395.41 47.98C392.58 32.58 388.58 28.59 373.18 25.75C371.8 25.5 371.8 23.51 373.18 23.26C388.58 20.43 392.57 16.43 395.41 1.03C395.66 -0.350005 397.65 -0.350005 397.9 1.03C400.73 16.43 404.73 20.42 420.13 23.26C421.51 23.51 421.51 25.5 420.13 25.75Z" fill="#F8C22A"/>
<path d="M434.3 51.04C426.6 52.46 424.6 54.45 423.19 62.15C423.06 62.84 422.07 62.84 421.94 62.15C420.52 54.45 418.53 52.45 410.83 51.04C410.14 50.91 410.14 49.92 410.83 49.79C418.53 48.37 420.53 46.38 421.94 38.68C422.07 37.99 423.06 37.99 423.19 38.68C424.61 46.38 426.6 48.38 434.3 49.79C434.99 49.92 434.99 50.91 434.3 51.04Z" fill="#F8C22A"/>
<path d="M74.6901 186C66.9901 187.42 64.9901 189.41 63.5801 197.11C63.4501 197.8 62.4601 197.8 62.3301 197.11C60.9101 189.41 58.9201 187.41 51.2201 186C50.5301 185.87 50.5301 184.88 51.2201 184.75C58.9201 183.33 60.9201 181.34 62.3301 173.64C62.4601 172.95 63.4501 172.95 63.5801 173.64C65.0001 181.34 66.9901 183.34 74.6901 184.75C75.3801 184.88 75.3801 185.87 74.6901 186Z" fill="#F8C22A"/>
<path d="M351.69 286.84H5.34014C1.51014 286.84 0.0601374 281.83 3.30014 279.78L114.75 209.61C115.36 209.23 116.07 209.02 116.79 209.02H463.14C466.97 209.02 468.42 214.03 465.18 216.08L353.73 286.25C353.12 286.63 352.41 286.84 351.69 286.84Z" fill="#7EC7B7"/>
<path d="M351.69 288.34H5.3401C2.9101 288.34 0.900098 286.83 0.230098 284.49C-0.439902 282.15 0.450098 279.81 2.5101 278.51L113.96 208.34C114.81 207.8 115.79 207.52 116.8 207.52H463.15C465.58 207.52 467.59 209.03 468.26 211.37C468.93 213.71 468.04 216.05 465.98 217.35L354.53 287.52C353.68 288.06 352.7 288.34 351.69 288.34ZM116.79 210.53C116.35 210.53 115.92 210.65 115.55 210.89L4.1001 281.05C3.0101 281.74 2.8701 282.85 3.1101 283.66C3.3401 284.47 4.0501 285.34 5.3401 285.34H351.69C352.13 285.34 352.56 285.22 352.93 284.98L464.38 214.81C465.47 214.12 465.61 213.01 465.37 212.2C465.13 211.39 464.43 210.52 463.14 210.52H116.78L116.79 210.53Z" fill="#202246"/>
<path d="M178.61 211.24L166.14 214.09C166.14 214.09 201.2 240.45 203.75 239.7C206.3 238.95 207.6 223.42 195.86 215.84C186.02 209.48 178.62 211.25 178.62 211.25L178.61 211.24Z" fill="#FAD6CE"/>
<path d="M203.62 241.22C202.34 241.22 199 239.75 183.11 228.39C174.12 221.96 165.32 215.35 165.23 215.28L162.65 213.34L178.27 209.78C178.73 209.67 186.49 208.01 196.66 214.58C206.27 220.79 207.48 231.64 206.78 236.52C206.52 238.35 205.85 240.64 204.16 241.14C204 241.19 203.84 241.23 203.61 241.23L203.62 241.22ZM169.63 214.82C184.15 225.66 199.8 236.72 203.29 238.08C203.66 237.33 204.2 235.25 203.87 231.96C203.58 229.01 202.13 221.66 195.04 217.08C185.93 211.2 179.02 212.67 178.95 212.69L178.61 211.23L178.94 212.69L169.62 214.81L169.63 214.82Z" fill="#202246"/>
<path d="M178.61 211.24C193.16 210.31 206.47 223.98 205.29 235.57C204.11 247.16 226.8 223.16 230.76 218.06C234.72 212.96 222.95 200.41 217.41 201.68C211.87 202.95 178.61 211.25 178.61 211.25V211.24Z" fill="#202246"/>
<path d="M206.77 240.15C206.38 240.15 206.02 240.09 205.7 239.96C204.66 239.54 203.49 238.42 203.8 235.41C204.28 230.64 201.98 225.12 197.65 220.62C192.47 215.25 185.38 212.31 178.7 212.73C177.92 212.78 177.24 212.23 177.12 211.46C177 210.69 177.49 209.96 178.24 209.77C178.57 209.69 211.58 201.45 217.07 200.19C221.26 199.23 227.59 204.1 230.86 209.25C233.37 213.18 233.75 216.63 231.94 218.96C231.76 219.19 213.95 240.14 206.76 240.14L206.77 240.15ZM186.95 210.7C191.67 212.06 196.17 214.77 199.81 218.54C204.82 223.74 207.36 229.99 206.78 235.71C206.66 236.89 206.88 237.22 206.88 237.22C209.64 238.1 224.36 223.83 229.58 217.12C230.52 215.91 230.06 213.57 228.34 210.86C225.49 206.38 220.23 202.55 217.75 203.12C213.98 203.98 197.17 208.15 186.96 210.69L186.95 210.7Z" fill="#EE6F7D"/>
<path d="M210.55 179.31C214.46 167.59 225.26 210.84 216.58 208.97C207.9 207.09 208.47 185.55 210.55 179.31Z" fill="#29191C"/>
<path d="M271.71 59.18C320.36 44.81 362.15 52.7 375.36 128.29C388.57 203.88 311.46 228.81 270.27 228.25C229.07 227.69 218.4 223.94 216.98 213.58C215.56 203.22 218.44 202.37 217.45 197.41C216.46 192.45 206.54 176.58 209.37 161.27C212.2 145.96 204.41 79.07 271.71 59.18Z" fill="#FAD6CE"/>
<mask id="mask0_191_1989" style="mask-type:luminance" maskUnits="userSpaceOnUse" x="208" y="53" width="169" height="176">
<path d="M271.71 59.18C320.36 44.81 362.15 52.7 375.36 128.29C388.57 203.88 311.46 228.81 270.27 228.25C229.07 227.69 218.4 223.94 216.98 213.58C215.56 203.22 218.44 202.37 217.45 197.41C216.46 192.45 206.54 176.58 209.37 161.27C212.2 145.96 204.41 79.07 271.71 59.18Z" fill="white"/>
</mask>
<g mask="url(#mask0_191_1989)">
<path d="M258.806 194.865C261.665 190.361 261.761 185.299 259.019 183.558C256.278 181.818 251.737 184.058 248.878 188.562C246.018 193.066 245.923 198.128 248.664 199.869C251.406 201.609 255.946 199.369 258.806 194.865Z" fill="#F5B0B3"/>
<path d="M314.623 210.047C321.768 209.101 327.094 204.81 326.518 200.463C325.943 196.116 319.684 193.358 312.539 194.304C305.394 195.25 300.069 199.541 300.644 203.888C301.219 208.235 307.478 210.993 314.623 210.047Z" fill="#F5B0B3"/>
<path d="M224.067 213.262C231.212 212.317 236.538 208.026 235.962 203.679C235.387 199.331 229.128 196.574 221.983 197.52C214.838 198.465 209.513 202.756 210.088 207.103C210.663 211.451 216.922 214.208 224.067 213.262Z" fill="#F5B0B3"/>
</g>
<path d="M271.75 229.76C271.24 229.76 270.74 229.76 270.24 229.76C229.39 229.2 217.11 225.62 215.48 213.79C214.63 207.62 215.25 204.67 215.75 202.29C216.09 200.69 216.33 199.53 215.97 197.7C215.75 196.58 214.89 194.56 213.9 192.22C210.83 184.96 205.7 172.82 207.89 161C208.29 158.83 208.47 155.53 208.7 151.34C210.07 126.56 212.91 74.99 271.28 57.75C300.9 49 323.62 49.91 340.74 60.53C359.08 71.91 370.88 93.99 376.83 128.04C381.29 153.59 376 175.41 361.1 192.9C339.31 218.47 300.84 229.77 271.75 229.77V229.76ZM272.13 60.62C215.79 77.26 213.03 127.4 211.7 151.5C211.46 155.79 211.28 159.18 210.84 161.54C208.81 172.48 213.73 184.1 216.67 191.05C217.77 193.64 218.63 195.69 218.92 197.12C219.41 199.55 219.06 201.18 218.7 202.91C218.25 205.05 217.69 207.72 218.47 213.38C219.65 221.98 227.71 226.18 270.3 226.76C297.9 227.11 337.41 216.09 358.83 190.96C373.13 174.18 378.19 153.19 373.89 128.56C368.1 95.4 356.74 73.98 339.17 63.08C322.82 52.94 300.89 52.14 272.14 60.63L272.13 60.62Z" fill="#202246"/>
<path d="M324.67 54.17C391.31 81.89 385.67 130.76 396.66 140.77C407.65 150.78 414.84 158.03 421.17 171.27C427.49 184.51 417.92 190.91 422.57 195.93C427.22 200.95 438.27 192.73 442.52 198.68C446.77 204.63 440.45 209.01 440.45 209.01L349.58 209.06L324.67 54.17Z" fill="#29191C"/>
<path d="M349.58 210.56C348.84 210.56 348.21 210.02 348.1 209.28L323.19 54.39C323.11 53.86 323.32 53.32 323.75 52.99C324.18 52.66 324.75 52.58 325.25 52.79C374.63 73.33 384.95 105.68 391.11 125C393.29 131.84 395.02 137.25 397.67 139.66C408.43 149.45 415.97 156.9 422.52 170.62C426.32 178.58 424.72 184.31 423.55 188.5C422.64 191.76 422.26 193.4 423.66 194.91C425.35 196.73 428.59 196.16 432.02 195.55C436.22 194.8 440.98 193.96 443.73 197.81C448.54 204.54 441.99 209.39 441.67 209.86C441.41 210.24 440.98 210.48 440.52 210.5L349.65 210.55C349.65 210.55 349.6 210.55 349.57 210.55L349.58 210.56ZM326.55 56.6L350.86 207.49L439.61 207.55C441.62 204.4 444.07 203.45 441.29 199.56C439.75 197.41 436.96 197.73 432.54 198.51C428.65 199.2 424.25 199.98 421.46 196.96C418.86 194.15 419.73 191.02 420.66 187.71C421.76 183.77 423.13 178.87 419.81 171.93C413.49 158.7 406.14 151.45 395.64 141.89C392.39 138.93 390.56 133.19 388.24 125.92C382.34 107.41 372.53 76.66 326.54 56.61L326.55 56.6Z" fill="#202246"/>
<path d="M277.96 192.73C269.74 170.53 277.82 137.74 324.02 155.17C332.1 184.37 315.94 203.08 277.96 192.73Z" fill="#F2E7E3"/>
<path d="M297.27 197.14C291.8 197.14 285.29 196.28 277.57 194.18L276.83 193.98L276.56 193.26C272.18 181.42 271.97 165.27 281.41 155.9C287.53 149.81 299.99 144.51 324.56 153.78L325.27 154.05L325.47 154.78C329.51 169.39 327.62 181.56 320.15 189.06C316.07 193.16 309.06 197.15 297.27 197.15V197.14ZM279.11 191.48C296.68 196.12 310.48 194.51 318.03 186.93C324.59 180.35 326.26 169.49 322.78 156.3C304.87 149.69 291.3 150.28 283.52 158.01C275.22 166.26 275.31 180.61 279.11 191.47V191.48Z" fill="#202246"/>
<path d="M290.72 194.14C299.098 194.14 305.89 186.78 305.89 177.7C305.89 168.62 299.098 161.26 290.72 161.26C282.342 161.26 275.55 168.62 275.55 177.7C275.55 186.78 282.342 194.14 290.72 194.14Z" fill="#29191C"/>
<path d="M295.04 178.92C289.2 180.34 287.69 182.33 286.61 190.03C286.51 190.72 285.76 190.72 285.67 190.03C284.6 182.33 283.08 180.33 277.24 178.92C276.72 178.79 276.72 177.8 277.24 177.67C283.08 176.25 284.59 174.26 285.67 166.56C285.77 165.87 286.52 165.87 286.61 166.56C287.68 174.26 289.2 176.26 295.04 177.67C295.56 177.8 295.56 178.79 295.04 178.92Z" fill="#F8C22A"/>
<path d="M291.74 171.55C293.778 171.55 295.43 169.898 295.43 167.86C295.43 165.822 293.778 164.17 291.74 164.17C289.702 164.17 288.05 165.822 288.05 167.86C288.05 169.898 289.702 171.55 291.74 171.55Z" fill="#F2E7E3"/>
<path d="M291.74 172.55C289.16 172.55 287.06 170.45 287.06 167.87C287.06 165.29 289.16 163.18 291.74 163.18C294.32 163.18 296.43 165.28 296.43 167.87C296.43 170.46 294.33 172.55 291.74 172.55ZM291.74 165.18C290.26 165.18 289.06 166.39 289.06 167.87C289.06 169.35 290.26 170.55 291.74 170.55C293.22 170.55 294.43 169.35 294.43 167.87C294.43 166.39 293.22 165.18 291.74 165.18Z" fill="#202246"/>
<path d="M290.72 195.65C281.53 195.65 274.05 187.6 274.05 177.71C274.05 167.82 281.53 159.77 290.72 159.77C299.91 159.77 307.39 167.82 307.39 177.71C307.39 187.6 299.91 195.65 290.72 195.65ZM290.72 162.77C283.18 162.77 277.05 169.47 277.05 177.71C277.05 185.95 283.18 192.65 290.72 192.65C298.26 192.65 304.39 185.95 304.39 177.71C304.39 169.47 298.26 162.77 290.72 162.77Z" fill="#202246"/>
<path d="M245.65 193.44C250.98 177.71 235.02 145.11 212.63 157.16C210.36 185.93 217.17 202.51 245.65 193.44Z" fill="#F2E7E3"/>
<path d="M231.9 197.44C226.86 197.44 222.74 196.15 219.47 193.55C212.27 187.84 209.62 176.23 211.13 157.04L211.19 156.22L211.91 155.83C220.09 151.43 228.47 152.28 235.5 158.23C245.29 166.51 250.7 183.19 247.06 193.92L246.82 194.64L246.1 194.87C240.72 196.58 236 197.44 231.89 197.44H231.9ZM214.06 158.11C212.79 175.49 215.17 186.32 221.34 191.21C226.31 195.16 233.88 195.5 244.46 192.25C247.21 182.68 242.17 167.79 233.58 160.53C229.43 157.02 222.71 153.82 214.07 158.11H214.06Z" fill="#202246"/>
<path d="M229.678 195.663C235.242 193.702 237.305 185.171 234.288 176.608C231.271 168.044 224.315 162.691 218.751 164.651C213.188 166.612 211.125 175.143 214.142 183.706C217.159 192.27 224.115 197.623 229.678 195.663Z" fill="#29191C"/>
<path d="M234.7 178.08C230.22 181.16 229.6 183.5 231.25 191.08C231.4 191.76 230.76 191.99 230.45 191.36C226.98 184.42 225.03 182.99 219.61 183.4C219.12 183.44 218.79 182.5 219.2 182.23C223.68 179.15 224.3 176.81 222.65 169.23C222.5 168.55 223.14 168.32 223.45 168.95C226.92 175.89 228.87 177.32 234.29 176.91C234.78 176.87 235.11 177.81 234.7 178.08Z" fill="#F8C22A"/>
<path d="M227.28 197.33C224.96 197.33 222.52 196.41 220.2 194.63C217.08 192.22 214.51 188.49 212.97 184.13C209.73 174.93 212.14 165.66 218.35 163.47C221.45 162.38 224.97 163.16 228.26 165.69C231.38 168.1 233.95 171.83 235.49 176.19C238.73 185.39 236.32 194.66 230.11 196.85C229.2 197.17 228.25 197.33 227.28 197.33ZM221.16 165.5C220.47 165.5 219.81 165.61 219.18 165.83C214.28 167.56 212.56 175.38 215.34 183.28C216.72 187.2 218.99 190.51 221.73 192.63C224.31 194.62 226.99 195.28 229.27 194.47C234.17 192.74 235.89 184.92 233.11 177.02C231.73 173.1 229.46 169.79 226.72 167.67C224.86 166.23 222.94 165.49 221.17 165.49L221.16 165.5Z" fill="#202246"/>
<path d="M221.79 174.21C223.828 174.21 225.48 172.558 225.48 170.52C225.48 168.482 223.828 166.83 221.79 166.83C219.752 166.83 218.1 168.482 218.1 170.52C218.1 172.558 219.752 174.21 221.79 174.21Z" fill="#F2E7E3"/>
<path d="M221.79 175.21C219.21 175.21 217.11 173.11 217.11 170.53C217.11 167.95 219.21 165.84 221.79 165.84C224.37 165.84 226.48 167.94 226.48 170.53C226.48 173.12 224.38 175.21 221.79 175.21ZM221.79 167.84C220.31 167.84 219.11 169.05 219.11 170.53C219.11 172.01 220.31 173.21 221.79 173.21C223.27 173.21 224.48 172.01 224.48 170.53C224.48 169.05 223.27 167.84 221.79 167.84Z" fill="#202246"/>
<path d="M245.93 211.15C247.57 203.77 258.12 209.59 262.94 208.88C267.76 208.17 277.68 200.09 284.63 205.41C291.58 210.73 282.65 222.77 270.17 223.48C257.7 224.19 244.23 218.8 245.93 211.15Z" fill="#F2E7E3"/>
<path d="M267.95 225.05C258.93 225.05 250.1 222.1 246.36 217.7C244.59 215.61 243.93 213.24 244.47 210.83C245.91 204.37 252.52 205.74 257.34 206.74C259.36 207.16 261.45 207.59 262.72 207.4C263.93 207.22 265.77 206.38 267.71 205.5C272.87 203.15 279.92 199.93 285.53 204.22C288.23 206.29 289.18 209.44 288.12 212.88C286.41 218.43 279.26 224.47 270.24 224.99C269.47 225.03 268.7 225.05 267.94 225.05H267.95ZM247.4 211.48C247.07 212.98 247.48 214.37 248.65 215.75C252.09 219.8 261.32 222.49 270.09 221.98C277.7 221.55 283.89 216.46 285.27 211.99C285.75 210.44 285.87 208.24 283.72 206.6C279.55 203.4 273.68 206.08 268.97 208.23C266.73 209.25 264.8 210.13 263.17 210.37C261.37 210.63 259.12 210.17 256.74 209.68C250.72 208.43 248.09 208.41 247.41 211.48H247.4Z" fill="#202246"/>
<path d="M285.07 209.93C285.07 209.93 277.98 215.66 268.63 215.23L285.07 209.93Z" fill="#29191C"/>
<path d="M269.63 216.76C269.28 216.76 268.92 216.76 268.56 216.74C267.73 216.7 267.09 216 267.13 215.17C267.17 214.34 267.86 213.7 268.7 213.74C277.38 214.13 284.06 208.82 284.13 208.77C284.78 208.25 285.72 208.35 286.24 208.99C286.76 209.63 286.66 210.58 286.02 211.1C285.72 211.34 278.91 216.76 269.64 216.76H269.63Z" fill="#202246"/>
<path d="M352.79 153.89C359.33 143.41 380.03 147.2 380.93 166.02C382.05 189.23 359.11 188.19 357.23 187.45C355.35 186.71 352.79 153.89 352.79 153.89Z" fill="#FAD6CE"/>
<path d="M360.27 189.27C358.44 189.27 357.11 189.07 356.65 188.89C355.61 188.48 353.86 187.79 351.23 154L351.19 153.49L351.46 153.06C354.76 147.76 361.57 145.4 368.39 147.17C374.85 148.85 381.94 154.67 382.48 165.94C382.89 174.55 380.24 180.97 374.58 185.02C369.78 188.46 363.98 189.27 360.26 189.27H360.27ZM358.19 186.08C360.27 186.39 367.87 186.3 373.24 182.14C377.66 178.72 379.72 173.32 379.37 166.1C378.91 156.51 372.99 151.6 367.6 150.19C362.29 148.81 357.05 150.46 354.38 154.3C355.47 168.13 357.14 183.2 358.19 186.08Z" fill="#202246"/>
<path d="M360.66 159.47C360.66 159.47 367.42 154.42 373.36 161.16L360.66 159.47Z" fill="#FAD6CE"/>
<path d="M373.36 162.19C373.07 162.19 372.79 162.07 372.58 161.84C367.36 155.92 361.52 160.12 361.28 160.3C360.82 160.64 360.17 160.54 359.83 160.08C359.49 159.62 359.58 158.97 360.04 158.63C360.12 158.57 367.64 153.09 374.14 160.46C374.52 160.89 374.48 161.55 374.05 161.93C373.85 162.1 373.61 162.19 373.36 162.19Z" fill="#202246"/>
<path d="M364.186 181.15L363.512 181.239C362.247 181.406 361.358 182.567 361.525 183.832L362.71 192.784C362.878 194.049 364.039 194.938 365.303 194.771L365.977 194.682C367.242 194.514 368.132 193.353 367.964 192.088L366.779 183.137C366.612 181.872 365.451 180.982 364.186 181.15Z" fill="#F8C22A"/>
<path d="M364.98 196.38C363.07 196.38 361.41 194.96 361.15 193.02L359.97 184.07C359.69 181.96 361.18 180.01 363.3 179.73L363.98 179.64C365 179.51 366.02 179.78 366.84 180.4C367.66 181.02 368.19 181.94 368.32 182.96L369.5 191.91C369.64 192.93 369.36 193.95 368.74 194.77C368.11 195.59 367.2 196.12 366.18 196.25L365.5 196.34C365.33 196.36 365.16 196.37 364.99 196.37L364.98 196.38ZM364.48 182.72C364.48 182.72 364.41 182.72 364.38 182.72L363.7 182.81C363.29 182.86 363 183.24 363.06 183.65L364.24 192.6C364.29 193.01 364.66 193.29 365.08 193.24L365.76 193.15C366.03 193.11 366.19 192.95 366.26 192.86C366.33 192.77 366.44 192.57 366.41 192.31L365.23 183.36C365.19 183.09 365.03 182.94 364.94 182.86C364.86 182.8 364.7 182.7 364.49 182.7L364.48 182.72Z" fill="#202246"/>
<path d="M240.78 140.56C240.36 140.56 239.93 140.38 239.64 140.03C237.06 137 230.57 136.02 225 139.4C224.29 139.83 223.37 139.6 222.94 138.89C222.51 138.18 222.74 137.26 223.45 136.83C229.79 132.99 238.08 133.56 241.93 138.09C242.47 138.72 242.39 139.67 241.76 140.2C241.48 140.44 241.13 140.56 240.79 140.56H240.78Z" fill="#202246"/>
<path d="M270.22 58.49C286.74 41.05 259.79 13.2 239.15 45.99C264.55 38.87 270.22 58.49 270.22 58.49Z" fill="#29191C"/>
<path d="M270.22 59.99C270.1 59.99 269.98 59.98 269.87 59.95C269.35 59.82 268.93 59.43 268.78 58.91C268.55 58.14 263.13 40.83 239.55 47.44C238.95 47.61 238.31 47.39 237.94 46.89C237.57 46.39 237.54 45.72 237.87 45.19C247.29 30.22 257 28.86 261.94 29.37C268.19 30.02 273.48 34.22 275.75 40.34C278.16 46.86 276.5 54.03 271.3 59.52C271.01 59.82 270.62 59.99 270.21 59.99H270.22ZM249.48 42.94C262.67 42.94 268.53 51.37 270.65 55.65C273.83 51.32 274.7 46.13 272.94 41.39C271.08 36.35 266.75 32.89 261.64 32.36C257.74 31.95 250.35 33 242.55 43.65C245.05 43.16 247.36 42.95 249.47 42.95L249.48 42.94Z" fill="#202246"/>
<path d="M252.31 86.9C249.66 112.98 227.55 148.51 213.19 155.31C213.19 155.31 210.07 201.66 214.32 207.47C218.57 213.28 197.17 212.65 196.6 203.61C196.03 194.57 203.69 191.59 203.26 186.77C202.83 181.95 195.53 173.39 195.46 164.17C195.36 148.78 207.79 130.55 209.49 122.99C211.19 115.43 214.59 67.71 271.19 58.49C255.88 79.34 252.29 86.9 252.29 86.9H252.31Z" fill="#29191C"/>
<path d="M209.42 212.73C207.56 212.73 205.56 212.45 203.74 211.95C198.49 210.49 195.35 207.49 195.11 203.71C194.75 197.97 197.37 194.46 199.47 191.65C200.83 189.83 201.9 188.4 201.77 186.92C201.63 185.29 200.43 182.89 199.04 180.13C196.8 175.66 194.01 170.1 193.97 164.2C193.9 153.64 199.55 141.76 203.68 133.08C205.73 128.77 207.5 125.05 208.03 122.68C208.16 122.1 208.3 121.27 208.48 120.24C209.58 113.79 211.87 100.37 220.58 87.22C231.4 70.87 248.35 60.71 270.96 57.03C271.56 56.94 272.16 57.21 272.48 57.73C272.8 58.25 272.77 58.91 272.41 59.4C258.8 77.93 254.47 85.97 253.77 87.35C250.97 113.75 229.35 148.45 214.63 156.29C213.47 174.08 212.72 202.76 215.54 206.61C216.96 208.56 216.24 210.04 215.86 210.59C214.81 212.1 212.28 212.76 209.42 212.76V212.73ZM267.79 60.64C220.07 70.21 213.61 108.08 211.45 120.73C211.26 121.82 211.12 122.69 210.97 123.33C210.36 126.03 208.52 129.89 206.4 134.36C202.4 142.77 196.91 154.3 196.98 164.17C197.02 169.37 199.52 174.37 201.73 178.77C203.26 181.81 204.58 184.44 204.77 186.65C205 189.27 203.49 191.3 201.89 193.44C199.98 195.99 197.83 198.88 198.12 203.52C198.37 207.44 203.88 208.94 205.57 209.31C209.97 210.27 213.09 209.42 213.41 208.85C213.41 208.85 213.37 208.68 213.13 208.35C208.68 202.27 211.39 160.01 211.71 155.21C211.75 154.67 212.07 154.19 212.56 153.96C226.38 147.42 248.23 112.33 250.83 86.75C250.85 86.58 250.89 86.41 250.97 86.26C251.11 85.96 254.43 79.08 267.8 60.64H267.79Z" fill="#202246"/>
<path d="M252.31 86.9C249.76 139.89 293.7 155.88 326.06 156.44C326.06 156.44 329.42 212.14 312.41 225.42C295.4 238.7 353.82 201.37 361.1 193.29C372.93 180.15 360.6 167.86 356.07 158.43C352.2 150.38 366.56 134.05 367.69 127.82C368.82 121.59 358.12 55.25 313.58 51.85C269.04 48.45 253.02 72.22 252.32 86.91L252.31 86.9Z" fill="#29191C"/>
<path d="M309.22 229.73C309.1 229.73 309.03 229.71 308.96 229.69C308.41 229.54 307.95 229.05 307.84 228.5C307.63 227.44 308.14 226.85 311.48 224.24C326.22 212.73 324.99 166.51 324.62 157.91C312.23 157.51 284.72 154.33 266.58 134.96C255.16 122.77 249.85 106.57 250.8 86.83C251.19 78.63 255.8 69.88 263.13 63.41C271.18 56.31 286.47 48.27 313.67 50.35C327.35 51.39 339.17 58.25 348.79 70.72C365.4 92.24 370.01 123.3 369.14 128.09C368.69 130.55 366.61 134.07 364.21 138.13C360.21 144.88 355.24 153.29 357.4 157.78C358.26 159.57 359.44 161.5 360.68 163.55C365.92 172.18 372.45 182.92 362.2 194.3C358.07 198.88 339.81 211.14 334.31 214.79C313.65 228.49 310.13 229.74 309.22 229.74V229.73ZM253.81 86.97C252.9 105.87 257.94 121.33 268.78 132.9C286.85 152.2 314.88 154.74 326.09 154.94C326.87 154.95 327.51 155.57 327.56 156.35C327.69 158.45 330.24 203.63 317.56 222C330.95 213.7 355.67 197.07 359.98 192.28C368.73 182.56 363.1 173.29 358.12 165.1C356.84 162.99 355.63 161 354.7 159.07C351.85 153.13 357.05 144.35 361.63 136.59C363.8 132.93 365.84 129.47 366.19 127.54C366.92 123.52 362.42 93.28 346.42 72.54C337.34 60.77 326.24 54.31 313.45 53.33C287.3 51.33 272.73 58.92 265.12 65.64C258.39 71.58 254.16 79.55 253.8 86.96L253.81 86.97Z" fill="#202246"/>
<path d="M196.66 110.02C196.66 84.08 175.64 63.06 149.7 63.06C123.76 63.06 102.74 84.08 102.74 110.02C102.74 133.35 119.76 152.7 142.06 156.35C142.1 156.42 142.12 156.49 142.16 156.55L148.28 165.3C148.97 166.28 150.43 166.28 151.11 165.3L157.23 156.55C157.28 156.49 157.3 156.42 157.33 156.35C179.63 152.7 196.65 133.35 196.65 110.02H196.66Z" fill="#7EC7B7"/>
<path d="M172.62 95.48C171.63 94.65 170.36 94.14 168.97 94.14H130.42C129.03 94.14 127.75 94.64 126.77 95.48L149.7 110.68L172.63 95.48H172.62Z" fill="#202246"/>
<path d="M151.91 114.01C151.24 114.45 150.47 114.68 149.7 114.68C148.93 114.68 148.16 114.46 147.49 114.01L124.82 98.98C124.78 99.25 124.75 99.52 124.75 99.81V120.22C124.75 123.35 127.29 125.89 130.42 125.89H168.97C172.1 125.89 174.64 123.35 174.64 120.22V99.81C174.64 99.53 174.61 99.25 174.57 98.98L151.9 114.01H151.91Z" fill="#202246"/>
<path d="M165.67 184.22H133.63C129.875 184.22 126.83 187.264 126.83 191.02V262.32C126.83 266.076 129.875 269.12 133.63 269.12H165.67C169.426 269.12 172.47 266.076 172.47 262.32V191.02C172.47 187.264 169.426 184.22 165.67 184.22Z" fill="#EE6F7D"/>
<path d="M165.67 270.62H133.64C129.06 270.62 125.34 266.9 125.34 262.32V191.03C125.34 186.45 129.06 182.73 133.64 182.73H165.67C170.25 182.73 173.97 186.45 173.97 191.03V262.32C173.97 266.9 170.25 270.62 165.67 270.62ZM133.64 185.72C130.72 185.72 128.34 188.1 128.34 191.02V262.31C128.34 265.23 130.72 267.61 133.64 267.61H165.67C168.59 267.61 170.97 265.23 170.97 262.31V191.02C170.97 188.1 168.59 185.72 165.67 185.72H133.64Z" fill="#202246"/>
<path d="M136.2 196.5C138.061 196.5 139.57 194.991 139.57 193.13C139.57 191.269 138.061 189.76 136.2 189.76C134.339 189.76 132.83 191.269 132.83 193.13C132.83 194.991 134.339 196.5 136.2 196.5Z" fill="#202246"/>
<path d="M136.2 205.04C138.061 205.04 139.57 203.531 139.57 201.67C139.57 199.809 138.061 198.3 136.2 198.3C134.339 198.3 132.83 199.809 132.83 201.67C132.83 203.531 134.339 205.04 136.2 205.04Z" fill="#202246"/>
<path d="M136.2 213.58C138.061 213.58 139.57 212.071 139.57 210.21C139.57 208.349 138.061 206.84 136.2 206.84C134.339 206.84 132.83 208.349 132.83 210.21C132.83 212.071 134.339 213.58 136.2 213.58Z" fill="#202246"/>
<path d="M127.02 219.75C134.39 219.37 147.81 246.77 140.82 248.85C133.83 250.93 134.21 243.75 131.18 245.64C128.15 247.53 134.96 253.95 132.31 259.44C129.66 264.93 125.7 274.56 119.84 273.05C113.98 271.54 99.62 250.75 106.04 237.14C112.46 223.53 127.02 219.75 127.02 219.75Z" fill="#FAD6CE"/>
<path d="M121.09 274.71C120.56 274.71 120.02 274.64 119.46 274.5C115.74 273.54 110.06 266.89 106.53 259.35C104.18 254.34 100.81 244.7 104.68 236.5C111.33 222.42 126.01 218.46 126.64 218.3L126.94 218.25C127.01 218.25 127.09 218.25 127.16 218.25C134.01 218.25 142.63 234.4 144.03 242.52C145.02 248.27 142.71 249.86 141.24 250.29C136.24 251.78 134.1 249.2 132.83 247.66C132.6 247.39 132.28 246.99 132.09 246.84C132.06 246.85 132.02 246.88 131.97 246.91C131.69 247.35 132.4 249.12 132.81 250.18C133.88 252.88 135.35 256.59 133.65 260.09C133.43 260.54 133.21 261.01 132.97 261.51C130.44 266.86 126.73 274.71 121.08 274.71H121.09ZM127.24 221.25C125.68 221.71 113.08 225.74 107.4 237.78C104.05 244.87 107.12 253.54 109.25 258.07C112.92 265.9 118.06 271.04 120.21 271.59C124.38 272.66 127.93 265.18 130.27 260.23C130.51 259.73 130.74 259.24 130.96 258.79C132.08 256.48 130.99 253.72 130.03 251.29C129.03 248.77 127.91 245.92 130.38 244.37C132.76 242.88 134.31 244.75 135.14 245.75C136.29 247.14 137.28 248.34 140.38 247.42C141.39 247.12 141.4 244.95 141.07 243.03C139.58 234.38 131.28 221.36 127.24 221.25Z" fill="#202246"/>
<path d="M307.98 229.64C305.58 221.22 360.48 188.7 380.06 191.73C395.68 194.15 396.5 206.42 394.23 215.26C391.96 224.1 362.86 265.67 355.49 267.19C348.12 268.71 315.32 255.38 307.98 229.65V229.64Z" fill="#202246"/>
<path d="M354.16 268.8C343.71 268.8 313.65 254.99 306.54 230.05C306.04 228.29 306.94 226.15 309.29 223.49C319.8 211.58 362.42 187.48 380.29 190.25C386.58 191.22 391.15 193.81 393.87 197.93C397.85 203.97 396.72 211.61 395.69 215.63C393.39 224.6 363.88 267 355.8 268.65C355.33 268.75 354.78 268.79 354.16 268.79V268.8ZM309.43 229.23C316.53 254.13 348.21 267.15 355.2 265.72C361.68 264.39 390.49 223.85 392.79 214.89C393.7 211.35 394.72 204.66 391.38 199.59C389.14 196.2 385.26 194.06 379.84 193.22C364.06 190.77 322.53 213.03 311.54 225.48C309.2 228.13 309.4 229.13 309.43 229.24V229.23Z" fill="#EE6F7D"/>
<path d="M224.22 244.6C224.22 244.6 187.96 227.31 183.99 225.32C180.02 223.33 171.52 213.73 165.85 213.57C160.18 213.41 148.85 226.49 149.69 229.08C152.81 238.69 166.98 224.75 172.62 233.54C174.5 236.47 161.88 248.85 163.3 253.38C164.72 257.91 176.06 265.85 180.59 266.7C185.12 267.55 192.58 263.8 196.65 263.87C202.79 263.96 210.54 267.24 214.89 266.82C214.89 266.82 295.96 270.95 305.88 268.12C315.8 265.29 341.88 252.25 349.63 244.88C357.38 237.51 329.79 223.53 315.61 227.12C301.43 230.71 302.76 234.68 297.66 235.43C292.56 236.18 285.57 235.43 278.76 236.56C271.96 237.69 235.24 245.44 224.21 244.59L224.22 244.6Z" fill="#FAD6CE"/>
<path d="M286.59 270.61C260.38 270.61 218.29 268.5 214.92 268.33C212.48 268.54 209.31 267.77 205.95 266.97C202.77 266.21 199.49 265.42 196.63 265.38C196.6 265.38 196.58 265.38 196.55 265.38C195.02 265.38 192.79 266.02 190.43 266.69C186.9 267.7 183.25 268.73 180.31 268.19C175.41 267.27 163.49 259.05 161.86 253.84C160.91 250.79 163.96 246.31 167.2 241.57C168.88 239.1 171.41 235.4 171.31 234.3C169.23 231.14 165.89 231.73 160.64 233.07C156.02 234.25 150.26 235.72 148.26 229.56C148.08 229.02 147.61 227.57 150.87 223.22C154.11 218.89 160.98 212.09 165.75 212.09C165.8 212.09 165.84 212.09 165.89 212.09C170.09 212.21 175.05 216.36 179.42 220.02C181.48 221.75 183.43 223.38 184.66 223.99C188.4 225.86 221.34 241.57 224.6 243.13C233.55 243.68 259.19 238.77 271.58 236.39C274.71 235.79 277.18 235.32 278.51 235.1C282.38 234.46 286.33 234.4 289.82 234.36C292.61 234.32 295.24 234.29 297.43 233.96C299.05 233.72 299.83 233.1 301.12 232.08C303.33 230.32 306.36 227.92 315.24 225.67C327.06 222.68 347.3 231.08 351.57 238.83C353.03 241.48 352.71 244.02 350.65 245.97C342.51 253.71 316.3 266.71 306.28 269.57C303.61 270.33 296.15 270.61 286.57 270.61H286.59ZM214.86 265.32H214.97C242.93 266.75 297.82 268.87 305.47 266.68C315 263.96 340.88 251.13 348.6 243.79C349.3 243.12 349.98 242.12 348.96 240.27C345.27 233.58 326.25 225.97 315.99 228.57C307.74 230.66 305 232.83 303 234.42C301.55 235.57 300.31 236.56 297.89 236.92C295.5 237.27 292.77 237.31 289.88 237.35C286.33 237.4 282.66 237.45 279.02 238.05C277.72 238.27 275.27 238.74 272.16 239.33C258.55 241.94 233.2 246.8 224.11 246.09L223.83 246.07L223.58 245.95C222.1 245.24 187.27 228.63 183.33 226.66C181.78 225.88 179.8 224.23 177.5 222.3C173.7 219.12 168.97 215.15 165.81 215.07H165.75C164.01 215.07 160.95 216.96 157.73 220.03C153.59 223.97 151.26 227.76 151.16 228.72C152.2 231.79 154.53 231.53 159.91 230.15C164.63 228.94 170.5 227.44 173.89 232.73C175.33 234.97 172.96 238.44 169.69 243.24C167.51 246.44 164.22 251.27 164.74 252.93C165.92 256.69 176.61 264.43 180.88 265.22C183.12 265.65 186.57 264.65 189.62 263.78C192.19 263.05 194.61 262.36 196.57 262.36C196.61 262.36 196.65 262.36 196.69 262.36C199.88 262.41 203.33 263.24 206.66 264.04C209.82 264.8 212.81 265.51 214.75 265.32H214.86Z" fill="#202246"/>
<path d="M349.82 259.06C349.82 259.06 357.51 239.53 346.4 225.8C340.23 218.18 324.86 216.68 311.2 225.47C316.85 224.55 334.11 227.6 349.82 259.06Z" fill="#202246"/>
<path d="M349.82 260.56C349.26 260.56 348.71 260.24 348.46 259.69C340.07 241.74 319.45 224.45 309.74 227.26C308.95 227.49 308.11 227.03 307.88 226.23C307.65 225.43 308.11 224.6 308.91 224.37C321.2 220.84 342.79 240.47 351.18 258.42C351.53 259.17 351.21 260.06 350.46 260.41C350.25 260.51 350.04 260.55 349.83 260.55L349.82 260.56Z" fill="#EE6F7D"/>
</g>
<defs>
<clipPath id="clip0_191_1989">
<rect width="468.47" height="288.34" fill="white"/>
</clipPath>
</defs>
</svg>
