<svg width="32" height="32" viewBox="0 0 32 32" fill="none" xmlns="http://www.w3.org/2000/svg">
<path d="M20.0116 7.84571H11.9831C9.61775 7.84571 7.7583 9.78992 7.7583 12.0705V20.099C7.7583 22.4644 9.70251 24.3238 11.9831 24.3238H20.0116C22.377 24.3238 24.2364 22.3796 24.2364 20.099V12.0705C24.2364 9.70516 22.2922 7.84571 20.0116 7.84571ZM16.0411 21.1108C13.3366 21.1108 11.056 18.8302 11.056 16.1258C11.056 13.4214 13.2519 11.1408 16.0411 11.1408C18.8302 11.1408 21.0261 13.4214 21.0261 16.1258C21.0261 18.8302 18.7455 21.1108 16.0411 21.1108ZM21.3651 11.9858C20.6897 11.9858 20.1811 11.4798 20.1811 10.8018C20.1811 10.1237 20.687 9.61775 21.3651 9.61775C22.0432 9.61775 22.5491 10.1237 22.5491 10.8018C22.5491 11.4798 22.0432 11.9858 21.3651 11.9858ZM26.8508 0H5.14924C2.30445 0 0 2.30445 0 5.14924V26.8508C0 29.6956 2.30445 32 5.14924 32H26.8508C29.6956 32 32 29.6956 32 26.8508V5.14924C32 2.30445 29.6956 0 26.8508 0ZM26.0959 20.0142C26.0959 23.3941 23.3914 26.0985 20.0116 26.0985H11.9831C8.60326 26.0985 5.89885 23.3941 5.89885 20.0142V11.9858C5.89885 8.60591 8.60326 5.9015 12.0679 5.9015H20.0964C23.4762 5.9015 26.1806 8.60591 26.0959 11.9858V20.0142ZM16.0411 12.9155C14.2664 12.9155 12.8307 14.3511 12.8307 16.1258C12.8307 17.9005 14.2664 19.3361 16.0411 19.3361C17.8157 19.3361 19.2514 17.9005 19.2514 16.1258C19.2514 14.3511 17.8157 12.9155 16.0411 12.9155Z" fill="#FEF0E1"/>
</svg>
