<svg width="32" height="32" viewBox="0 0 32 32" fill="none" xmlns="http://www.w3.org/2000/svg">
<path d="M26.8508 0H5.14924C2.30445 0 0 2.30445 0 5.14924V26.8508C0 29.6956 2.30445 32 5.14924 32H26.8508C29.6956 32 32 29.6956 32 26.8508V5.14924C32 2.30445 29.6956 0 26.8508 0ZM10.7223 20.8195C10.7011 21.8975 9.76343 22.5756 8.76749 22.316C8.0894 22.1359 7.6497 21.6379 7.63116 20.9387C7.63116 17.1853 7.67089 16.2477 7.63116 15.31C7.59142 14.3909 8.30925 13.7128 9.14891 13.6942C10.0283 13.673 10.7064 14.314 10.7249 15.2517C10.7461 16.6688 10.7647 19.4024 10.7249 20.8195H10.7223ZM9.46412 12.4572C8.56618 12.4572 7.8669 11.8189 7.84836 11.0004C7.84836 10.1819 8.50791 9.54358 9.36611 9.54358C10.2243 9.54358 10.9633 10.2031 10.9819 11.0004C11.0031 11.8189 10.3223 12.4572 9.46412 12.4572ZM23.3941 21.0605C23.116 22.0194 22.2763 22.4962 21.4181 22.218C20.6208 21.9584 20.2208 21.2406 20.3798 20.3215C20.4407 19.8818 20.5784 19.4421 20.6791 19.0051C20.8592 18.1654 21.0579 17.3496 21.1585 16.5099C21.5373 13.2175 19.1428 13.5565 17.7654 15.7523C16.788 17.2701 16.6874 18.9468 16.6874 20.5811C16.7086 21.5797 16.1682 22.316 15.3497 22.4379C14.4915 22.5783 13.7525 22.0591 13.5327 21.0605C13.1936 19.503 12.9128 17.927 12.5738 16.3298C12.3354 15.212 12.0944 14.1154 11.8348 13.0161C11.5964 11.999 11.954 11.1593 12.7936 10.86C13.6333 10.5819 14.4889 11.019 14.8306 11.9566C15.0107 12.497 15.1113 13.0347 15.2703 13.6545C16.547 11.4984 19.1216 9.90117 21.8975 11.1805C23.0339 11.6997 23.7543 12.6771 24.1119 13.975C24.7715 16.351 24.051 18.8859 23.3941 21.0605Z" fill="#FEF0E1"/>
</svg>
