<svg width="160" height="160" viewBox="0 0 160 160" fill="none" xmlns="http://www.w3.org/2000/svg">
<g clip-path="url(#clip0_1031_593)">
<path d="M89.6455 151.437C128.497 151.437 159.993 119.941 159.993 81.0896C159.993 42.2377 128.497 10.7421 89.6455 10.7421C50.7937 10.7421 19.298 42.2377 19.298 81.0896C19.298 119.941 50.7937 151.437 89.6455 151.437Z" fill="#FEF0E1"/>
<path d="M52.7606 107.966C35.8303 111.081 31.437 115.474 28.322 132.404C28.0426 133.927 25.8634 133.927 25.5841 132.404C22.469 115.474 18.0758 111.081 1.14544 107.966C-0.377174 107.686 -0.377174 105.507 1.14544 105.228C18.0758 102.113 22.469 97.7196 25.5841 80.7892C25.8634 79.2666 28.0426 79.2666 28.322 80.7892C31.437 97.7196 35.8303 102.113 52.7606 105.228C54.2832 105.507 54.2832 107.686 52.7606 107.966Z" fill="#202246"/>
<mask id="mask0_1031_593" style="mask-type:luminance" maskUnits="userSpaceOnUse" x="19" y="10" width="141" height="142">
<path d="M89.6455 151.437C128.497 151.437 159.993 119.941 159.993 81.0896C159.993 42.2377 128.497 10.7421 89.6455 10.7421C50.7937 10.7421 19.298 42.2377 19.298 81.0896C19.298 119.941 50.7937 151.437 89.6455 151.437Z" fill="white"/>
</mask>
<g mask="url(#mask0_1031_593)">
<path d="M62.3573 85.86L39.9022 74.2169L46.0974 62.2734L73.6302 76.5497L62.3573 85.86Z" fill="#FEF0E1"/>
<path d="M62.3572 87.2569C62.1407 87.2569 61.9172 87.208 61.7146 87.1032L39.2596 75.4601C38.9313 75.2925 38.6799 74.9921 38.5681 74.6429C38.4564 74.2867 38.4913 73.9095 38.6589 73.5743L44.8541 61.6309C45.2104 60.9464 46.0555 60.681 46.7399 61.0372L74.2797 75.3134C74.6987 75.5299 74.9781 75.942 75.027 76.403C75.0759 76.871 74.8873 77.3319 74.5241 77.6253L63.2512 86.9356C62.9928 87.1451 62.6785 87.2569 62.3642 87.2569H62.3572ZM41.781 73.6162L62.1756 84.1907L71.1087 76.8151L46.6841 64.1523L41.774 73.6162H41.781Z" fill="#202246"/>
<path d="M64.285 83.2897C64.0684 83.2897 63.8449 83.2408 63.6424 83.136L41.2921 71.5488C40.6076 71.1926 40.3422 70.3544 40.6984 69.663L42.8636 65.4863C43.0313 65.158 43.3316 64.9066 43.6808 64.7948C44.037 64.6831 44.4142 64.718 44.7424 64.8856L68.5455 77.2272C68.9436 77.4367 69.223 77.8278 69.2858 78.2748C69.3487 78.7218 69.1881 79.1758 68.8668 79.4831L65.2488 82.9055C64.9834 83.157 64.6342 83.2897 64.285 83.2897ZM43.8135 69.7049L64.0405 80.1955L65.5072 78.8056L44.6866 68.0077L43.8065 69.7049H43.8135Z" fill="#202246"/>
<path d="M35.8582 68.5246L39.9022 74.2169L46.0974 62.2735L39.113 62.2455" fill="#FEF0E1"/>
<path d="M39.9022 75.6137C39.4552 75.6137 39.0291 75.3972 38.7637 75.0271L34.7197 69.3347C34.2727 68.7061 34.4194 67.8331 35.048 67.3861C35.6766 66.939 36.5497 67.0857 36.9967 67.7143L39.7206 71.5418L43.8065 63.6564L39.113 63.6354C38.3447 63.6354 37.7161 63.0068 37.723 62.2315C37.723 61.4632 38.3516 60.8416 39.1199 60.8416L46.1044 60.8696C46.5933 60.8696 47.0403 61.128 47.2918 61.5401C47.5432 61.9591 47.5641 62.476 47.3337 62.909L41.1384 74.8524C40.9149 75.2855 40.4819 75.5718 39.993 75.5998C39.9581 75.5998 39.9301 75.5998 39.8952 75.5998L39.9022 75.6137Z" fill="#202246"/>
<path d="M39.113 62.2665L31.3323 62.1967L35.8722 68.5106" fill="#202246"/>
<path d="M35.8722 69.9074C35.4391 69.9074 35.0131 69.7049 34.7407 69.3277L30.1938 63.0068C29.8865 62.5807 29.8446 62.015 30.089 61.547C30.3265 61.0861 30.8084 60.7927 31.3323 60.7927H31.3462L39.1339 60.8626C39.9022 60.8696 40.5238 61.4982 40.5168 62.2734C40.5098 63.0417 39.8882 63.6564 39.1199 63.6564H39.106L34.0772 63.6075L37.0106 67.6864C37.4646 68.315 37.3179 69.188 36.6893 69.635C36.4449 69.8097 36.1585 69.9005 35.8722 69.9005V69.9074Z" fill="#202246"/>
<path d="M57.3145 81.0896C57.3145 81.0896 58.0059 108.057 75.928 116.773C96.9163 126.977 127.997 111.43 130.574 105.458C146.122 69.3766 124.372 35.502 92.6907 40.3841C61.0092 45.2663 57.3145 81.0896 57.3145 81.0896Z" fill="#FEF0E1"/>
<path d="M91.9155 122.235C86.3209 122.235 80.447 121.299 75.0061 118.652C56.162 109.488 55.2471 82.2909 55.2191 81.1385V81.0058L55.2261 80.873C55.268 80.4889 56.2458 71.4161 61.2537 61.6099C67.9588 48.4652 78.7218 40.4121 92.3695 38.3097C106.604 36.1166 119.742 41.2781 128.402 52.4812C139.207 66.4501 140.772 87.0613 132.488 106.283C130.994 109.747 123.576 114.531 114.447 117.919C110.061 119.546 101.386 122.235 91.9155 122.235ZM59.4098 81.1734C59.5006 83.2128 60.9254 107.156 76.836 114.887C90.0297 121.299 106.513 116.403 112.988 113.993C122.759 110.361 128.004 106.101 128.64 104.627C136.316 86.8098 134.954 67.8121 125.085 55.0515C117.381 45.0917 105.689 40.5029 93.005 42.4585C80.6146 44.3723 71.2065 51.4196 65.0463 63.4119C60.681 71.905 59.5565 80.0419 59.4098 81.1804V81.1734Z" fill="#202246"/>
<path d="M91.7618 78.4634C91.7199 78.4634 91.671 78.4634 91.6291 78.4634C90.6722 78.3936 89.9528 77.5694 90.0227 76.6126C90.1903 74.1471 92.0831 69.1881 98.0339 68.0496C105.256 66.6667 109.132 72.0098 109.293 72.2403C109.852 73.0295 109.663 74.1191 108.874 74.6709C108.085 75.2296 106.995 75.0411 106.443 74.2518C106.338 74.1051 103.663 70.5291 98.6974 71.479C94.0178 72.373 93.5498 76.403 93.5079 76.864C93.4311 77.772 92.6698 78.4704 91.7688 78.4704L91.7618 78.4634Z" fill="#202246"/>
<path d="M59.738 87.8087C59.738 87.8087 59.6682 87.8087 59.6333 87.8087C58.6764 87.7528 57.936 86.9356 57.9919 85.9787C58.0059 85.6924 58.4389 78.8895 64.4875 77.4088C69.3556 76.2214 72.7571 79.7206 73.8746 81.7461C74.3425 82.5913 74.0352 83.6529 73.1901 84.1209C72.345 84.5888 71.2833 84.2815 70.8154 83.4364C70.7386 83.3037 68.7899 79.9511 65.3116 80.8032C61.7985 81.6623 61.4842 85.9927 61.4702 86.1743C61.4143 87.0962 60.646 87.8156 59.731 87.8156L59.738 87.8087Z" fill="#202246"/>
<path d="M88.528 102.993C88.2765 102.993 88.0181 102.916 87.8086 102.762L75.7325 94.1156C75.3483 93.8432 75.1527 93.3683 75.2296 92.9073C75.3064 92.4393 75.6417 92.0622 76.0956 91.9295L92.3275 87.1102C92.7606 86.9845 93.2355 87.1032 93.5568 87.4245C93.8781 87.7458 93.9968 88.2207 93.8571 88.6608L89.7014 102.127C89.5826 102.504 89.2893 102.804 88.9121 102.937C88.7864 102.979 88.6467 103 88.521 103L88.528 102.993ZM79.2247 93.5778L87.8505 99.7521L90.8189 90.1345L79.2247 93.5778Z" fill="#202246"/>
<path d="M114.825 85.8896C119.211 84.7308 122.098 81.2639 121.275 78.1461C120.451 75.0283 116.228 73.4402 111.842 74.599C107.456 75.7578 104.568 79.2246 105.392 82.3424C106.216 85.4602 110.439 87.0483 114.825 85.8896Z" fill="#202246"/>
<path d="M61.9591 99.6543C65.1839 99.6543 67.7981 97.0401 67.7981 93.8153C67.7981 90.5905 65.1839 87.9763 61.9591 87.9763C58.7343 87.9763 56.1201 90.5905 56.1201 93.8153C56.1201 97.0401 58.7343 99.6543 61.9591 99.6543Z" fill="#202246"/>
<path d="M151.814 124.589C162.64 117.758 157.534 102.699 149.761 91.7409C143 82.2001 160.657 71.5278 139.144 47.7667C117.632 24.0056 88.067 33.7768 77.3738 43.8065C77.3738 43.8065 77.3738 43.8554 77.3878 43.9462C77.3738 43.9043 77.3668 43.8624 77.3529 43.8205C57.4053 43.3106 54.0387 60.8346 52.6558 74.8874C51.2729 88.9471 58.1037 140.29 69.5861 139.235C64.8367 137.65 56.8186 81.7182 56.8186 81.7182C64.4246 79.1828 80.9499 64.0894 78.0024 46.6771C79.8393 52.6977 86.9146 66.3524 113.672 69.4115C113.672 69.4115 126.607 124.191 114.461 137.517C123.436 138.572 126.076 116.794 126.076 116.794C126.076 116.794 130.302 121.285 128.849 127.487C127.397 133.69 120.14 134.088 125.42 139.501C130.7 144.914 135.058 142.602 134.793 146.625C134.528 150.648 132.418 151.116 132.418 151.116C132.418 151.116 136.441 151.772 137.831 148.28C139.612 153.099 144.76 149.928 144.76 149.928C144.76 149.928 139.577 148.245 141.065 143.992C148.189 143.202 146.806 134.095 146.806 134.095C146.806 134.095 153.009 136.735 150.634 143.335C155.781 138.453 156.179 128.158 151.821 124.596L151.814 124.589Z" fill="#202246"/>
<path d="M64.7668 33.0295C79.085 32.5895 77.3528 43.8275 77.3528 43.8275C84.6795 37.0735 80.2723 24.6552 64.7668 33.0295Z" fill="#202246"/>
</g>
</g>
<defs>
<clipPath id="clip0_1031_593">
<rect width="160" height="160" fill="white"/>
</clipPath>
</defs>
</svg>
