<svg width="88" height="88" viewBox="0 0 88 88" fill="none" xmlns="http://www.w3.org/2000/svg">
<g clip-path="url(#clip0_957_1183)">
<path d="M49.3051 83.2904C70.6736 83.2904 87.9962 65.9678 87.9962 44.5993C87.9962 23.2307 70.6736 5.90814 49.3051 5.90814C27.9366 5.90814 10.614 23.2307 10.614 44.5993C10.614 65.9678 27.9366 83.2904 49.3051 83.2904Z" fill="#FEF0E1"/>
<path d="M29.0183 59.3812C19.7066 61.0945 17.2903 63.5107 15.5771 72.8224C15.4234 73.6599 14.2249 73.6599 14.0712 72.8224C12.3579 63.5107 9.94165 61.0945 0.62997 59.3812C-0.207467 59.2275 -0.207467 58.029 0.62997 57.8753C9.94165 56.162 12.3579 53.7458 14.0712 44.4341C14.2249 43.5966 15.4234 43.5966 15.5771 44.4341C17.2903 53.7458 19.7066 56.162 29.0183 57.8753C29.8557 58.029 29.8557 59.2275 29.0183 59.3812Z" fill="#EE6F7D"/>
<mask id="mask0_957_1183" style="mask-type:luminance" maskUnits="userSpaceOnUse" x="10" y="5" width="78" height="79">
<path d="M49.3051 83.2904C70.6736 83.2904 87.9962 65.9678 87.9962 44.5993C87.9962 23.2307 70.6736 5.90814 49.3051 5.90814C27.9366 5.90814 10.614 23.2307 10.614 44.5993C10.614 65.9678 27.9366 83.2904 49.3051 83.2904Z" fill="white"/>
</mask>
<g mask="url(#mask0_957_1183)">
<path d="M34.2965 47.223L21.9462 40.8193L25.3536 34.2504L40.4966 42.1023L34.2965 47.223Z" fill="#FEF0E1"/>
<path d="M34.2965 47.9912C34.1774 47.9912 34.0545 47.9643 33.9431 47.9067L21.5928 41.503C21.4123 41.4108 21.274 41.2456 21.2125 41.0536C21.151 40.8577 21.1702 40.6502 21.2624 40.4658L24.6698 33.8969C24.8657 33.5205 25.3305 33.3745 25.707 33.5704L40.8538 41.4224C41.0843 41.5414 41.238 41.7681 41.2649 42.0216C41.2918 42.279 41.1881 42.5325 40.9883 42.6939L34.7882 47.8145C34.6461 47.9298 34.4732 47.9912 34.3003 47.9912H34.2965ZM22.9796 40.4889L34.1966 46.3048L39.1098 42.2483L25.6763 35.2837L22.9757 40.4889H22.9796Z" fill="#EE6F7D"/>
<path d="M35.3567 45.8093C35.2376 45.8093 35.1147 45.7824 35.0033 45.7248L22.7107 39.3518C22.3342 39.1559 22.1882 38.6949 22.3841 38.3146L23.575 36.0175C23.6672 35.8369 23.8324 35.6986 24.0244 35.6372C24.2204 35.5757 24.4278 35.5949 24.6083 35.6871L37.7 42.4749C37.919 42.5902 38.0726 42.8053 38.1072 43.0512C38.1418 43.297 38.0534 43.5467 37.8767 43.7157L35.8868 45.598C35.7409 45.7363 35.5488 45.8093 35.3567 45.8093ZM24.0974 38.3377L35.2223 44.1076L36.029 43.3431L24.5776 37.4042L24.0936 38.3377H24.0974Z" fill="#EE6F7D"/>
<path d="M19.722 37.6885L21.9462 40.8192L25.3536 34.2504L21.5121 34.235" fill="#FEF0E1"/>
<path d="M21.9462 41.5876C21.7004 41.5876 21.466 41.4685 21.3201 41.2649L19.0959 38.1341C18.85 37.7884 18.9307 37.3082 19.2764 37.0623C19.6221 36.8165 20.1023 36.8971 20.3482 37.2429L21.8463 39.348L24.0936 35.011L21.5121 34.9995C21.0896 34.9995 20.7438 34.6537 20.7477 34.2273C20.7477 33.8048 21.0934 33.4629 21.516 33.4629L25.3574 33.4783C25.6263 33.4783 25.8722 33.6204 26.0105 33.847C26.1488 34.0775 26.1603 34.3618 26.0335 34.6L22.6262 41.1688C22.5032 41.407 22.2651 41.5645 21.9962 41.5799C21.9769 41.5799 21.9616 41.5799 21.9424 41.5799L21.9462 41.5876Z" fill="#EE6F7D"/>
<path d="M21.5121 34.2465L17.2327 34.2081L19.7297 37.6808" fill="#EE6F7D"/>
<path d="M19.7297 38.4491C19.4915 38.4491 19.2572 38.3377 19.1074 38.1302L16.6066 34.6537C16.4376 34.4194 16.4145 34.1082 16.549 33.8509C16.6796 33.5973 16.9446 33.436 17.2328 33.436H17.2404L21.5237 33.4782C21.9462 33.4821 22.2881 33.8278 22.2843 34.2542C22.2804 34.6768 21.9385 35.0148 21.516 35.0148H21.5083L18.7424 34.9879L20.3559 37.2313C20.6055 37.5771 20.5249 38.0572 20.1791 38.3031C20.0447 38.3991 19.8872 38.4491 19.7297 38.4491Z" fill="#EE6F7D"/>
<path d="M31.5229 44.5993C31.5229 44.5993 31.9033 59.4311 41.7604 64.2253C53.304 69.8376 70.3984 61.2865 71.8159 58.0021C80.367 38.1572 68.4047 19.5261 50.9799 22.2113C33.5551 24.8965 31.5229 44.5993 31.5229 44.5993Z" fill="#FEF0E1"/>
<path d="M50.5535 67.2293C47.4765 67.2293 44.2459 66.7145 41.2534 65.2586C30.8891 60.2186 30.3859 45.26 30.3705 44.6262V44.5532L30.3744 44.4802C30.3974 44.2689 30.9352 39.2789 33.6896 33.8855C37.3774 26.6558 43.297 22.2266 50.8032 21.0704C58.6321 19.8641 65.8579 22.703 70.6213 28.8647C76.564 36.5476 77.4245 47.8837 72.8685 58.4554C72.0465 60.3607 67.9668 62.9921 62.9461 64.8552C60.5336 65.7503 55.7626 67.2293 50.5535 67.2293ZM32.6754 44.6454C32.7254 45.7671 33.509 58.9317 42.2598 63.1881C49.5163 66.7145 58.5822 64.0178 62.1432 62.6964C67.5174 60.6988 70.4023 58.3555 70.7519 57.545C74.9737 47.7454 74.2246 37.2967 68.7966 30.2783C64.5595 24.8004 58.1289 22.2766 51.1528 23.3522C44.3381 24.4047 39.1636 28.2808 35.7755 34.8765C33.3746 39.5478 32.7561 44.023 32.6754 44.6492V44.6454Z" fill="#EE6F7D"/>
<path d="M50.469 43.1549C50.4459 43.1549 50.419 43.1549 50.396 43.1549C49.8697 43.1165 49.474 42.6632 49.5125 42.1369C49.6047 40.7809 50.6457 38.0534 53.9186 37.4273C57.8945 36.6628 60.0227 39.6054 60.111 39.7321C60.4183 40.1662 60.3146 40.7655 59.8805 41.069C59.4465 41.3763 58.8472 41.2726 58.5437 40.8385C58.4861 40.7578 57.0148 38.791 54.2835 39.3134C51.7098 39.8051 51.4524 42.0216 51.4294 42.2752C51.3871 42.7746 50.9684 43.1587 50.4728 43.1587L50.469 43.1549Z" fill="#EE6F7D"/>
<path d="M32.8559 48.2947C32.8559 48.2947 32.8175 48.2947 32.7983 48.2947C32.272 48.264 31.8648 47.8146 31.8956 47.2883C31.9032 47.1308 32.1414 43.3892 35.4681 42.5748C38.1456 41.9218 40.0164 43.8502 40.631 44.9604C40.8884 45.4252 40.7194 46.0091 40.2546 46.2665C39.7897 46.5238 39.2058 46.3548 38.9485 45.89C38.9062 45.817 37.8306 43.9731 35.9214 44.4418C33.9891 44.9143 33.8163 47.296 33.8086 47.3958C33.7779 47.9029 33.3553 48.2986 32.8521 48.2986L32.8559 48.2947Z" fill="#EE6F7D"/>
<path d="M48.6904 56.6461C48.5521 56.6461 48.41 56.6038 48.2947 56.5193L41.6528 51.7636C41.4416 51.6138 41.334 51.3525 41.3763 51.099C41.4185 50.8416 41.6029 50.6342 41.8526 50.5612L50.7801 47.9106C51.0183 47.8414 51.2795 47.9067 51.4562 48.0835C51.6329 48.2602 51.6982 48.5214 51.6214 48.7634L49.3357 56.1697C49.2704 56.3772 49.1091 56.5423 48.9017 56.6153C48.8325 56.6384 48.7557 56.6499 48.6865 56.6499L48.6904 56.6461ZM43.5736 51.4678L48.3178 54.8636L49.9504 49.5739L43.5736 51.4678Z" fill="#EE6F7D"/>
<path d="M63.1536 47.2392C65.5658 46.6019 67.154 44.6951 66.701 42.9803C66.2479 41.2655 63.9251 40.3921 61.5129 41.0294C59.1007 41.6668 57.5125 43.5735 57.9656 45.2883C58.4187 47.0031 60.7414 47.8766 63.1536 47.2392Z" fill="#EE6F7D"/>
<path d="M34.0775 54.8098C35.8512 54.8098 37.289 53.372 37.289 51.5984C37.289 49.8248 35.8512 48.3869 34.0775 48.3869C32.3039 48.3869 30.8661 49.8248 30.8661 51.5984C30.8661 53.372 32.3039 54.8098 34.0775 54.8098Z" fill="#EE6F7D"/>
<path d="M83.4978 68.5238C89.4521 64.7669 86.644 56.4847 82.3684 50.4574C78.6499 45.21 88.3611 39.3403 76.5294 26.2717C64.6978 13.203 48.4369 18.5772 42.5556 24.0935C42.5556 24.0935 42.5556 24.1204 42.5633 24.1704C42.5556 24.1473 42.5518 24.1243 42.5441 24.1012C31.5729 23.8208 29.7213 33.459 28.9607 41.188C28.2001 48.9209 31.957 77.1594 38.2724 76.5793C35.6602 75.7073 31.2502 44.945 31.2502 44.945C35.4336 43.5505 44.5224 35.2491 42.9013 25.6724C43.9116 28.9837 47.803 36.4938 62.5196 38.1763C62.5196 38.1763 69.634 68.3048 62.9537 75.6343C67.89 76.2144 69.3421 64.2367 69.3421 64.2367C69.3421 64.2367 71.6661 66.7068 70.8671 70.118C70.0681 73.5292 66.0768 73.7482 68.981 76.7253C71.8851 79.7024 74.2822 78.4309 74.1362 80.6436C73.9902 82.8563 72.8301 83.1136 72.8301 83.1136C72.8301 83.1136 75.0428 83.4747 75.8072 81.554C76.7868 84.2046 79.618 82.4606 79.618 82.4606C79.618 82.4606 76.7676 81.5348 77.5858 79.1954C81.5041 78.7613 80.7435 73.752 80.7435 73.752C80.7435 73.752 84.1547 75.2041 82.8486 78.8343C85.6798 76.1491 85.8987 70.4868 83.5017 68.5276L83.4978 68.5238Z" fill="#EE6F7D"/>
<path d="M35.6218 18.1662C43.4967 17.9242 42.5441 24.1051 42.5441 24.1051C46.5737 20.3904 44.1498 13.5603 35.6218 18.1662Z" fill="#EE6F7D"/>
</g>
</g>
<defs>
<clipPath id="clip0_957_1183">
<rect width="88" height="88" fill="white"/>
</clipPath>
</defs>
</svg>
