<svg width="586" height="308" viewBox="0 0 586 308" fill="none" xmlns="http://www.w3.org/2000/svg">
<path d="M387.97 103.739L429.56 30.9786L468.26 53.0986L417.26 142.319" fill="#F8C22A"/>
<path d="M417.26 145.109C416.79 145.109 416.32 144.989 415.88 144.739C414.54 143.979 414.08 142.269 414.84 140.939L464.46 54.1386L430.6 34.7786L390.39 105.119C389.63 106.449 387.92 106.919 386.59 106.159C385.25 105.399 384.79 103.689 385.55 102.359L427.14 29.5986C427.51 28.9586 428.11 28.4886 428.83 28.2886C429.54 28.0986 430.3 28.1886 430.95 28.5586L469.65 50.6786C470.99 51.4386 471.45 53.1486 470.69 54.4786L419.69 143.699C419.18 144.599 418.24 145.099 417.27 145.099L417.26 145.109Z" fill="#202246"/>
<path d="M411.69 125.869C411.22 125.869 410.75 125.749 410.31 125.499C408.97 124.739 408.51 123.029 409.27 121.699L451.97 46.9986L443.28 42.0286L403.26 112.029C402.5 113.369 400.79 113.829 399.46 113.069C398.12 112.309 397.66 110.599 398.42 109.269L439.82 36.8486C440.19 36.2086 440.79 35.7386 441.51 35.5386C442.22 35.3486 442.98 35.4386 443.63 35.8086L457.16 43.5386C458.5 44.2986 458.96 46.0086 458.2 47.3386L414.12 124.459C413.61 125.359 412.67 125.859 411.7 125.859L411.69 125.869Z" fill="#202246"/>
<path d="M448.95 18.3586L429.56 30.9786L468.26 53.0986L469.3 29.9885" fill="#FEF0E1"/>
<path d="M468.26 55.8886C467.78 55.8886 467.31 55.7686 466.88 55.5186L428.18 33.3986C427.34 32.9186 426.81 32.0285 426.78 31.0585C426.75 30.0885 427.23 29.1686 428.04 28.6386L447.42 16.0186C448.71 15.1786 450.44 15.5386 451.28 16.8286C452.12 18.1186 451.76 19.8485 450.47 20.6885L434.91 30.8186L465.69 48.4086L466.53 29.8585C466.6 28.3185 467.87 27.1186 469.44 27.1986C470.98 27.2686 472.17 28.5685 472.1 30.1085L471.06 53.2186C471.02 54.1886 470.47 55.0686 469.62 55.5286C469.2 55.7586 468.74 55.8786 468.28 55.8786L468.26 55.8886Z" fill="#202246"/>
<path d="M469.23 29.9885L470.53 4.22855L448.99 18.4185" fill="#EE6F7D"/>
<path d="M469.23 32.7785C469.23 32.7785 469.14 32.7785 469.09 32.7785C467.55 32.6985 466.37 31.3885 466.45 29.8585L467.47 9.59853L450.53 20.7585C449.25 21.6085 447.52 21.2485 446.67 19.9685C445.82 18.6885 446.18 16.9585 447.46 16.1085L469 1.91853C469.88 1.33853 471 1.30854 471.92 1.82854C472.84 2.34854 473.37 3.33853 473.32 4.38853L472.02 30.1485C471.94 31.6385 470.71 32.7985 469.24 32.7985L469.23 32.7785Z" fill="#202246"/>
<path d="M190.65 55.2086C199.46 15.4086 111.1 -43.5814 81.27 62.4486C122.14 10.6486 190.65 55.2086 190.65 55.2086Z" fill="#29191C"/>
<path d="M75.46 73.8286L78.85 61.7585C85.85 36.8785 96.49 19.1686 110.47 9.11856C122.35 0.578561 136.21 -2.03145 150.56 1.57855C177.11 8.24855 197.78 34.5685 193.09 55.7385L192.31 59.2585L189.29 57.2985C189.12 57.1885 172.19 46.3085 150.64 41.8185C122.2 35.8885 99.52 43.3485 83.23 63.9885L75.47 73.8286H75.46ZM138.26 5.05853C123.05 5.05853 101.13 12.9285 87.05 52.4485C103.77 36.8785 125.93 31.5285 151.79 36.9485C168.73 40.4985 182.61 47.6385 188.7 51.1185C189.83 33.3285 171.53 12.0086 149.34 6.42856C146.42 5.69856 142.62 5.04855 138.26 5.04855V5.05853Z" fill="#202246"/>
<path d="M490.21 161.399C490.21 161.399 583.94 262.829 583.19 311.329H523.57L490.22 161.399H490.21Z" fill="#29191C"/>
<path d="M585.65 313.829H521.56L485.76 152.899L492.05 159.709C495.9 163.879 586.45 262.439 585.69 311.379L585.65 313.839V313.829ZM525.57 308.829H580.64C578.66 268.509 515.27 193.499 494.72 170.189L525.56 308.829H525.57Z" fill="#202246"/>
<path d="M251.51 44.2286C332.7 17.6586 528.66 122.659 534.33 275.729C533.94 289.179 531.93 300.929 528.55 311.149L205.23 311.329C205.23 311.329 -7.78998 129.079 251.51 44.2286Z" fill="#FAD6CE"/>
<mask id="mask0_229_2414" style="mask-type:luminance" maskUnits="userSpaceOnUse" x="122" y="40" width="413" height="272">
<path d="M251.51 44.2286C332.7 17.6586 528.66 122.659 534.33 275.729C533.94 289.179 531.93 300.929 528.55 311.149L205.23 311.329C205.23 311.329 -7.78998 129.079 251.51 44.2286Z" fill="white"/>
</mask>
<g mask="url(#mask0_229_2414)">
<path d="M529.895 206.032C557.971 198.922 577.888 181.931 574.38 168.08C570.873 154.23 545.27 148.765 517.194 155.875C489.119 162.984 469.202 179.975 472.709 193.826C476.217 207.676 501.82 213.141 529.895 206.032Z" fill="#F5B0B3"/>
<path d="M283.832 321.459C311.907 314.349 331.824 297.358 328.317 283.508C324.809 269.657 299.206 264.193 271.131 271.302C243.055 278.411 223.138 295.403 226.646 309.253C230.153 323.104 255.756 328.568 283.832 321.459Z" fill="#F5B0B3"/>
</g>
<path d="M205.24 315.329C204.29 315.329 203.36 314.989 202.64 314.369C201.64 313.519 177.93 293.089 155.78 262.459C126.17 221.509 114.06 182.019 120.75 148.269C129.96 101.819 173.54 65.5385 250.27 40.4285C270.85 33.6985 298.32 34.8185 329.72 43.6685C360.82 52.4385 392.9 67.9686 422.48 88.5886C493.55 138.129 535.78 206.279 538.34 275.579C538.34 275.669 538.34 275.759 538.34 275.839C537.95 289.299 535.94 301.599 532.35 312.399C531.81 314.029 530.28 315.139 528.56 315.139L205.24 315.319V315.329ZM280.26 44.1285C270.09 44.1285 260.82 45.3986 252.76 48.0386C178.99 72.1786 137.21 106.419 128.6 149.819C120.71 189.589 142.49 230.409 162.16 257.649C181.11 283.899 201.82 302.949 206.74 307.339L525.62 307.159C528.41 297.799 530 287.249 530.34 275.759C527.82 209.039 486.84 143.219 417.9 95.1685C371.74 62.9885 319.42 44.1385 280.26 44.1385V44.1285Z" fill="#202246"/>
<path d="M436.956 204.523C439.3 197.836 432.286 189.29 421.289 185.434C410.292 181.579 399.477 183.874 397.132 190.561C394.788 197.248 401.802 205.794 412.799 209.649C423.796 213.505 434.612 211.21 436.956 204.523Z" fill="#F5B0B3"/>
<path d="M442.4 251.539C431.06 251.089 429.17 273.269 442.4 272.709C455.63 272.149 447.12 251.729 442.4 251.539Z" fill="#F2E7E3"/>
<path d="M441.91 275.209C437.85 275.209 434.54 273.399 432.55 270.069C429.92 265.669 430.04 259.289 432.85 254.569C435.03 250.899 438.55 248.879 442.5 249.039C447.28 249.229 451.97 258.419 451.98 265.139C451.98 271.189 448.45 274.949 442.51 275.199C442.31 275.199 442.11 275.209 441.91 275.209ZM442.06 254.029C439.52 254.029 437.99 255.699 437.15 257.119C435.3 260.239 435.17 264.699 436.84 267.509C437.97 269.409 439.82 270.319 442.29 270.209C445.1 270.089 446.52 268.929 446.88 266.439C447.61 261.449 443.83 254.699 442.2 254.029C442.15 254.029 442.11 254.029 442.06 254.029Z" fill="#202246"/>
<path d="M422.94 91.0986C422.94 91.0986 470.94 124.739 486.81 157.239C481.25 188.779 441.29 188.149 416.13 183.699" fill="#F2E7E3"/>
<path d="M439.98 188.429C431.02 188.429 422.44 187.349 415.69 186.159L416.56 181.239C425.69 182.849 443.24 185.039 458.24 181.529C472.97 178.089 481.7 170.039 484.19 157.599C468.41 126.259 421.96 93.4785 421.49 93.1385L424.36 89.0485C426.34 90.4385 473.07 123.429 489.05 156.139L489.41 156.869L489.27 157.669C486.65 172.509 476.32 182.439 459.39 186.389C453.08 187.859 446.43 188.419 439.99 188.419L439.98 188.429Z" fill="#202246"/>
<path d="M416.13 183.699C416.13 183.699 371.91 139.859 385.89 109.999C399.87 80.1385 422.93 91.0986 422.93 91.0986" fill="#F2E7E3"/>
<path d="M416.13 187.699C415.11 187.699 414.09 187.309 413.31 186.539C411.42 184.669 367.26 140.338 382.27 108.298C387.49 97.1585 394.55 89.9285 403.25 86.8085C414.5 82.7685 424.24 87.2885 424.65 87.4885C426.65 88.4385 427.49 90.8185 426.55 92.8185C425.6 94.8185 423.21 95.6585 421.22 94.7085C421.19 94.6985 416.16 92.4185 409.85 93.3585C401.47 94.6085 394.64 100.769 389.52 111.689C376.88 138.679 418.53 180.439 418.95 180.849C420.52 182.409 420.53 184.939 418.97 186.509C418.19 187.299 417.16 187.689 416.13 187.689V187.699Z" fill="#202246"/>
<path d="M461.257 154.384C469.25 146.705 463.482 127.73 448.373 112.001C433.264 96.2732 414.535 89.748 406.542 97.427C398.548 105.106 404.317 124.081 419.426 139.809C434.535 155.538 453.263 162.063 461.257 154.384Z" fill="#29191C"/>
<path d="M452.09 159.169C442.38 159.169 429.5 152.529 418.29 140.869C410.82 133.089 405.32 124.269 402.82 116.029C400.21 107.429 401.14 100.419 405.45 96.2686C414.2 87.8686 433.54 94.2786 449.49 110.889C456.96 118.669 462.46 127.489 464.96 135.729C467.57 144.329 466.64 151.339 462.33 155.489C459.73 157.989 456.19 159.179 452.08 159.179L452.09 159.169ZM415.58 95.7686C412.33 95.7686 409.58 96.6486 407.63 98.5286C404.21 101.819 403.57 107.709 405.82 115.119C408.18 122.889 413.42 131.269 420.56 138.699C434.8 153.519 452.94 160.169 460.18 153.219C463.6 149.939 464.24 144.039 461.99 136.629C459.63 128.859 454.39 120.479 447.25 113.049C436.85 102.229 424.38 95.7585 415.59 95.7585L415.58 95.7686Z" fill="#202246"/>
<path d="M435.5 115.739C429.6 121.049 429.11 124.409 432.79 134.409C433.12 135.309 432.24 135.769 431.69 134.989C425.5 126.309 422.46 124.819 414.74 126.689C414.05 126.859 413.41 125.659 413.94 125.179C419.84 119.869 420.33 116.509 416.65 106.509C416.32 105.609 417.2 105.149 417.75 105.929C423.94 114.609 426.98 116.099 434.7 114.229C435.39 114.059 436.03 115.259 435.5 115.739Z" fill="#F8C22A"/>
<path d="M457.6 129.129C453.53 132.789 453.2 135.108 455.73 141.998C455.96 142.618 455.35 142.939 454.97 142.399C450.71 136.409 448.61 135.388 443.29 136.678C442.81 136.798 442.37 135.969 442.74 135.639C446.81 131.979 447.14 129.659 444.61 122.769C444.38 122.149 444.99 121.828 445.37 122.368C449.63 128.358 451.73 129.379 457.05 128.089C457.53 127.969 457.97 128.799 457.6 129.129Z" fill="#F8C22A"/>
<path d="M426.39 115.849C431.554 115.849 435.74 111.662 435.74 106.499C435.74 101.335 431.554 97.1485 426.39 97.1485C421.226 97.1485 417.04 101.335 417.04 106.499C417.04 111.662 421.226 115.849 426.39 115.849Z" fill="#F2E7E3"/>
<path d="M426.39 117.849C420.13 117.849 415.04 112.759 415.04 106.499C415.04 100.239 420.13 95.1485 426.39 95.1485C432.65 95.1485 437.74 100.239 437.74 106.499C437.74 112.759 432.65 117.849 426.39 117.849ZM426.39 99.1385C422.33 99.1385 419.04 102.439 419.04 106.489C419.04 110.539 422.34 113.839 426.39 113.839C430.44 113.839 433.74 110.539 433.74 106.489C433.74 102.439 430.44 99.1385 426.39 99.1385Z" fill="#202246"/>
<path d="M364.39 93.7686C363.76 93.7686 363.13 93.6186 362.53 93.3086C360.58 92.2786 359.82 89.8686 360.85 87.9086C361.7 86.2886 369.43 71.9886 379.63 67.6486C381.66 66.7886 384.01 67.7286 384.88 69.7686C385.74 71.7986 384.8 74.1486 382.76 75.0186C376.33 77.7486 369.88 87.9386 367.93 91.6386C367.21 92.9986 365.82 93.7786 364.39 93.7786V93.7686Z" fill="#202246"/>
<path d="M263.99 119.849C263.66 119.849 263.32 119.809 262.98 119.719C258.94 118.669 247.06 116.579 240.71 119.489C238.7 120.409 236.33 119.529 235.41 117.519C234.49 115.509 235.37 113.139 237.38 112.219C247.46 107.599 263.24 111.519 265 111.989C267.14 112.549 268.42 114.739 267.86 116.869C267.39 118.669 265.77 119.859 263.99 119.859V119.849Z" fill="#202246"/>
<path d="M197.68 233.959C197.68 233.959 236.23 283.089 290.28 263.819C344.33 244.549 345.46 207.879 345.46 207.879" fill="#F2E7E3"/>
<path d="M265.1 270.759C250.65 270.759 236.22 266.569 222.42 258.259C205.82 248.259 196.12 236.019 195.71 235.499L199.64 232.409C199.73 232.529 209.28 244.539 225.14 254.059C246.18 266.679 267.81 269.179 289.44 261.459C316.49 251.809 329.6 237.719 335.83 227.599C342.56 216.669 342.96 207.879 342.96 207.789L347.96 207.949C347.91 209.519 346.14 246.539 291.12 266.159C282.53 269.219 273.81 270.749 265.1 270.749V270.759Z" fill="#202246"/>
<path d="M345.46 207.889C345.46 207.889 314.47 118.319 232.07 161.019C184.68 185.589 197.68 233.959 197.68 233.959" fill="#F2E7E3"/>
<path d="M197.67 237.959C195.91 237.959 194.29 236.789 193.81 234.999C193.67 234.469 190.36 221.869 193.16 206.009C195.76 191.289 204.3 170.909 230.23 157.469C255.31 144.469 278.4 142.019 298.86 150.189C334.26 164.319 348.64 204.859 349.24 206.579C349.96 208.669 348.86 210.949 346.77 211.669C344.68 212.389 342.41 211.289 341.68 209.199C341.55 208.809 327.84 170.339 295.85 157.599C277.65 150.349 256.82 152.699 233.91 164.569C190.04 187.309 201.05 231.079 201.54 232.929C202.1 235.059 200.84 237.249 198.71 237.819C198.36 237.909 198.02 237.959 197.67 237.959Z" fill="#202246"/>
<path d="M326.824 222.405C339.661 210.074 336.46 185.913 319.675 168.44C302.89 150.967 278.877 146.8 266.041 159.131C253.204 171.462 256.405 195.624 273.19 213.096C289.975 230.569 313.988 234.737 326.824 222.405Z" fill="#29191C"/>
<path d="M307.96 231.549C305.75 231.549 303.47 231.349 301.14 230.939C290.58 229.109 280.12 223.269 271.69 214.499C263.27 205.729 257.85 195.049 256.44 184.419C255 173.549 257.9 164.019 264.6 157.589C278.25 144.479 303.63 148.679 321.18 166.949C329.6 175.719 335.02 186.399 336.43 197.029C337.87 207.899 334.97 217.429 328.27 223.859C323.02 228.909 315.96 231.539 307.95 231.539L307.96 231.549ZM284.98 154.089C278.23 154.089 272.08 156.199 267.49 160.609C261.77 166.099 259.32 174.359 260.58 183.879C261.87 193.629 266.89 203.479 274.7 211.609C282.51 219.739 292.15 225.149 301.85 226.829C311.31 228.469 319.66 226.349 325.38 220.859C331.1 215.369 333.55 207.109 332.29 197.589C331 187.839 325.98 177.989 318.17 169.859C308.32 159.599 295.88 154.099 284.98 154.099V154.089Z" fill="#202246"/>
<path d="M300.76 176.229C305.924 176.229 310.11 172.042 310.11 166.879C310.11 161.715 305.924 157.529 300.76 157.529C295.596 157.529 291.41 161.715 291.41 166.879C291.41 172.042 295.596 176.229 300.76 176.229Z" fill="#F2E7E3"/>
<path d="M300.76 178.229C294.5 178.229 289.41 173.139 289.41 166.879C289.41 160.619 294.5 155.529 300.76 155.529C307.02 155.529 312.11 160.619 312.11 166.879C312.11 173.139 307.02 178.229 300.76 178.229ZM300.76 159.519C296.7 159.519 293.41 162.819 293.41 166.869C293.41 170.919 296.71 174.219 300.76 174.219C304.81 174.219 308.11 170.919 308.11 166.869C308.11 162.819 304.81 159.519 300.76 159.519Z" fill="#202246"/>
<path d="M299.22 181.179C293.32 186.489 292.83 189.849 296.51 199.849C296.84 200.749 295.96 201.209 295.41 200.429C289.22 191.749 286.18 190.259 278.46 192.129C277.77 192.299 277.13 191.099 277.66 190.619C283.56 185.309 284.05 181.949 280.37 171.949C280.04 171.049 280.92 170.589 281.47 171.369C287.66 180.049 290.7 181.539 298.42 179.669C299.11 179.499 299.75 180.699 299.22 181.179Z" fill="#F8C22A"/>
<path d="M321.32 194.569C317.25 198.229 316.92 200.549 319.45 207.439C319.68 208.059 319.07 208.379 318.69 207.839C314.43 201.849 312.33 200.829 307.01 202.119C306.53 202.239 306.09 201.409 306.46 201.079C310.53 197.419 310.86 195.099 308.33 188.209C308.1 187.589 308.71 187.269 309.09 187.809C313.35 193.799 315.45 194.819 320.77 193.529C321.25 193.409 321.69 194.239 321.32 194.569Z" fill="#F8C22A"/>
<path d="M245.65 45.2686C245.65 45.2686 270.43 136.899 213.17 185.899C193.89 203.339 193.89 206.369 193.89 206.369C193.89 206.369 196.54 289.779 230.55 311.319L4.47998 311.189C4.47998 311.189 26.46 275.909 26.64 245.099C27.21 149.459 142.45 26.6786 245.63 45.2586L245.65 45.2686Z" fill="#29191C"/>
<path d="M239.19 313.829L0 313.699L2.38 309.879C2.6 309.529 23.99 274.819 24.16 245.099C24.31 219.039 32.82 190.159 48.75 161.569C64.2 133.859 85.51 108.289 110.37 87.6186C131.21 70.2986 153.15 57.5186 175.59 49.6286C199.95 41.0586 223.68 38.7686 246.09 42.7986L247.65 43.0786L248.06 44.6085C248.32 45.5585 254.34 68.2086 253.38 97.2886C252.1 135.999 238.76 167.299 214.8 187.799C199.98 201.209 196.96 205.779 196.42 206.779C196.69 213.099 200.61 289.389 231.9 309.209L239.19 313.829ZM8.86 308.699L223.26 308.819C194.14 281.859 191.5 209.699 191.4 206.449C191.4 203.629 198.16 196.119 211.5 184.049C240.44 159.279 247.53 123.109 248.39 97.1286C249.19 73.0086 244.94 53.0086 243.62 47.4586C202.15 40.5986 156.04 56.1786 113.57 91.4686C63.38 133.179 29.45 194.929 29.16 245.129C29.01 270.669 14.57 298.639 8.87 308.699H8.86Z" fill="#202246"/>
<path d="M242.65 46.1185C260.27 85.2385 352.92 132.379 417.03 86.6586C372.79 47.8286 250.8 24.2985 242.65 46.1185Z" fill="#29191C"/>
<path d="M355.82 107.959C344.11 107.959 331.96 106.309 319.6 102.969C283.92 93.3286 250.6 69.8486 240.37 47.1486L239.95 46.2086L240.31 45.2485C241.76 41.3785 245.74 38.5986 252.15 36.9786C268.19 32.9386 299.27 36.0785 333.25 45.1685C370.1 55.0185 401.24 69.4586 418.69 84.7786L421.06 86.8585L418.49 88.6885C400.61 101.439 379.09 107.959 355.83 107.959H355.82ZM245.42 46.1486C255.64 67.2686 287.11 89.0086 320.9 98.1386C355.1 107.379 387.62 103.219 412.91 86.4486C395.62 72.3886 366.38 59.1985 331.95 49.9885C299.25 41.2385 268.4 38.0385 253.37 41.8185C250.47 42.5485 246.9 43.8686 245.43 46.1386L245.42 46.1486Z" fill="#202246"/>
</svg>
