<svg width="602" height="332" viewBox="0 0 602 332" fill="none" xmlns="http://www.w3.org/2000/svg">
<mask id="path-1-outside-1_229_2304" maskUnits="userSpaceOnUse" x="386.97" y="30.3073" width="98" height="129" fill="black">
<rect fill="white" x="386.97" y="30.3073" width="98" height="129"/>
<path d="M395.97 112.067L437.56 39.3073L476.26 61.4272L425.26 150.647"/>
</mask>
<path d="M395.97 112.067L437.56 39.3073L476.26 61.4272L425.26 150.647" fill="#202246"/>
<path d="M389.025 108.097C386.832 111.933 388.164 116.82 392 119.013C395.836 121.205 400.723 119.873 402.915 116.037L389.025 108.097ZM437.56 39.3073L441.53 32.3617C437.694 30.1693 432.807 31.5014 430.615 35.3372L437.56 39.3073ZM476.26 61.4272L483.205 65.3974C484.258 63.5553 484.536 61.3704 483.978 59.3233C483.42 57.2762 482.072 55.5346 480.23 54.4817L476.26 61.4272ZM418.315 146.677C416.122 150.513 417.454 155.4 421.29 157.593C425.126 159.785 430.013 158.453 432.205 154.617L418.315 146.677ZM402.915 116.037L444.505 43.2773L430.615 35.3372L389.025 108.097L402.915 116.037ZM433.59 46.2528L472.29 68.3727L480.23 54.4817L441.53 32.3617L433.59 46.2528ZM469.315 57.4571L418.315 146.677L432.205 154.617L483.205 65.3974L469.315 57.4571Z" fill="#EE6F7D" mask="url(#path-1-outside-1_229_2304)"/>
<path d="M435.796 32.7529C437.395 32.3251 439.116 32.486 440.629 33.25L440.929 33.4111L440.935 33.4141L479.623 55.5273L479.924 55.709C482.969 57.6474 483.956 61.6544 482.163 64.792H482.162L431.162 154.013C429.977 156.094 427.868 157.278 425.688 157.413C425.546 157.428 425.404 157.437 425.26 157.438C424.095 157.438 422.946 157.136 421.907 156.546V156.547C418.627 154.687 417.516 150.521 419.367 147.282H419.368L467.002 63.9541L440.087 48.5654L401.863 115.433L401.862 115.432C400.012 118.667 395.872 119.817 392.618 117.966L392.617 117.967C389.337 116.107 388.227 111.941 390.078 108.702L431.667 35.9424L431.677 35.9248L431.85 35.6416C432.748 34.248 434.128 33.2159 435.759 32.7627L435.796 32.7529Z" fill="#202246" stroke="#EE6F7D" stroke-width="8" stroke-linecap="round" stroke-linejoin="round"/>
<path d="M448.476 40.0029C450.075 39.575 451.796 39.7361 453.309 40.5L453.609 40.6611L453.615 40.6641L467.133 48.3877L467.435 48.5693C470.479 50.5078 471.466 54.514 469.673 57.6514V57.6523L425.593 134.772L425.592 134.771C424.407 136.852 422.299 138.038 420.119 138.173C419.977 138.188 419.834 138.197 419.69 138.197C418.525 138.197 417.376 137.895 416.337 137.306V137.307C413.058 135.447 411.946 131.282 413.797 128.043V128.042L454.512 56.8135L452.767 55.8145L414.739 122.33L414.74 122.331C412.882 125.606 408.725 126.717 405.488 124.876L405.487 124.877C402.207 123.017 401.097 118.851 402.948 115.612L444.347 43.1924L444.357 43.1748L444.531 42.8916C445.429 41.4981 446.809 40.4658 448.44 40.0127L448.476 40.0029Z" fill="#202246" stroke="#EE6F7D" stroke-width="8" stroke-linecap="round" stroke-linejoin="round"/>
<mask id="path-5-outside-2_229_2304" maskUnits="userSpaceOnUse" x="429.56" y="17.6873" width="56" height="52" fill="black">
<rect fill="white" x="429.56" y="17.6873" width="56" height="52"/>
<path d="M456.95 26.6873L437.56 39.3073L476.26 61.4273L477.3 38.3172"/>
</mask>
<path d="M456.95 26.6873L437.56 39.3073L476.26 61.4273L477.3 38.3172" fill="#202246"/>
<path d="M461.314 33.3922C465.017 30.9821 466.065 26.0264 463.655 22.3233C461.245 18.6203 456.289 17.5722 452.586 19.9823L461.314 33.3922ZM437.56 39.3073L433.196 32.6023C430.859 34.1233 429.483 36.7511 429.563 39.5381C429.644 42.3251 431.17 44.8692 433.59 46.2528L437.56 39.3073ZM476.26 61.4273L472.29 68.3728C474.71 69.7562 477.676 69.7799 480.118 68.4353C482.561 67.0908 484.127 64.5719 484.252 61.7869L476.26 61.4273ZM485.292 38.6769C485.491 34.2631 482.074 30.524 477.66 30.3253C473.246 30.1267 469.507 33.5438 469.308 37.9576L485.292 38.6769ZM452.586 19.9823L433.196 32.6023L441.924 46.0122L461.314 33.3922L452.586 19.9823ZM433.59 46.2528L472.29 68.3728L480.23 54.4818L441.53 32.3618L433.59 46.2528ZM484.252 61.7869L485.292 38.6769L469.308 37.9576L468.268 61.0676L484.252 61.7869Z" fill="#EE6F7D" mask="url(#path-5-outside-2_229_2304)"/>
<path d="M453.534 20.8129C456.528 19.0718 460.385 19.8645 462.433 22.6859L462.632 22.975L462.815 23.2709C464.556 26.265 463.763 30.1218 460.942 32.1703L460.653 32.3695L450.582 38.9242L469.99 50.015L470.535 38.0062V38.0052L470.558 37.6615C470.896 34.1307 473.916 31.3426 477.644 31.5326H477.643C481.373 31.7137 484.266 34.8729 484.096 38.6185L483.056 61.7113L483.057 61.7123C482.959 64.0826 481.621 66.2306 479.54 67.3646L479.541 67.3656C479.539 67.3669 479.536 67.3672 479.534 67.3685C479.53 67.3704 479.527 67.3735 479.524 67.3754L479.523 67.3744C478.655 67.8463 477.685 68.1336 476.676 68.1937C476.538 68.2082 476.399 68.2172 476.26 68.2172C475.107 68.2172 473.95 67.926 472.895 67.3187V67.3197L434.197 45.1996L434.196 45.2006C432.134 44.0222 430.854 41.8552 430.782 39.5111C430.709 37.148 431.874 34.9134 433.85 33.6205L433.857 33.6156L453.238 20.9955L453.534 20.8129Z" fill="#202246" stroke="#EE6F7D" stroke-width="8" stroke-linecap="round" stroke-linejoin="round"/>
<mask id="path-8-outside-3_229_2304" maskUnits="userSpaceOnUse" x="447.99" y="4.55713" width="39" height="42" fill="black">
<rect fill="white" x="447.99" y="4.55713" width="39" height="42"/>
<path d="M477.23 38.3171L478.53 12.5571L456.99 26.7471"/>
</mask>
<path d="M477.23 38.3171L478.53 12.5571L456.99 26.7471" fill="#202246"/>
<path d="M469.24 37.9139C469.017 42.3266 472.414 46.0843 476.827 46.3069C481.239 46.5296 484.997 43.133 485.22 38.7203L469.24 37.9139ZM478.53 12.5571L486.52 12.9603C486.672 9.9492 485.118 7.10837 482.5 5.61199C479.883 4.11562 476.647 4.21787 474.129 5.87649L478.53 12.5571ZM452.589 20.0665C448.899 22.4971 447.879 27.4586 450.309 31.1482C452.74 34.8378 457.701 35.8584 461.391 33.4278L452.589 20.0665ZM485.22 38.7203L486.52 12.9603L470.54 12.1539L469.24 37.9139L485.22 38.7203ZM474.129 5.87649L452.589 20.0665L461.391 33.4278L482.931 19.2378L474.129 5.87649Z" fill="#EE6F7D" mask="url(#path-8-outside-3_229_2304)"/>
<path d="M474.8 6.90759C476.888 5.53113 479.516 5.43494 481.68 6.56189L481.888 6.67517L482.098 6.79822C484.237 8.1096 485.431 10.468 485.315 12.9076V12.9183L484.015 38.6791L484.014 38.6918C483.821 42.2953 480.845 45.1273 477.24 45.1273C477.043 45.1273 476.848 45.1116 476.656 45.0834C473.031 44.7753 470.267 41.6519 470.455 37.9857L471.078 25.6097L460.742 32.4183L460.743 32.4193C457.599 34.5068 453.394 33.6071 451.338 30.5101C449.25 27.3668 450.15 23.1616 453.247 21.1049L453.26 21.097L474.8 6.90662V6.90759Z" fill="#202246" stroke="#EE6F7D" stroke-width="8" stroke-linecap="round" stroke-linejoin="round"/>
<path d="M117.869 16.0554C131.288 6.53193 146.101 5.10464 159.462 8.60132C172.727 12.0729 184.601 20.3898 192.605 30.4822C200.56 40.5124 205.108 52.8695 202.555 64.4021C202.272 65.6828 201.378 66.7435 200.164 67.24C198.95 67.736 197.571 67.6055 196.471 66.8914L196.467 66.8894C196.463 66.8863 196.454 66.8801 196.441 66.8718C196.415 66.8553 196.373 66.8284 196.315 66.7917C196.199 66.7185 196.019 66.6066 195.78 66.4597C195.3 66.1658 194.579 65.7332 193.64 65.196C191.761 64.121 189.013 62.6294 185.584 60.9939C178.711 57.7154 169.18 53.8951 158.465 51.6472C137.401 47.2281 112.35 48.9351 93.312 72.1335L92.4106 73.2546C91.2291 74.7521 89.1543 75.2072 87.4546 74.3416C85.755 73.4758 84.903 71.5302 85.4194 69.6941C93.0285 42.648 104.536 25.5173 117.869 16.0554Z" fill="#202246" stroke="#EE6F7D" stroke-width="8" stroke-linecap="round" stroke-linejoin="round"/>
<path d="M116.739 13.771C129.455 4.87645 144.299 2.19475 159.536 6.02783L159.535 6.02881C173.739 9.59737 186.284 18.3808 194.686 29.0796C202.911 39.5545 207.539 52.3857 205.116 64.3628L204.995 64.9321L204.215 68.4526C203.931 69.7326 203.038 70.7919 201.825 71.2886C200.612 71.7852 199.232 71.6566 198.132 70.9429L195.117 68.9849V68.9858C195.117 68.9859 191.002 66.3373 184.269 63.144C177.505 59.9364 168.195 56.2238 157.824 54.063H157.823C144.139 51.2098 132.091 51.6272 121.629 55.0679C111.192 58.5005 102.081 65.0233 94.3701 74.7935L94.3711 74.7944L86.6104 84.6343C85.8518 85.5959 84.6945 86.1567 83.4697 86.1567H83.46C82.208 86.1567 81.0287 85.5706 80.2725 84.5728C79.5163 83.5749 79.2708 82.281 79.6094 81.0757L82.999 69.0054V69.0034L83.3359 67.8208C90.4716 43.0876 101.365 24.8176 116.135 14.1997L116.739 13.771ZM146.5 17.3794C146.421 17.3841 146.34 17.3872 146.26 17.3872C139.376 17.3872 130.979 19.1545 122.643 25.4536C116.443 30.1383 110.111 37.4572 104.459 48.7593C120.324 39.405 139.425 36.9216 160.61 41.3618L162.242 41.7173C174.434 44.4599 184.952 48.9176 192.121 52.481C190.831 46.7464 187.589 40.6925 182.752 35.1548C176.02 27.4478 166.586 21.2075 156.37 18.6372V18.6382C153.75 17.983 150.366 17.4026 146.5 17.3794Z" fill="#202246" stroke="#EE6F7D" stroke-width="8" stroke-linecap="round" stroke-linejoin="round"/>
<path d="M498.22 165.727L498.395 165.731C499.538 165.781 500.571 166.317 501.276 167.154C501.317 167.198 501.368 167.252 501.427 167.316C501.608 167.513 501.875 167.806 502.222 168.187C502.916 168.95 503.931 170.073 505.22 171.516C507.798 174.403 511.475 178.576 515.884 183.734C524.698 194.046 536.453 208.315 548.192 224.12C559.921 239.909 571.696 257.314 580.51 273.892C589.244 290.321 595.394 306.519 595.189 319.719C595.155 321.904 593.375 323.657 591.19 323.657H531.57C529.696 323.657 528.072 322.356 527.665 320.526L494.368 170.83C494.116 169.951 494.164 168.995 494.545 168.124C495.182 166.668 496.621 165.727 498.21 165.727H498.22Z" fill="#202246" stroke="#EE6F7D" stroke-width="8" stroke-linecap="round" stroke-linejoin="round"/>
<path d="M491.905 157.683C493.506 156.845 495.472 157.185 496.698 158.513L502.989 165.323V165.324L504.7 167.196C510.871 173.989 531.561 197.189 551.821 224.713C563.393 240.435 574.892 257.658 583.467 274.099C591.972 290.406 597.896 306.488 597.69 319.769V319.772L597.65 322.232C597.614 324.428 595.814 326.184 593.617 326.167C593.537 326.166 593.457 326.162 593.377 326.157H529.56C527.686 326.157 526.063 324.856 525.656 323.026L489.856 162.095C489.463 160.331 490.303 158.522 491.905 157.683ZM536.769 313.157H584.219C582.96 304.687 579.215 294.582 573.693 283.553C567.27 270.725 558.636 257.016 549.365 243.75C535.831 224.382 521.049 206.123 510.074 193.159L536.769 313.157Z" fill="#202246" stroke="#EE6F7D" stroke-width="8" stroke-linecap="round" stroke-linejoin="round"/>
<path d="M259.273 48.4338C280.525 41.8184 308.479 43.6778 338.25 52.1467C368.594 60.7786 401.281 76.4034 431.54 97.6702C491.956 140.132 543.429 205.659 546.327 283.909L546.328 284.173C545.929 297.952 543.867 310.093 540.348 320.734C539.806 322.371 538.276 323.476 536.552 323.477L213.233 323.657C212.278 323.658 211.355 323.317 210.63 322.697L213.23 319.657L210.953 322.316C210.651 322.668 210.628 322.692 210.625 322.693C210.623 322.691 210.619 322.687 210.615 322.684C210.607 322.677 210.596 322.667 210.581 322.655C210.552 322.63 210.51 322.594 210.456 322.547C210.348 322.453 210.19 322.316 209.986 322.136C209.576 321.776 208.98 321.246 208.216 320.555C206.689 319.172 204.495 317.143 201.801 314.534C196.415 309.32 189.023 301.783 180.972 292.471C164.911 273.895 146.041 248.043 135.382 219.318C124.701 190.532 122.147 158.482 139.409 128.112C156.599 97.8682 192.982 70.1188 258.266 48.7561L259.273 48.4338Z" fill="#202246" stroke="#EE6F7D" stroke-width="8" stroke-linecap="round" stroke-linejoin="round"/>
<mask id="mask0_229_2304" style="mask-type:luminance" maskUnits="userSpaceOnUse" x="122" y="40" width="429" height="288">
<path d="M259.273 48.4338C280.525 41.8184 308.479 43.6778 338.25 52.1467C368.594 60.7786 401.281 76.4034 431.54 97.6702C491.956 140.132 543.429 205.659 546.327 283.909L546.328 284.173C545.929 297.952 543.867 310.093 540.348 320.734C539.806 322.371 538.276 323.476 536.552 323.477L213.233 323.657C212.278 323.658 211.355 323.317 210.63 322.697L213.23 319.657L210.953 322.316C210.651 322.668 210.628 322.692 210.625 322.693C210.623 322.691 210.619 322.687 210.615 322.684C210.607 322.677 210.596 322.667 210.581 322.655C210.552 322.63 210.51 322.594 210.456 322.547C210.348 322.453 210.19 322.316 209.986 322.136C209.576 321.776 208.98 321.246 208.216 320.555C206.689 319.172 204.495 317.143 201.801 314.534C196.415 309.32 189.023 301.783 180.972 292.471C164.911 273.895 146.041 248.043 135.382 219.318C124.701 190.532 122.147 158.482 139.409 128.112C156.599 97.8682 192.982 70.1188 258.266 48.7561L259.273 48.4338Z" fill="white" stroke="white" stroke-width="8" stroke-linecap="round" stroke-linejoin="round"/>
</mask>
<g mask="url(#mask0_229_2304)">
<path d="M524.213 160.326C538.715 156.653 552.767 156.172 563.835 158.535C574.625 160.838 583.925 166.215 586.258 175.427C588.591 184.64 582.971 193.795 574.577 200.956C565.968 208.301 553.38 214.566 538.878 218.238C524.376 221.91 510.323 222.391 499.255 220.029C488.464 217.726 479.165 212.349 476.832 203.137C474.499 193.924 480.119 184.769 488.513 177.608C497.122 170.263 509.711 163.998 524.213 160.326Z" fill="#202246" stroke="#EE6F7D" stroke-width="8" stroke-linecap="round" stroke-linejoin="round"/>
<path d="M278.149 275.753C292.651 272.081 306.704 271.6 317.772 273.962C328.562 276.265 337.861 281.642 340.194 290.855C342.527 300.067 336.907 309.222 328.514 316.383C319.904 323.728 307.316 329.993 292.814 333.665C278.312 337.338 264.259 337.819 253.191 335.457C242.401 333.153 233.101 327.777 230.768 318.564C228.435 309.351 234.055 300.197 242.449 293.036C251.059 285.69 263.647 279.425 278.149 275.753Z" fill="#202246" stroke="#EE6F7D" stroke-width="8" stroke-linecap="round" stroke-linejoin="round"/>
</g>
<path d="M288.015 56.4584C278.569 56.478 270.065 57.6335 262.719 59.9398L262.005 60.1683H262.004C189.126 84.0166 149.313 117.248 140.721 157.962L140.524 158.925C132.983 196.931 153.824 236.522 173.402 263.635L173.403 263.636L174.281 264.845C191.534 288.473 210.047 306.01 216.276 311.666L530.588 311.489C532.763 303.258 534.034 294.073 534.337 284.09C531.841 219.503 492.39 155.292 425.206 107.896L423.612 106.779C377.886 74.901 326.354 56.4672 288.26 56.4672C288.178 56.4672 288.096 56.4633 288.015 56.4584ZM550.34 284.167L550.338 284.283C549.939 298.061 547.879 310.757 544.146 321.989C543.065 325.247 540.011 327.466 536.562 327.466L536.563 327.467L213.51 327.646C213.421 327.652 213.331 327.658 213.24 327.658C211.355 327.658 209.504 326.988 208.05 325.744V325.745C206.928 324.79 182.952 304.125 160.539 273.131H160.538C130.584 231.706 117.836 191.085 124.826 155.82V155.819L125.059 154.681C135.187 106.579 180.524 69.9906 257.026 44.9554H257.026L258.045 44.6302C279.54 37.9258 307.501 39.3239 338.805 48.1469H338.806L340.286 48.5697C371.396 57.5445 403.33 73.1156 432.768 93.6361L434.445 94.8129C505.254 144.777 547.74 213.447 550.337 283.759L550.34 283.908V284.167Z" fill="#202246" stroke="#EE6F7D" stroke-width="8" stroke-linecap="round" stroke-linejoin="round"/>
<path d="M401.358 197.566C403.168 192.401 408.017 189.546 413.135 188.46C418.335 187.356 424.538 187.859 430.612 189.988C436.686 192.117 441.844 195.598 445.217 199.707C448.536 203.752 450.542 209.01 448.731 214.175C446.92 219.34 442.07 222.195 436.952 223.281C431.752 224.384 425.549 223.882 419.476 221.753C413.402 219.623 408.243 216.143 404.871 212.034C401.551 207.989 399.547 202.732 401.358 197.566Z" fill="#202246" stroke="#EE6F7D" stroke-width="8" stroke-linecap="round" stroke-linejoin="round"/>
<path d="M450.558 255.87H450.561L450.918 255.896C452.677 256.076 454.056 257.03 454.935 257.801C455.957 258.697 456.856 259.833 457.615 261.012C459.135 263.373 460.417 266.423 461.05 269.512C461.664 272.513 461.784 276.158 460.229 279.296C458.546 282.693 455.304 284.713 450.99 285.01L450.569 285.033C445.992 285.227 442.356 283.39 440.032 280.313C437.83 277.399 437.043 273.706 437.19 270.319C437.338 266.922 438.444 263.372 440.601 260.604C442.829 257.747 446.239 255.699 450.558 255.87Z" fill="#202246" stroke="#EE6F7D" stroke-width="8" stroke-linecap="round" stroke-linejoin="round"/>
<path d="M448.955 266.965C448.833 267.112 448.71 267.285 448.593 267.483L448.591 267.487C447.39 269.513 447.449 272.398 448.278 273.793L448.383 273.956C448.644 274.324 449.04 274.589 450.112 274.541H450.119L450.434 274.52C450.633 274.5 450.775 274.473 450.871 274.449C450.886 274.386 450.906 274.302 450.922 274.195V274.188L450.954 273.914C451.073 272.503 450.631 270.519 449.765 268.558C449.5 267.958 449.221 267.419 448.955 266.965ZM463.967 274.177C463.834 277.707 462.704 280.95 460.386 283.413C458.061 285.885 454.895 287.195 451.385 287.48L450.678 287.523C450.622 287.526 450.566 287.527 450.51 287.527C450.468 287.527 450.418 287.529 450.31 287.531C450.219 287.534 450.068 287.537 449.91 287.537C444.531 287.537 439.873 285.062 437.116 280.449L437.117 280.448C433.67 274.681 433.916 266.724 437.413 260.851C440.268 256.047 445.103 253.145 450.662 253.37L450.661 253.371C453.118 253.469 455.157 254.692 456.661 256.035C458.193 257.404 459.485 259.169 460.518 261.014C462.563 264.662 463.974 269.305 463.98 273.461V273.467L463.967 274.177Z" fill="#202246" stroke="#EE6F7D" stroke-width="8" stroke-linecap="round" stroke-linejoin="round"/>
<mask id="path-23-outside-4_229_2304" maskUnits="userSpaceOnUse" x="415.13" y="90.4271" width="88" height="112" fill="black">
<rect fill="white" x="415.13" y="90.4271" width="88" height="112"/>
<path d="M430.94 99.4271C430.94 99.4271 478.94 133.067 494.81 165.567C489.25 197.107 449.29 196.477 424.13 192.027"/>
</mask>
<path d="M430.94 99.4271C430.94 99.4271 478.94 133.067 494.81 165.567C489.25 197.107 449.29 196.477 424.13 192.027" fill="#202246"/>
<path d="M435.531 92.8758C431.913 90.3401 426.924 91.2176 424.389 94.8358C421.853 98.454 422.73 103.443 426.349 105.978L435.531 92.8758ZM494.81 165.567L502.689 166.956C502.982 165.291 502.741 163.576 501.999 162.057L494.81 165.567ZM425.523 184.149C421.173 183.38 417.022 186.283 416.252 190.634C415.483 194.985 418.386 199.135 422.737 199.905L425.523 184.149ZM430.94 99.4271C426.349 105.978 426.348 105.978 426.347 105.977C426.347 105.977 426.347 105.977 426.347 105.977C426.347 105.977 426.348 105.978 426.35 105.979C426.353 105.981 426.359 105.986 426.368 105.992C426.386 106.005 426.415 106.025 426.456 106.054C426.536 106.111 426.661 106.2 426.828 106.319C427.161 106.557 427.661 106.918 428.309 107.392C429.604 108.34 431.487 109.74 433.803 111.526C438.439 115.102 444.782 120.2 451.599 126.28C465.46 138.643 480.412 154.313 487.621 169.077L501.999 162.057C493.339 144.321 476.355 126.921 462.249 114.339C455.082 107.947 448.433 102.604 443.573 98.8562C441.141 96.9803 439.15 95.499 437.758 94.4804C437.062 93.971 436.516 93.577 436.138 93.3068C435.949 93.1717 435.803 93.0675 435.701 92.9953C435.65 92.9592 435.61 92.9311 435.582 92.9112C435.567 92.9012 435.556 92.8933 435.548 92.8874C435.544 92.8844 435.54 92.882 435.537 92.8801C435.536 92.8791 435.535 92.878 435.534 92.8776C435.532 92.8766 435.531 92.8758 430.94 99.4271ZM486.932 164.178C485.852 170.303 483.212 174.531 479.69 177.613C476.045 180.803 471.073 183.085 465.001 184.503C452.716 187.371 437.682 186.3 425.523 184.149L422.737 199.905C435.738 202.204 453.264 203.673 468.639 200.084C476.397 198.273 484.03 195.077 490.227 189.653C496.548 184.122 500.988 176.601 502.689 166.956L486.932 164.178Z" fill="#EE6F7D" mask="url(#path-23-outside-4_229_2304)"/>
<path d="M431.669 93.4366C432.715 93.2536 433.79 93.494 434.659 94.1036C435.718 94.8472 448.036 103.544 462.127 116.201C476.129 128.778 492.299 145.629 500.644 162.711H500.643L500.998 163.428C501.373 164.189 501.496 165.051 501.35 165.887L501.21 166.687L501.209 166.693C498.261 183.395 486.485 194.369 468.298 198.612H468.297C461.706 200.148 454.838 200.73 448.263 200.745C448.169 200.752 448.075 200.757 447.98 200.757C438.717 200.757 429.893 199.642 422.996 198.426C421.95 198.242 421.021 197.65 420.413 196.78C419.804 195.911 419.567 194.835 419.751 193.79L420.622 188.87L420.662 188.669C421.135 186.607 423.147 185.257 425.254 185.628C434.287 187.221 451.161 189.277 465.329 185.962H465.331L465.97 185.809C472.528 184.192 477.505 181.636 481.093 178.326C484.458 175.223 486.766 171.309 487.968 166.473C480.247 151.903 465.643 136.822 452.438 125.059C440.641 114.549 430.293 106.973 427.743 105.136L427.146 104.708C425.374 103.426 424.959 100.959 426.215 99.1691L429.085 95.0792L429.204 94.92C429.812 94.1388 430.69 93.6083 431.669 93.4366Z" fill="#202246" stroke="#EE6F7D" stroke-width="8" stroke-linecap="round" stroke-linejoin="round"/>
<mask id="path-26-outside-5_229_2304" maskUnits="userSpaceOnUse" x="383.158" y="89.463" width="56" height="111" fill="black">
<rect fill="white" x="383.158" y="89.463" width="56" height="111"/>
<path d="M424.13 192.027C424.13 192.027 379.91 148.187 393.89 118.327C407.87 88.4671 430.93 99.4271 430.93 99.4271"/>
</mask>
<path d="M424.13 192.027C424.13 192.027 379.91 148.187 393.89 118.327C407.87 88.4671 430.93 99.4271 430.93 99.4271" fill="#202246"/>
<path d="M418.498 197.708C421.635 200.819 426.701 200.797 429.811 197.66C432.922 194.522 432.9 189.457 429.762 186.346L418.498 197.708ZM427.496 106.653C431.486 108.549 436.259 106.852 438.156 102.861C440.052 98.8708 438.355 94.0983 434.364 92.2017L427.496 106.653ZM424.13 192.027C429.762 186.346 429.764 186.347 429.765 186.348C429.765 186.348 429.766 186.349 429.766 186.349C429.766 186.35 429.766 186.35 429.766 186.349C429.764 186.347 429.76 186.343 429.753 186.336C429.739 186.323 429.715 186.299 429.681 186.265C429.614 186.196 429.506 186.088 429.362 185.94C429.074 185.645 428.641 185.195 428.086 184.605C426.975 183.424 425.385 181.685 423.51 179.501C419.746 175.114 414.911 169.017 410.526 162.093C406.109 155.121 402.348 147.623 400.455 140.41C398.567 133.212 398.694 126.934 401.135 121.719L386.645 114.935C382.096 124.65 382.508 135.05 384.979 144.47C387.446 153.875 392.119 162.935 397.009 170.656C401.931 178.425 407.278 185.154 411.368 189.92C413.421 192.312 415.176 194.232 416.429 195.565C417.056 196.232 417.558 196.753 417.911 197.115C418.088 197.296 418.227 197.437 418.326 197.536C418.375 197.586 418.414 197.625 418.443 197.654C418.458 197.669 418.469 197.68 418.478 197.689C418.483 197.694 418.487 197.698 418.49 197.701C418.492 197.702 418.494 197.704 418.494 197.705C418.496 197.707 418.498 197.708 424.13 192.027ZM401.135 121.719C407.09 109.001 414.164 106.21 418.7 105.611C421.26 105.272 423.576 105.568 425.274 105.968C426.11 106.165 426.757 106.378 427.156 106.525C427.355 106.598 427.488 106.652 427.548 106.678C427.577 106.69 427.589 106.696 427.581 106.692C427.577 106.69 427.568 106.686 427.553 106.68C427.546 106.676 427.538 106.672 427.529 106.668C427.524 106.666 427.519 106.663 427.513 106.661C427.511 106.659 427.506 106.657 427.505 106.657C427.5 106.655 427.496 106.653 430.93 99.4271C434.364 92.2017 434.36 92.1995 434.355 92.1973C434.353 92.1965 434.348 92.1942 434.345 92.1925C434.338 92.1893 434.331 92.1859 434.323 92.1824C434.308 92.1753 434.291 92.1675 434.273 92.1591C434.237 92.1423 434.195 92.1229 434.146 92.1012C434.05 92.0579 433.93 92.0052 433.788 91.9449C433.503 91.8244 433.127 91.6727 432.668 91.5041C431.751 91.1679 430.487 90.7582 428.944 90.3945C425.88 89.6726 421.557 89.0943 416.605 89.7485C406.116 91.1342 394.671 97.7928 386.645 114.935L401.135 121.719Z" fill="#EE6F7D" mask="url(#path-26-outside-5_229_2304)"/>
<path d="M409.898 91.3721C422.505 86.8448 433.361 91.7246 434.366 92.2051L434.367 92.2041C434.369 92.2054 434.372 92.2077 434.375 92.209C434.385 92.2142 434.396 92.2177 434.404 92.2217L434.403 92.2236C438.258 94.0787 439.928 98.5898 438.335 102.474L438.17 102.849C438.168 102.854 438.166 102.858 438.164 102.863C436.279 106.83 431.569 108.511 427.614 106.698C426.496 106.262 422.885 104.98 418.439 105.643L418.44 105.644C411.895 106.62 405.954 111.452 401.142 121.715C398.531 127.292 398.595 133.899 400.583 141.086C402.568 148.268 406.376 155.651 410.706 162.406C415.018 169.136 419.745 175.087 423.434 179.391C425.275 181.538 426.847 183.265 427.967 184.462C428.533 185.066 428.978 185.531 429.282 185.844L429.745 186.314L429.769 186.34L430.054 186.638C432.899 189.766 432.829 194.605 429.816 197.646L429.817 197.647C428.352 199.131 426.453 199.904 424.554 200.004C424.415 200.019 424.274 200.027 424.13 200.027C422.092 200.027 420.052 199.246 418.5 197.714L418.497 197.711C417.465 196.691 405.691 184.877 396.043 169.152C391.219 161.289 386.821 152.281 384.629 143.028C382.433 133.755 382.401 123.995 386.648 114.93L387.171 113.837C392.65 102.648 400.211 94.8475 409.898 91.373V91.3721Z" fill="#202246" stroke="#EE6F7D" stroke-width="8" stroke-linecap="round" stroke-linejoin="round"/>
<path d="M411.771 102.871C417.424 97.4401 426.059 97.6848 434.105 100.488C442.384 103.373 451.36 109.338 459.257 117.559C467.155 125.781 472.755 134.987 475.305 143.376C477.783 151.528 477.682 160.166 472.029 165.597C466.375 171.028 457.739 170.783 449.693 167.98C441.414 165.095 432.439 159.13 424.541 150.909C416.643 142.688 411.043 133.48 408.493 125.091C406.015 116.94 406.118 108.301 411.771 102.871Z" fill="#202246" stroke="#EE6F7D" stroke-width="8" stroke-linecap="round" stroke-linejoin="round"/>
<path d="M410.96 101.448C416.905 95.999 425.647 95.9508 434.03 98.7323C442.701 101.61 452.057 107.784 460.375 116.446V116.447L461.101 117.212C468.537 125.151 474.149 134.198 476.788 142.895L477.041 143.76C479.548 152.681 478.809 161.205 473.104 166.698L473.102 166.7C469.589 170.078 464.964 171.507 460.08 171.507C459.97 171.507 459.862 171.502 459.754 171.493C448.56 171.346 434.866 163.888 423.407 151.97L423.405 151.968C415.852 144.101 410.087 135.08 407.257 126.361L406.993 125.518C404.191 116.285 404.787 107.386 410.675 101.716L410.68 101.712L410.96 101.448ZM423.809 108.089C423.733 108.093 423.656 108.098 423.58 108.098C421.023 108.098 419.397 108.783 418.407 109.737L418.403 109.74C416.646 111.43 415.537 115.337 417.647 122.285L417.855 122.945C420.086 129.8 424.839 137.382 431.444 144.256H431.445L432.082 144.911C438.694 151.617 446.023 156.368 452.372 158.695C459.257 161.219 463.539 160.456 465.41 158.661L465.412 158.66L465.574 158.496C467.228 156.734 468.207 152.855 466.163 146.12L465.955 145.459C463.724 138.604 458.971 131.022 452.366 124.148V124.147C447.432 119.015 442.043 114.954 436.92 112.196C431.849 109.466 427.284 108.142 423.809 108.089Z" fill="#202246" stroke="#EE6F7D" stroke-width="8" stroke-linecap="round" stroke-linejoin="round"/>
<path d="M423.01 110.376C425.564 109.034 427.956 110.463 429.005 111.936L429.007 111.935C432.112 116.288 433.913 118.038 435.41 118.771C436.629 119.369 438.171 119.537 441.743 118.673L442.023 118.612C444.882 118.071 446.597 120.265 447.09 121.191C447.602 122.155 448.493 124.943 446.186 127.032L446.176 127.04C443.439 129.503 442.706 130.874 442.511 132.219C442.286 133.764 442.648 136.036 444.214 140.444L444.544 141.355L444.546 141.36L444.652 141.689C445.136 143.397 444.835 145.935 442.43 147.198C439.875 148.54 437.483 147.111 436.434 145.639V145.64C433.329 141.286 431.526 139.536 430.029 138.803C428.81 138.206 427.268 138.037 423.696 138.9L423.697 138.901C420.67 139.647 418.859 137.339 418.351 136.383C417.839 135.419 416.947 132.632 419.255 130.542L419.264 130.534L419.754 130.085C422.09 127.9 422.746 126.616 422.929 125.355C423.168 123.707 422.742 121.233 420.896 116.219L420.895 116.214C420.274 114.52 420.444 111.724 423.01 110.376ZM421.783 131.133C421.788 131.132 421.793 131.131 421.798 131.13L421.809 131.127C421.8 131.129 421.792 131.131 421.783 131.133ZM443.642 126.444C443.635 126.446 443.627 126.447 443.62 126.448C443.632 126.445 443.645 126.444 443.657 126.441L443.642 126.444Z" fill="#202246" stroke="#EE6F7D" stroke-width="8" stroke-linecap="round" stroke-linejoin="round"/>
<path d="M450.9 126.921C453.375 125.62 455.661 127.017 456.63 128.379L457.018 128.919C458.902 131.503 459.897 132.364 460.57 132.693C460.986 132.897 461.635 133.083 463.679 132.629L464.107 132.529C467.01 131.82 468.72 134.028 469.179 134.897C469.641 135.768 470.505 138.429 468.274 140.431L468.275 140.432C466.456 142.067 466.22 142.764 466.149 143.254C466.034 144.049 466.214 145.488 467.485 148.948H467.484C468.06 150.516 467.921 153.199 465.44 154.503C462.956 155.809 460.661 154.396 459.699 153.029V153.028C457.568 150.035 456.486 149.081 455.77 148.731C455.327 148.514 454.618 148.316 452.233 148.895L452.232 148.894C449.33 149.602 447.62 147.396 447.161 146.527C446.699 145.656 445.835 142.994 448.066 140.992H448.065C449.884 139.357 450.12 138.66 450.191 138.17C450.306 137.375 450.126 135.936 448.855 132.476L448.856 132.475C448.281 130.907 448.42 128.225 450.9 126.921Z" fill="#202246" stroke="#EE6F7D" stroke-width="8" stroke-linecap="round" stroke-linejoin="round"/>
<path d="M434.39 101.477C441.762 101.477 447.74 107.454 447.74 114.827C447.74 122.2 441.763 128.177 434.39 128.177C427.017 128.177 421.04 122.2 421.04 114.827C421.04 107.454 427.017 101.477 434.39 101.477Z" fill="#202246" stroke="#EE6F7D" stroke-width="8" stroke-linecap="round" stroke-linejoin="round"/>
<path d="M434.39 99.4771C442.859 99.4771 449.74 106.358 449.74 114.827C449.74 123.296 442.859 130.177 434.39 130.177C425.921 130.177 419.04 123.296 419.04 114.827C419.04 106.358 425.921 99.4772 434.39 99.4771ZM434.39 111.467C432.543 111.467 431.04 112.973 431.04 114.817C431.04 116.658 432.549 118.167 434.39 118.167C436.231 118.167 437.74 116.658 437.74 114.817C437.74 112.976 436.231 111.467 434.39 111.467Z" fill="#202246" stroke="#EE6F7D" stroke-width="8" stroke-linecap="round" stroke-linejoin="round"/>
<path d="M386.452 72.1431C390.288 70.7417 394.589 72.4636 396.388 76.1528L396.559 76.5278L396.563 76.5366L396.713 76.9185C398.162 80.8829 396.276 85.3438 392.329 87.0269L392.324 87.0288C390.086 87.9789 387.388 90.5175 384.798 93.7798C382.309 96.916 380.341 100.177 379.468 101.833L379.465 101.838C378.076 104.463 375.429 106.009 372.659 106.103L372.39 106.107C372.245 106.107 372.103 106.098 371.962 106.083C370.991 106.031 370.036 105.803 369.133 105.402L368.694 105.191L368.661 105.174C364.777 103.122 363.245 98.3045 365.309 94.3765C365.791 93.4576 368.056 89.2608 371.56 84.6929C374.989 80.2219 379.99 74.8808 386.064 72.2964L386.07 72.2944L386.452 72.1431Z" fill="#202246" stroke="#EE6F7D" stroke-width="8" stroke-linecap="round" stroke-linejoin="round"/>
<path d="M243.715 116.91C249.717 114.16 257.034 114.061 262.649 114.538C268.387 115.026 273.018 116.181 274.032 116.452L274.031 116.453C278.292 117.579 280.851 121.945 279.729 126.214L279.728 126.213C278.784 129.816 275.541 132.188 271.99 132.188C271.854 132.187 271.72 132.179 271.587 132.166C271.063 132.14 270.522 132.062 269.974 131.918V131.919C268.169 131.45 264.435 130.709 260.44 130.438C256.284 130.155 252.588 130.44 250.376 131.453L250.374 131.454C246.484 133.235 241.909 131.64 239.953 127.882L239.773 127.512C237.935 123.496 239.694 118.751 243.715 116.91Z" fill="#202246" stroke="#EE6F7D" stroke-width="8" stroke-linecap="round" stroke-linejoin="round"/>
<mask id="path-37-outside-6_229_2304" maskUnits="userSpaceOnUse" x="196.68" y="208.207" width="165" height="77" fill="black">
<rect fill="white" x="196.68" y="208.207" width="165" height="77"/>
<path d="M205.68 242.287C205.68 242.287 244.23 291.417 298.28 272.147C352.33 252.877 353.46 216.207 353.46 216.207"/>
</mask>
<path d="M205.68 242.287C205.68 242.287 244.23 291.417 298.28 272.147C352.33 252.877 353.46 216.207 353.46 216.207" fill="#202246"/>
<path d="M211.974 237.349C209.246 233.873 204.217 233.266 200.741 235.993C197.266 238.721 196.659 243.75 199.386 247.226L211.974 237.349ZM361.456 216.454C361.592 212.037 358.123 208.347 353.706 208.211C349.29 208.075 345.6 211.545 345.464 215.961L361.456 216.454ZM205.68 242.287C199.386 247.226 199.388 247.228 199.391 247.232C199.392 247.233 199.394 247.236 199.396 247.239C199.4 247.244 199.405 247.25 199.41 247.256C199.421 247.269 199.433 247.285 199.449 247.304C199.479 247.343 199.519 247.392 199.568 247.454C199.667 247.576 199.803 247.743 199.977 247.952C200.324 248.369 200.82 248.952 201.46 249.673C202.739 251.113 204.598 253.107 206.991 255.418C211.763 260.026 218.745 265.973 227.584 271.296C245.299 281.966 270.985 290.372 300.966 279.683L295.593 264.612C271.525 273.193 250.911 266.668 235.839 257.59C228.284 253.04 222.25 247.909 218.105 243.907C216.04 241.914 214.464 240.22 213.424 239.048C212.904 238.463 212.519 238.01 212.275 237.717C212.153 237.57 212.067 237.464 212.016 237.402C211.991 237.37 211.975 237.35 211.968 237.341C211.964 237.336 211.963 237.335 211.964 237.336C211.964 237.337 211.965 237.338 211.967 237.34C211.968 237.341 211.97 237.343 211.97 237.344C211.972 237.346 211.974 237.349 205.68 242.287ZM300.966 279.683C329.612 269.47 344.923 254.349 352.974 241.107C356.959 234.553 359.073 228.613 360.192 224.209C360.752 222.008 361.064 220.188 361.238 218.861C361.325 218.197 361.378 217.656 361.409 217.25C361.425 217.048 361.436 216.879 361.443 216.745C361.447 216.679 361.45 216.621 361.452 216.572C361.453 216.548 361.454 216.526 361.454 216.506C361.455 216.496 361.455 216.487 361.455 216.478C361.455 216.474 361.456 216.468 361.456 216.465C361.456 216.459 361.456 216.454 353.46 216.207C345.464 215.961 345.464 215.955 345.464 215.95C345.464 215.948 345.464 215.943 345.464 215.94C345.465 215.933 345.465 215.927 345.465 215.922C345.465 215.911 345.466 215.902 345.466 215.895C345.467 215.882 345.467 215.877 345.467 215.881C345.466 215.887 345.464 215.927 345.459 215.997C345.448 216.138 345.423 216.403 345.374 216.78C345.275 217.534 345.076 218.729 344.685 220.267C343.904 223.341 342.357 227.772 339.303 232.795C333.277 242.705 320.998 255.554 295.593 264.612L300.966 279.683Z" fill="#EE6F7D" mask="url(#path-37-outside-6_229_2304)"/>
<path d="M351.088 212.119L356.088 212.279C358.227 212.348 359.919 214.083 359.959 216.198L359.958 216.404C359.918 217.655 359.357 228.043 351.561 240.71C343.846 253.244 329.235 267.702 301.78 277.778L300.464 278.255H300.462C291.553 281.429 282.478 283.042 273.39 283.075C273.294 283.082 273.197 283.087 273.1 283.087C257.851 283.087 242.715 278.66 228.356 270.014H228.355C213.315 260.953 203.741 250.128 201.215 247.098L200.569 246.304C199.912 245.47 199.613 244.409 199.738 243.354C199.864 242.3 200.403 241.339 201.237 240.683L205.168 237.593L205.329 237.473C206.149 236.892 207.159 236.64 208.16 236.771C209.228 236.912 210.194 237.476 210.84 238.337L211.229 238.805C213.122 241.051 221.825 250.931 235.196 258.957H235.197C255.293 271.011 275.68 273.306 296.096 266.02L297.314 265.578C322.687 256.249 334.768 243.017 340.424 233.83L340.996 232.879C346.729 223.121 346.96 215.59 346.96 216.117C346.96 215.034 347.399 213.998 348.177 213.244C348.955 212.491 350.005 212.085 351.088 212.119Z" fill="#202246" stroke="#EE6F7D" stroke-width="8" stroke-linecap="round" stroke-linejoin="round"/>
<mask id="path-40-outside-7_229_2304" maskUnits="userSpaceOnUse" x="196.048" y="148.81" width="166" height="102" fill="black">
<rect fill="white" x="196.048" y="148.81" width="166" height="102"/>
<path d="M353.46 216.217C353.46 216.217 322.47 126.647 240.07 169.347C192.68 193.917 205.68 242.287 205.68 242.287"/>
</mask>
<path d="M353.46 216.217C353.46 216.217 322.47 126.647 240.07 169.347C192.68 193.917 205.68 242.287 205.68 242.287" fill="#202246"/>
<path d="M345.9 218.833C347.344 223.008 351.9 225.222 356.076 223.778C360.251 222.333 362.465 217.777 361.02 213.601L345.9 218.833ZM240.07 169.347L236.389 162.244L236.388 162.245L240.07 169.347ZM197.954 244.364C199.101 248.631 203.489 251.16 207.756 250.013C212.023 248.866 214.553 244.478 213.406 240.211L197.954 244.364ZM353.46 216.217C361.02 213.601 361.019 213.598 361.017 213.593C361.017 213.591 361.015 213.587 361.014 213.583C361.011 213.576 361.008 213.567 361.005 213.556C360.997 213.536 360.988 213.51 360.977 213.479C360.955 213.416 360.925 213.332 360.887 213.228C360.811 213.019 360.703 212.728 360.563 212.362C360.283 211.63 359.873 210.596 359.327 209.315C358.236 206.756 356.597 203.194 354.362 199.075C349.92 190.885 342.996 180.251 333.16 170.955C323.287 161.625 310.292 153.477 293.853 150.763C277.359 148.041 258.23 150.926 236.389 162.244L243.751 176.45C263.11 166.418 278.755 164.488 291.247 166.55C303.793 168.621 313.995 174.859 322.17 182.584C330.382 190.344 336.355 199.433 340.298 206.703C342.257 210.315 343.682 213.416 344.608 215.589C345.07 216.673 345.406 217.522 345.62 218.081C345.727 218.361 345.804 218.568 345.85 218.695C345.873 218.759 345.889 218.803 345.897 218.826C345.901 218.838 345.904 218.844 345.904 218.846C345.904 218.846 345.904 218.845 345.903 218.843C345.903 218.842 345.902 218.84 345.902 218.839C345.901 218.836 345.9 218.833 353.46 216.217ZM236.388 162.245C210.121 175.863 200.256 196.452 197.225 213.642C195.733 222.106 195.897 229.673 196.427 235.12C196.693 237.854 197.054 240.085 197.357 241.668C197.509 242.46 197.647 243.093 197.753 243.547C197.806 243.775 197.85 243.958 197.885 244.095C197.902 244.163 197.916 244.22 197.928 244.265C197.934 244.287 197.939 244.307 197.943 244.323C197.946 244.331 197.947 244.339 197.949 244.346C197.95 244.349 197.951 244.354 197.952 244.355C197.953 244.36 197.954 244.364 205.68 242.287C213.406 240.211 213.407 240.215 213.408 240.218C213.408 240.219 213.409 240.222 213.409 240.224C213.41 240.228 213.411 240.231 213.412 240.234C213.413 240.238 213.414 240.24 213.413 240.239C213.413 240.238 213.41 240.225 213.404 240.201C213.392 240.153 213.369 240.062 213.338 239.929C213.277 239.663 213.182 239.232 213.071 238.654C212.848 237.495 212.564 235.756 212.352 233.571C211.925 229.181 211.801 223.119 212.982 216.42C215.299 203.282 222.629 187.401 243.752 176.449L236.388 162.245Z" fill="#EE6F7D" mask="url(#path-40-outside-7_229_2304)"/>
<path d="M237.598 161.626C262.948 148.789 286.857 146.222 308.344 154.802H308.343C327.082 162.282 340.092 176.67 348.426 189.144C355.735 200.085 359.617 209.806 360.715 212.756L361.016 213.589L361.022 213.604C362.456 217.764 360.27 222.333 356.073 223.779C352.03 225.172 347.643 223.149 346.049 219.231L345.904 218.846C345.898 218.828 345.892 218.81 345.886 218.792C345.885 218.794 342.562 209.435 335.376 198.564C328.263 187.803 317.628 175.961 303.066 169.926L302.37 169.643C285.566 162.949 265.978 164.931 243.75 176.448L243.751 176.449C223.057 187.175 215.494 202.669 213.019 215.66C210.823 227.191 212.634 236.855 213.237 239.53L213.407 240.233L213.408 240.24L213.503 240.638C214.338 244.622 212.041 248.636 208.14 249.895L207.744 250.011L207.706 250.021C207.09 250.179 206.412 250.288 205.67 250.288C202.268 250.288 199.114 248.1 198.044 244.697L197.946 244.363C197.945 244.358 197.943 244.354 197.942 244.349C197.737 243.573 194.276 230.324 197.221 213.642V213.641L197.355 212.904C200.274 197.323 209.534 176.166 236.39 162.246L237.598 161.626Z" fill="#202246" stroke="#EE6F7D" stroke-width="8" stroke-linecap="round" stroke-linejoin="round"/>
<path d="M271.27 164.575C278.826 157.317 289.435 155.153 300.061 156.997C310.691 158.842 321.639 164.711 330.56 173.998C339.481 183.284 344.906 194.459 346.323 205.154C347.739 215.846 345.152 226.36 337.596 233.618C330.04 240.877 319.431 243.041 308.804 241.197C298.175 239.352 287.226 233.482 278.305 224.196C269.384 214.91 263.959 203.734 262.542 193.04C261.126 182.347 263.714 171.833 271.27 164.575Z" fill="#202246" stroke="#EE6F7D" stroke-width="8" stroke-linecap="round" stroke-linejoin="round"/>
<path d="M269.83 163.031C277.774 155.402 288.908 153.035 300.08 154.883C310.905 156.674 322.03 162.433 331.185 171.608L332.064 172.506L332.065 172.507L332.894 173.385C341.081 182.225 346.545 192.894 348.238 203.745L348.396 204.831V204.832L348.529 205.943C349.768 217.384 346.588 227.829 339.04 235.073L339.039 235.073C333.026 240.855 325.054 243.793 316.274 243.864C316.17 243.872 316.066 243.877 315.96 243.877C313.512 243.877 311.003 243.655 308.457 243.207V243.208C296.946 241.214 285.744 234.896 276.807 225.599L276.805 225.598C268.158 216.591 262.382 205.572 260.632 194.359L260.475 193.273C258.902 181.398 262.038 170.509 269.83 163.031ZM292.743 166.419C286.932 166.468 281.927 168.3 278.262 171.822L278.26 171.823C273.658 176.24 271.412 183.124 272.545 191.683L272.664 192.507C273.995 201.033 278.503 209.794 285.585 217.166C292.895 224.776 301.793 229.702 310.532 231.216H310.533L311.326 231.344C319.47 232.564 326.149 230.583 330.61 226.301C335.068 222.022 337.315 215.429 336.421 207.24L336.324 206.442C335.162 197.658 330.596 188.568 323.285 180.958L323.284 180.957C314.05 171.339 302.606 166.427 292.979 166.427C292.9 166.427 292.821 166.424 292.743 166.419Z" fill="#202246" stroke="#EE6F7D" stroke-width="8" stroke-linecap="round" stroke-linejoin="round"/>
<path d="M308.76 161.857C316.133 161.857 322.11 167.834 322.11 175.207C322.11 182.58 316.133 188.557 308.76 188.557C301.387 188.557 295.41 182.58 295.41 175.207C295.41 167.834 301.387 161.857 308.76 161.857Z" fill="#202246" stroke="#EE6F7D" stroke-width="8" stroke-linecap="round" stroke-linejoin="round"/>
<path d="M308.76 159.857C317.229 159.857 324.11 166.738 324.11 175.207C324.11 183.676 317.229 190.557 308.76 190.557C300.291 190.557 293.41 183.676 293.41 175.207C293.41 166.738 300.291 159.857 308.76 159.857ZM308.76 171.847C306.913 171.848 305.41 173.353 305.41 175.197C305.41 177.038 306.919 178.547 308.76 178.548C310.6 178.548 312.11 177.038 312.11 175.197C312.11 173.356 310.6 171.847 308.76 171.847Z" fill="#202246" stroke="#EE6F7D" stroke-width="8" stroke-linecap="round" stroke-linejoin="round"/>
<path d="M286.73 175.816C289.284 174.474 291.676 175.903 292.725 177.376L292.727 177.375C295.831 181.728 297.633 183.477 299.13 184.211C300.349 184.808 301.891 184.977 305.463 184.113L305.743 184.052C308.602 183.511 310.317 185.705 310.81 186.632C311.322 187.595 312.213 190.383 309.906 192.472L309.896 192.48C307.159 194.943 306.426 196.314 306.231 197.659C306.006 199.204 306.368 201.476 307.934 205.885L308.264 206.796L308.266 206.801L308.372 207.13C308.856 208.837 308.555 211.375 306.15 212.638C303.595 213.98 301.202 212.551 300.154 211.079V211.08C297.049 206.726 295.246 204.976 293.749 204.243C292.53 203.646 290.988 203.477 287.416 204.341L287.417 204.342C284.39 205.087 282.579 202.78 282.071 201.823C281.559 200.859 280.667 198.072 282.975 195.982L282.984 195.974L283.474 195.525C285.81 193.34 286.466 192.057 286.649 190.796C286.888 189.147 286.462 186.673 284.616 181.659L284.615 181.654C283.994 179.96 284.164 177.164 286.73 175.816ZM285.503 196.573C285.508 196.572 285.513 196.571 285.518 196.57C285.521 196.569 285.525 196.568 285.529 196.567C285.52 196.569 285.512 196.571 285.503 196.573Z" fill="#202246" stroke="#EE6F7D" stroke-width="8" stroke-linecap="round" stroke-linejoin="round"/>
<path d="M314.62 192.361C317.095 191.061 319.381 192.457 320.349 193.819L320.738 194.359C322.622 196.943 323.617 197.805 324.29 198.134C324.706 198.337 325.355 198.523 327.399 198.069L327.827 197.97C330.73 197.26 332.44 199.468 332.899 200.337C333.361 201.208 334.225 203.869 331.994 205.871L331.995 205.872C330.176 207.508 329.94 208.204 329.869 208.694C329.754 209.49 329.934 210.928 331.205 214.389H331.204C331.78 215.956 331.641 218.639 329.16 219.943C326.676 221.249 324.381 219.837 323.419 218.47V218.469C321.288 215.475 320.206 214.521 319.49 214.171C319.047 213.954 318.338 213.757 315.953 214.335L315.952 214.334C313.05 215.043 311.34 212.836 310.881 211.968C310.419 211.096 309.555 208.434 311.786 206.432H311.785C313.604 204.797 313.84 204.1 313.911 203.61C314.026 202.815 313.846 201.377 312.575 197.916L312.576 197.915C312.001 196.347 312.14 193.665 314.62 192.361Z" fill="#202246" stroke="#EE6F7D" stroke-width="8" stroke-linecap="round" stroke-linejoin="round"/>
<path d="M102.878 107.797C144.807 67.3249 200.106 40.4643 253.087 49.4323L254.339 49.65L254.619 49.7115C254.896 49.7822 255.165 49.8821 255.421 50.0104L255.441 50.0201L255.629 50.1207C256.553 50.6466 257.232 51.5216 257.511 52.5533L253.65 53.5973C257.395 52.5844 257.508 52.5552 257.512 52.5563C257.513 52.5574 257.514 52.5599 257.514 52.5621C257.515 52.5667 257.517 52.5733 257.519 52.5807C257.523 52.5954 257.528 52.6157 257.535 52.6412C257.548 52.6929 257.568 52.7669 257.592 52.8619C257.641 53.052 257.712 53.3277 257.799 53.6852C257.975 54.4004 258.221 55.4432 258.511 56.7799C259.093 59.4528 259.853 63.306 260.582 68.0758C262.037 77.6065 263.372 90.8462 262.88 105.67C261.901 135.205 253.632 171.677 223.822 197.221C214.262 205.87 209.617 210.828 207.392 213.54C206.614 214.487 206.17 215.118 205.925 215.498C205.952 216.095 205.996 216.968 206.063 218.085C206.199 220.366 206.432 223.661 206.817 227.686C207.587 235.744 208.964 246.691 211.382 258.278C213.805 269.886 217.248 282.009 222.103 292.479C226.984 303.003 233.113 311.469 240.69 316.268C242.194 317.221 242.888 319.053 242.391 320.762C241.895 322.472 240.328 323.648 238.547 323.647L12.478 323.517C11.0254 323.516 9.68668 322.728 8.98193 321.458C8.27746 320.188 8.3169 318.636 9.08447 317.403C9.08463 317.403 9.08484 317.402 9.08545 317.401C9.08703 317.398 9.09004 317.393 9.09424 317.386C9.10264 317.373 9.11675 317.351 9.13525 317.321C9.17241 317.26 9.22934 317.167 9.30518 317.042C9.45708 316.791 9.68418 316.412 9.9751 315.917C10.557 314.925 11.3954 313.463 12.4048 311.61C14.4251 307.9 17.1228 302.634 19.8247 296.429C25.2705 283.923 30.5549 267.995 30.6401 253.404V253.403L30.6519 252.248C31.3977 203.295 60.9432 148.275 102.878 107.797Z" fill="#202246" stroke="#EE6F7D" stroke-width="8" stroke-linecap="round" stroke-linejoin="round"/>
<path d="M183.431 53.7776C207.951 45.3421 231.982 43.0883 254.796 47.1907L254.797 47.1897L256.356 47.47L256.64 47.5315C258.033 47.8869 259.137 48.9681 259.514 50.3713L259.923 51.9006C260.289 53.2455 266.163 75.5465 265.419 104.365L265.378 105.749C264.071 145.276 250.422 177.726 225.454 199.118C218.121 205.755 213.771 210.149 211.216 212.961C209.938 214.368 209.125 215.359 208.622 216.023C208.571 216.09 208.525 216.154 208.48 216.214C208.773 221.777 210.029 240.42 214.434 260.399C216.86 271.405 220.212 282.677 224.807 292.342C229.426 302.059 235.125 309.778 242.04 314.158H242.041L249.331 318.779C250.835 319.731 251.528 321.563 251.031 323.273C250.535 324.982 248.968 326.158 247.188 326.157L7.99805 326.028C6.54538 326.027 5.20674 325.238 4.50195 323.968C3.7972 322.698 3.83734 321.145 4.60547 319.912L6.98535 316.092L6.99316 316.078L7.23145 315.687C7.3885 315.426 7.62004 315.037 7.91602 314.529C8.50318 313.521 9.33637 312.057 10.334 310.213C12.3308 306.523 14.9767 301.328 17.6191 295.239C22.9471 282.96 28.0798 267.449 28.1602 253.405L28.1738 252.142C28.5908 225.595 37.3338 196.526 53.2559 167.95L53.2568 167.949L53.9961 166.631C69.6276 138.99 90.9755 113.522 115.812 92.8713L115.813 92.8704L117.8 91.2356C138.365 74.4789 160.034 61.9996 182.263 54.1838L183.431 53.7776ZM248.317 59.3284C208.994 53.7871 165.077 68.845 124.126 102.872L124.127 102.873C74.9397 143.75 41.9598 203.848 41.1729 252.337L41.1602 253.481C41.0278 276.012 30.3418 300.04 23.5869 313.031L222.233 313.141C217.399 306.898 213.488 299.511 210.31 291.751C205.836 280.827 202.71 268.909 200.523 257.847C196.697 238.491 195.687 221.449 195.458 216.334L195.402 214.901L195.4 214.778C195.4 212.795 196.447 210.926 197.315 209.597C198.317 208.064 199.731 206.312 201.472 204.373C204.967 200.481 210.111 195.478 216.816 189.411L216.899 189.338C244.578 165.647 251.547 130.864 252.393 105.324L252.451 103.121C252.858 83.3656 249.899 66.7059 248.317 59.3284Z" fill="#202246" stroke="#EE6F7D" stroke-width="8" stroke-linecap="round" stroke-linejoin="round"/>
<path d="M275.037 42.1165C288.728 41.8526 306.453 44.0216 325.151 48.0637C362.394 56.115 404.769 71.8817 427.669 91.9807C428.587 92.7867 429.087 93.9684 429.025 95.1887C428.963 96.4091 428.347 97.5349 427.352 98.2444C393.93 122.079 353.299 121.542 319.159 110.332C302.059 104.717 286.426 96.3829 273.901 86.9045C261.821 77.7632 252.387 67.3706 247.465 57.0852L247.003 56.0901C246.57 55.1288 246.534 54.0348 246.903 53.0471C248.564 48.6001 252.822 46.0296 257.429 44.5286C262.164 42.9859 268.214 42.2479 275.037 42.1165Z" fill="#202246" stroke="#EE6F7D" stroke-width="8" stroke-linecap="round" stroke-linejoin="round"/>
<path d="M259.999 41.2291C268.64 39.2294 280.64 39.1115 294.375 40.4987C308.645 41.9399 325.122 45.0421 342.282 49.6324H342.283C379.391 59.5514 411.212 74.1954 429.329 90.1012H429.328L431.698 92.1803C432.617 92.9866 433.116 94.1694 433.054 95.3903C432.996 96.5349 432.451 97.5959 431.562 98.3082L431.381 98.4459L428.811 100.273L428.812 100.274C410.199 113.547 387.851 120.287 363.83 120.287H363.82C352.112 120.287 340.014 118.69 327.744 115.475L326.556 115.159C308.257 110.215 290.582 101.731 276.137 91.5543C261.76 81.424 250.246 69.3741 244.723 57.1207L244.718 57.109L244.298 56.1686C243.869 55.2083 243.836 54.1173 244.205 53.1324L244.564 52.1725C246.699 46.4763 252.269 43.1734 259.17 41.4293L259.173 41.4283L259.999 41.2291ZM293.62 53.5123C280.07 52.1045 269.166 52.3098 262.345 54.025L262.346 54.026C261.044 54.3539 259.719 54.7851 258.624 55.3219C258.56 55.3529 258.5 55.3851 258.44 55.4156C263.542 64.3013 272.726 73.4955 284.592 81.6754C297.592 90.6375 313.492 98.1611 329.943 102.606L331.503 103.017C362.039 110.906 390.82 107.727 413.869 94.4313C396.798 82.1386 370.177 70.5434 338.917 62.1813H338.916C322.739 57.8526 307.06 54.9088 293.62 53.5123Z" fill="#202246" stroke="#EE6F7D" stroke-width="8" stroke-linecap="round" stroke-linejoin="round"/>
<path d="M395.97 112.067L437.56 39.3073L476.26 61.4272L425.26 150.647" fill="#F8C22A"/>
<path d="M425.26 153.437C424.79 153.437 424.32 153.317 423.88 153.067C422.54 152.307 422.08 150.597 422.84 149.267L472.46 62.4672L438.6 43.1072L398.39 113.447C397.63 114.777 395.92 115.247 394.59 114.487C393.25 113.727 392.79 112.017 393.55 110.687L435.14 37.9272C435.51 37.2872 436.11 36.8172 436.83 36.6172C437.54 36.4272 438.3 36.5172 438.95 36.8872L477.65 59.0072C478.99 59.7672 479.45 61.4772 478.69 62.8072L427.69 152.027C427.18 152.927 426.24 153.427 425.27 153.427L425.26 153.437Z" fill="#202246"/>
<path d="M419.69 134.197C419.22 134.197 418.75 134.077 418.31 133.827C416.97 133.067 416.51 131.357 417.27 130.027L459.97 55.3272L451.28 50.3572L411.26 120.357C410.5 121.697 408.79 122.157 407.46 121.397C406.12 120.637 405.66 118.927 406.42 117.597L447.82 45.1772C448.19 44.5372 448.79 44.0672 449.51 43.8672C450.22 43.6772 450.98 43.7672 451.63 44.1372L465.16 51.8672C466.5 52.6272 466.96 54.3372 466.2 55.6672L422.12 132.787C421.61 133.687 420.67 134.187 419.7 134.187L419.69 134.197Z" fill="#202246"/>
<path d="M456.95 26.6873L437.56 39.3073L476.26 61.4273L477.3 38.3172" fill="#FEF0E1"/>
<path d="M476.26 64.2172C475.78 64.2172 475.31 64.0972 474.88 63.8472L436.18 41.7272C435.34 41.2472 434.81 40.3572 434.78 39.3872C434.75 38.4172 435.23 37.4972 436.04 36.9672L455.42 24.3472C456.71 23.5072 458.44 23.8672 459.28 25.1572C460.12 26.4472 459.76 28.1772 458.47 29.0172L442.91 39.1472L473.69 56.7373L474.53 38.1872C474.6 36.6472 475.87 35.4472 477.44 35.5272C478.98 35.5972 480.17 36.8972 480.1 38.4372L479.06 61.5473C479.02 62.5173 478.47 63.3973 477.62 63.8573C477.2 64.0872 476.74 64.2072 476.28 64.2072L476.26 64.2172Z" fill="#202246"/>
<path d="M477.23 38.3171L478.53 12.5571L456.99 26.7471" fill="#EE6F7D"/>
<path d="M477.23 41.1072C477.23 41.1072 477.14 41.1072 477.09 41.1072C475.55 41.0272 474.37 39.7171 474.45 38.1871L475.47 17.9272L458.53 29.0872C457.25 29.9372 455.52 29.5772 454.67 28.2972C453.82 27.0172 454.18 25.2872 455.46 24.4372L477 10.2472C477.88 9.66718 479 9.63718 479.92 10.1572C480.84 10.6772 481.37 11.6672 481.32 12.7172L480.02 38.4772C479.94 39.9672 478.71 41.1272 477.24 41.1272L477.23 41.1072Z" fill="#202246"/>
<path d="M198.65 63.5372C207.46 23.7372 119.1 -35.2529 89.27 70.7771C130.14 18.9771 198.65 63.5372 198.65 63.5372Z" fill="#29191C"/>
<path d="M83.46 82.1572L86.85 70.0872C93.85 45.2072 104.49 27.4972 118.47 17.4472C130.35 8.90717 144.21 6.29717 158.56 9.90717C185.11 16.5772 205.78 42.8971 201.09 64.0671L200.31 67.5872L197.29 65.6271C197.12 65.5171 180.19 54.6372 158.64 50.1472C130.2 44.2172 107.52 51.6771 91.2299 72.3171L83.47 82.1572H83.46ZM146.26 13.3871C131.05 13.3871 109.13 21.2572 95.05 60.7772C111.77 45.2072 133.93 39.8572 159.79 45.2772C176.73 48.8272 190.61 55.9671 196.7 59.4471C197.83 41.6571 179.53 20.3372 157.34 14.7572C154.42 14.0272 150.62 13.3772 146.26 13.3772V13.3871Z" fill="#202246"/>
<path d="M498.21 169.727C498.21 169.727 591.94 271.157 591.19 319.657H531.57L498.22 169.727H498.21Z" fill="#29191C"/>
<path d="M593.65 322.157H529.56L493.76 161.227L500.05 168.037C503.9 172.207 594.45 270.767 593.69 319.707L593.65 322.167V322.157ZM533.57 317.157H588.64C586.66 276.837 523.27 201.827 502.72 178.517L533.56 317.157H533.57Z" fill="#202246"/>
<path d="M259.51 52.5573C340.7 25.9873 536.66 130.987 542.33 284.057C541.94 297.507 539.93 309.257 536.55 319.477L213.23 319.657C213.23 319.657 0.210114 137.407 259.51 52.5573Z" fill="#FAD6CE"/>
<mask id="mask1_229_2304" style="mask-type:luminance" maskUnits="userSpaceOnUse" x="130" y="48" width="413" height="272">
<path d="M259.51 52.5573C340.7 25.9873 536.66 130.987 542.33 284.057C541.94 297.507 539.93 309.257 536.55 319.477L213.23 319.657C213.23 319.657 0.210114 137.407 259.51 52.5573Z" fill="white"/>
</mask>
<g mask="url(#mask1_229_2304)">
<path d="M537.895 214.36C565.971 207.251 585.888 190.259 582.38 176.409C578.873 162.559 553.27 157.094 525.194 164.203C497.119 171.313 477.202 188.304 480.709 202.155C484.217 216.005 509.82 221.47 537.895 214.36Z" fill="#F5B0B3"/>
<path d="M291.832 329.788C319.907 322.678 339.824 305.687 336.317 291.836C332.809 277.986 307.206 272.521 279.131 279.631C251.055 286.74 231.138 303.732 234.646 317.582C238.153 331.432 263.756 336.897 291.832 329.788Z" fill="#F5B0B3"/>
</g>
<path d="M213.24 323.657C212.29 323.657 211.36 323.317 210.64 322.697C209.64 321.847 185.93 301.417 163.78 270.787C134.17 229.837 122.06 190.347 128.75 156.597C137.96 110.147 181.54 73.8671 258.27 48.7571C278.85 42.0271 306.32 43.1471 337.72 51.9971C368.82 60.7671 400.9 76.2972 430.48 96.9172C501.55 146.457 543.78 214.607 546.34 283.907C546.34 283.997 546.34 284.087 546.34 284.167C545.95 297.627 543.94 309.927 540.35 320.727C539.81 322.357 538.28 323.467 536.56 323.467L213.24 323.647V323.657ZM288.26 52.4572C278.09 52.4572 268.82 53.7272 260.76 56.3672C186.99 80.5072 145.21 114.747 136.6 158.147C128.71 197.917 150.49 238.737 170.16 265.977C189.11 292.227 209.82 311.277 214.74 315.667L533.62 315.487C536.41 306.127 538 295.577 538.34 284.087C535.82 217.367 494.84 151.547 425.9 103.497C379.74 71.3171 327.42 52.4672 288.26 52.4672V52.4572Z" fill="#202246"/>
<path d="M444.956 212.851C447.3 206.165 440.286 197.618 429.289 193.763C418.292 189.908 407.477 192.203 405.132 198.89C402.788 205.577 409.802 214.123 420.799 217.978C431.796 221.834 442.612 219.538 444.956 212.851Z" fill="#F5B0B3"/>
<path d="M450.4 259.867C439.06 259.417 437.17 281.597 450.4 281.037C463.63 280.477 455.12 260.057 450.4 259.867Z" fill="#F2E7E3"/>
<path d="M449.91 283.537C445.85 283.537 442.54 281.727 440.55 278.397C437.92 273.997 438.04 267.617 440.85 262.897C443.03 259.227 446.55 257.207 450.5 257.367C455.28 257.557 459.97 266.747 459.98 273.467C459.98 279.517 456.45 283.277 450.51 283.527C450.31 283.527 450.11 283.537 449.91 283.537ZM450.06 262.357C447.52 262.357 445.99 264.027 445.15 265.447C443.3 268.567 443.17 273.027 444.84 275.837C445.97 277.737 447.82 278.647 450.29 278.537C453.1 278.417 454.52 277.257 454.88 274.767C455.61 269.777 451.83 263.027 450.2 262.357C450.15 262.357 450.11 262.357 450.06 262.357Z" fill="#202246"/>
<path d="M430.94 99.4271C430.94 99.4271 478.94 133.067 494.81 165.567C489.25 197.107 449.29 196.477 424.13 192.027" fill="#F2E7E3"/>
<path d="M447.98 196.757C439.02 196.757 430.44 195.677 423.69 194.487L424.56 189.567C433.69 191.177 451.24 193.367 466.24 189.857C480.97 186.417 489.7 178.367 492.19 165.927C476.41 134.587 429.96 101.807 429.49 101.467L432.36 97.3771C434.34 98.7671 481.07 131.757 497.05 164.467L497.41 165.197L497.27 165.997C494.65 180.837 484.32 190.767 467.39 194.717C461.08 196.187 454.43 196.747 447.99 196.747L447.98 196.757Z" fill="#202246"/>
<path d="M424.13 192.027C424.13 192.027 379.91 148.187 393.89 118.327C407.87 88.4671 430.93 99.4271 430.93 99.4271" fill="#F2E7E3"/>
<path d="M424.13 196.027C423.11 196.027 422.09 195.637 421.31 194.867C419.42 192.997 375.26 148.667 390.27 116.627C395.49 105.487 402.55 98.2571 411.25 95.1371C422.5 91.0971 432.24 95.6171 432.65 95.8171C434.65 96.7671 435.49 99.1471 434.55 101.147C433.6 103.147 431.21 103.987 429.22 103.037C429.19 103.027 424.16 100.747 417.85 101.687C409.47 102.937 402.64 109.097 397.52 120.017C384.88 147.007 426.53 188.767 426.95 189.177C428.52 190.737 428.53 193.267 426.97 194.837C426.19 195.627 425.16 196.017 424.13 196.017V196.027Z" fill="#202246"/>
<path d="M469.257 162.712C477.25 155.033 471.482 136.058 456.373 120.33C441.264 104.602 422.535 98.0765 414.542 105.755C406.548 113.434 412.317 132.41 427.426 148.138C442.535 163.866 461.263 170.391 469.257 162.712Z" fill="#29191C"/>
<path d="M460.09 167.497C450.38 167.497 437.5 160.857 426.29 149.197C418.82 141.417 413.32 132.597 410.82 124.357C408.21 115.757 409.14 108.747 413.45 104.597C422.2 96.1971 441.54 102.607 457.49 119.217C464.96 126.997 470.46 135.817 472.96 144.057C475.57 152.657 474.64 159.667 470.33 163.817C467.73 166.317 464.19 167.507 460.08 167.507L460.09 167.497ZM423.58 104.097C420.33 104.097 417.58 104.977 415.63 106.857C412.21 110.147 411.57 116.037 413.82 123.447C416.18 131.217 421.42 139.597 428.56 147.027C442.8 161.847 460.94 168.497 468.18 161.547C471.6 158.267 472.24 152.367 469.99 144.957C467.63 137.187 462.39 128.807 455.25 121.377C444.85 110.557 432.38 104.087 423.59 104.087L423.58 104.097Z" fill="#202246"/>
<path d="M443.5 124.067C437.6 129.377 437.11 132.737 440.79 142.737C441.12 143.637 440.24 144.097 439.69 143.317C433.5 134.637 430.46 133.147 422.74 135.017C422.05 135.187 421.41 133.987 421.94 133.507C427.84 128.197 428.33 124.837 424.65 114.837C424.32 113.937 425.2 113.477 425.75 114.257C431.94 122.937 434.98 124.427 442.7 122.557C443.39 122.387 444.03 123.587 443.5 124.067Z" fill="#F8C22A"/>
<path d="M465.6 137.457C461.53 141.117 461.2 143.437 463.73 150.327C463.96 150.947 463.35 151.267 462.97 150.727C458.71 144.737 456.61 143.717 451.29 145.007C450.81 145.127 450.37 144.297 450.74 143.967C454.81 140.307 455.14 137.987 452.61 131.097C452.38 130.477 452.99 130.157 453.37 130.697C457.63 136.687 459.73 137.707 465.05 136.417C465.53 136.297 465.97 137.127 465.6 137.457Z" fill="#F8C22A"/>
<path d="M434.39 124.177C439.554 124.177 443.74 119.991 443.74 114.827C443.74 109.663 439.554 105.477 434.39 105.477C429.226 105.477 425.04 109.663 425.04 114.827C425.04 119.991 429.226 124.177 434.39 124.177Z" fill="#F2E7E3"/>
<path d="M434.39 126.177C428.13 126.177 423.04 121.087 423.04 114.827C423.04 108.567 428.13 103.477 434.39 103.477C440.65 103.477 445.74 108.567 445.74 114.827C445.74 121.087 440.65 126.177 434.39 126.177ZM434.39 107.467C430.33 107.467 427.04 110.767 427.04 114.817C427.04 118.867 430.34 122.167 434.39 122.167C438.44 122.167 441.74 118.867 441.74 114.817C441.74 110.767 438.44 107.467 434.39 107.467Z" fill="#202246"/>
<path d="M372.39 102.097C371.76 102.097 371.13 101.947 370.53 101.637C368.58 100.607 367.82 98.1971 368.85 96.2371C369.7 94.6171 377.43 80.3171 387.63 75.9771C389.66 75.1171 392.01 76.0571 392.88 78.0971C393.74 80.1271 392.8 82.4771 390.76 83.3471C384.33 86.0771 377.88 96.2671 375.93 99.9671C375.21 101.327 373.82 102.107 372.39 102.107V102.097Z" fill="#202246"/>
<path d="M271.99 128.177C271.66 128.177 271.32 128.137 270.98 128.047C266.94 126.997 255.06 124.907 248.71 127.817C246.7 128.737 244.33 127.857 243.41 125.847C242.49 123.837 243.37 121.467 245.38 120.547C255.46 115.927 271.24 119.847 273 120.317C275.14 120.877 276.42 123.067 275.86 125.197C275.39 126.997 273.77 128.187 271.99 128.187V128.177Z" fill="#202246"/>
<path d="M205.68 242.287C205.68 242.287 244.23 291.417 298.28 272.147C352.33 252.877 353.46 216.207 353.46 216.207" fill="#F2E7E3"/>
<path d="M273.1 279.087C258.65 279.087 244.22 274.897 230.42 266.587C213.82 256.587 204.12 244.347 203.71 243.827L207.64 240.737C207.73 240.857 217.28 252.867 233.14 262.387C254.18 275.007 275.81 277.507 297.44 269.787C324.49 260.137 337.6 246.047 343.83 235.927C350.56 224.997 350.96 216.207 350.96 216.117L355.96 216.277C355.91 217.847 354.14 254.867 299.12 274.487C290.53 277.547 281.81 279.077 273.1 279.077V279.087Z" fill="#202246"/>
<path d="M353.46 216.217C353.46 216.217 322.47 126.647 240.07 169.347C192.68 193.917 205.68 242.287 205.68 242.287" fill="#F2E7E3"/>
<path d="M205.67 246.287C203.91 246.287 202.29 245.117 201.81 243.327C201.67 242.797 198.36 230.197 201.16 214.337C203.76 199.617 212.3 179.237 238.23 165.797C263.31 152.797 286.4 150.347 306.86 158.517C342.26 172.647 356.64 213.187 357.24 214.907C357.96 216.997 356.86 219.277 354.77 219.997C352.68 220.717 350.41 219.617 349.68 217.527C349.55 217.137 335.84 178.667 303.85 165.927C285.65 158.677 264.82 161.027 241.91 172.897C198.04 195.637 209.05 239.407 209.54 241.257C210.1 243.387 208.84 245.577 206.71 246.147C206.36 246.237 206.02 246.287 205.67 246.287Z" fill="#202246"/>
<path d="M334.824 230.734C347.661 218.402 344.46 194.241 327.675 176.769C310.89 159.296 286.877 155.128 274.041 167.46C261.204 179.791 264.405 203.952 281.19 221.425C297.975 238.898 321.988 243.065 334.824 230.734Z" fill="#29191C"/>
<path d="M315.96 239.877C313.75 239.877 311.47 239.677 309.14 239.267C298.58 237.437 288.12 231.597 279.69 222.827C271.27 214.057 265.85 203.377 264.44 192.747C263 181.877 265.9 172.347 272.6 165.917C286.25 152.807 311.63 157.007 329.18 175.277C337.6 184.047 343.02 194.727 344.43 205.357C345.87 216.227 342.97 225.757 336.27 232.187C331.02 237.237 323.96 239.867 315.95 239.867L315.96 239.877ZM292.98 162.417C286.23 162.417 280.08 164.527 275.49 168.937C269.77 174.427 267.32 182.687 268.58 192.207C269.87 201.957 274.89 211.807 282.7 219.937C290.51 228.067 300.15 233.477 309.85 235.157C319.31 236.797 327.66 234.677 333.38 229.187C339.1 223.697 341.55 215.437 340.29 205.917C339 196.167 333.98 186.317 326.17 178.187C316.32 167.927 303.88 162.427 292.98 162.427V162.417Z" fill="#202246"/>
<path d="M308.76 184.557C313.924 184.557 318.11 180.371 318.11 175.207C318.11 170.043 313.924 165.857 308.76 165.857C303.596 165.857 299.41 170.043 299.41 175.207C299.41 180.371 303.596 184.557 308.76 184.557Z" fill="#F2E7E3"/>
<path d="M308.76 186.557C302.5 186.557 297.41 181.467 297.41 175.207C297.41 168.947 302.5 163.857 308.76 163.857C315.02 163.857 320.11 168.947 320.11 175.207C320.11 181.467 315.02 186.557 308.76 186.557ZM308.76 167.847C304.7 167.847 301.41 171.147 301.41 175.197C301.41 179.247 304.71 182.547 308.76 182.547C312.81 182.547 316.11 179.247 316.11 175.197C316.11 171.147 312.81 167.847 308.76 167.847Z" fill="#202246"/>
<path d="M307.22 189.507C301.32 194.817 300.83 198.177 304.51 208.177C304.84 209.077 303.96 209.537 303.41 208.757C297.22 200.077 294.18 198.587 286.46 200.457C285.77 200.627 285.13 199.427 285.66 198.947C291.56 193.637 292.05 190.277 288.37 180.277C288.04 179.377 288.92 178.917 289.47 179.697C295.66 188.377 298.7 189.867 306.42 187.997C307.11 187.827 307.75 189.027 307.22 189.507Z" fill="#F8C22A"/>
<path d="M329.32 202.897C325.25 206.557 324.92 208.877 327.45 215.767C327.68 216.387 327.07 216.707 326.69 216.167C322.43 210.177 320.33 209.157 315.01 210.447C314.53 210.567 314.09 209.737 314.46 209.407C318.53 205.747 318.86 203.427 316.33 196.537C316.1 195.917 316.71 195.597 317.09 196.137C321.35 202.127 323.45 203.147 328.77 201.857C329.25 201.737 329.69 202.567 329.32 202.897Z" fill="#F8C22A"/>
<path d="M253.65 53.5972C253.65 53.5972 278.43 145.227 221.17 194.227C201.89 211.667 201.89 214.697 201.89 214.697C201.89 214.697 204.54 298.107 238.55 319.647L12.48 319.517C12.48 319.517 34.46 284.237 34.64 253.427C35.21 157.787 150.45 35.0072 253.63 53.5872L253.65 53.5972Z" fill="#29191C"/>
<path d="M247.19 322.157L8 322.027L10.38 318.207C10.6 317.857 31.99 283.147 32.16 253.427C32.31 227.367 40.82 198.487 56.75 169.897C72.2 142.187 93.51 116.617 118.37 95.9471C139.21 78.6271 161.15 65.8471 183.59 57.9571C207.95 49.3871 231.68 47.0971 254.09 51.1271L255.65 51.4071L256.06 52.9371C256.32 53.8871 262.34 76.5372 261.38 105.617C260.1 144.327 246.76 175.627 222.8 196.127C207.98 209.537 204.96 214.107 204.42 215.107C204.69 221.427 208.61 297.717 239.9 317.537L247.19 322.157ZM16.86 317.027L231.26 317.147C202.14 290.187 199.5 218.027 199.4 214.777C199.4 211.957 206.16 204.447 219.5 192.377C248.44 167.607 255.53 131.437 256.39 105.457C257.19 81.3371 252.94 61.3371 251.62 55.7871C210.15 48.9271 164.04 64.5071 121.57 99.7971C71.38 141.507 37.45 203.257 37.16 253.457C37.01 278.997 22.57 306.967 16.87 317.027H16.86Z" fill="#202246"/>
<path d="M250.65 54.4472C268.27 93.5672 360.92 140.707 425.03 94.9872C380.79 56.1572 258.8 32.6272 250.65 54.4472Z" fill="#29191C"/>
<path d="M363.82 116.287C352.11 116.287 339.96 114.637 327.6 111.297C291.92 101.657 258.6 78.1772 248.37 55.4772L247.95 54.5372L248.31 53.5772C249.76 49.7072 253.74 46.9272 260.15 45.3072C276.19 41.2672 307.27 44.4071 341.25 53.4971C378.1 63.3471 409.24 77.7872 426.69 93.1072L429.06 95.1871L426.49 97.0172C408.61 109.767 387.09 116.287 363.83 116.287H363.82ZM253.42 54.4772C263.64 75.5972 295.11 97.3372 328.9 106.467C363.1 115.707 395.62 111.547 420.91 94.7772C403.62 80.7172 374.38 67.5271 339.95 58.3171C307.25 49.5671 276.4 46.3672 261.37 50.1472C258.47 50.8772 254.9 52.1972 253.43 54.4672L253.42 54.4772Z" fill="#202246"/>
</svg>
