<svg width="186" height="187" viewBox="0 0 186 187" fill="none" xmlns="http://www.w3.org/2000/svg">
<path d="M17.5981 16.0504L23.7781 10.9804C25.6981 9.40036 28.6081 9.77037 30.3081 11.8004L122.328 121.49C124.058 123.55 123.878 126.55 121.918 128.15L114.508 134.23C112.568 135.82 109.628 135.43 107.938 133.37L17.1481 22.6704C15.4581 20.6104 15.6581 17.6504 17.5881 16.0604L17.5981 16.0504Z" fill="#202246"/>
<mask id="mask0_229_1976" style="mask-type:luminance" maskUnits="userSpaceOnUse" x="107" y="123" width="64" height="54">
<path d="M123.818 124.3C153.638 116.45 155.158 146.86 159.118 155.57C162.208 162.36 166.848 161.86 170.168 160.27C170.618 160.06 171.008 160.63 170.648 160.96C162.618 168.24 142.418 183.45 123.598 172.57C99.4081 158.59 104.988 129.25 123.818 124.29V124.3Z" fill="white"/>
</mask>
<g mask="url(#mask0_229_1976)">
<path d="M123.818 124.3C153.638 116.45 155.158 146.86 159.118 155.57C162.208 162.36 166.848 161.86 170.168 160.27C170.618 160.06 171.008 160.63 170.648 160.96C162.618 168.24 142.418 183.45 123.598 172.57C99.4081 158.59 104.988 129.25 123.818 124.29V124.3Z" fill="#FEF0E1"/>
<path d="M123.798 174.08C123.798 174.08 121.558 169.15 125.698 165.07C129.838 160.99 134.728 163.28 134.728 163.28C134.728 163.28 132.488 158.35 136.628 154.27C140.768 150.18 145.658 152.48 145.658 152.48C145.658 152.48 143.418 147.55 147.558 143.47C151.698 139.38 156.588 141.68 156.588 141.68C156.588 141.68 188.438 170.6 174.598 185.67C160.748 200.75 123.808 174.07 123.808 174.07L123.798 174.08Z" fill="#EE6F7D"/>
</g>
</svg>
