<svg width="1440" height="368" viewBox="0 0 1440 368" fill="none" xmlns="http://www.w3.org/2000/svg">
<path d="M0.187012 213.5C61.7984 255.167 165.591 342 367.862 342C593.078 342 731.054 213.5 1035.96 213.5C1279.88 213.5 1440 342 1440 342H367.862H0.187012V213.5Z" fill="#FEF0E1"/>
<g clip-path="url(#clip0_1042_2925)">
<path d="M373.855 125.21C373.855 125.21 344.159 158.09 341.899 186.07C339.64 214.05 344.729 245.24 335.1 264.51C325.461 283.79 303.924 296.82 297.685 308.73C291.446 320.64 279.547 335.94 265.379 338.21C251.211 340.48 682.525 338.21 682.525 338.21C682.525 338.21 724.989 19.3 467.693 65.37C417.159 75.09 373.865 125.2 373.865 125.2L373.855 125.21Z" fill="#29191C"/>
<path d="M367.226 341.72C353.588 341.72 341.279 341.71 330.331 341.68C309.753 341.63 293.825 341.54 282.987 341.41C277.148 341.34 272.668 341.25 269.669 341.16C264.349 340.99 262.739 340.94 262.54 338.52C262.54 338.42 262.38 336.16 264.979 335.74C277.648 333.71 289.036 319.86 295.475 307.57C298.375 302.04 304.004 296.62 310.523 290.35C318.532 282.64 327.611 273.91 332.87 263.39C339.02 251.09 338.9 233.37 338.78 214.62C338.72 205.13 338.65 195.31 339.42 185.86C341.719 157.48 370.525 125.18 371.995 123.54C374.035 121.18 416.59 72.65 467.223 62.91C534.944 50.78 588.227 62.77 625.622 98.53C667.557 138.64 681.465 201.82 685.745 247.77C690.364 297.37 685.065 338.13 685.015 338.54L684.725 340.7H682.545C681.505 340.72 577.019 341.26 473.862 341.55C432.427 341.66 396.742 341.72 367.246 341.72H367.226ZM277.068 336.34C330.341 337.22 554.602 336.38 680.295 335.72C681.295 326.72 684.725 290.73 680.745 248.12C676.536 203.06 662.958 141.15 622.153 102.13C585.978 67.54 534.164 56 468.133 67.82C419.089 77.26 376.185 126.33 375.755 126.82L375.715 126.86C375.425 127.18 346.569 159.44 344.389 186.25C343.639 195.49 343.709 205.19 343.769 214.57C343.899 233.94 344.019 252.23 337.33 265.61C331.691 276.9 322.282 285.95 313.983 293.93C307.774 299.9 302.424 305.06 299.895 309.87C297.255 314.91 289.116 328.95 277.068 336.32V336.34Z" fill="#202246"/>
<path d="M440.017 367.51C426.038 361.67 414.17 353.42 406.521 341.92C381.574 304.41 373.075 267.47 373.075 218.6C373.075 129.21 430.578 56.74 519.956 56.74C609.335 56.74 681.795 129.21 681.795 218.6C681.795 247.59 686.285 284.63 672.946 308.17C657.028 336.24 628.992 355.86 596.606 367.51" fill="#FAD6CE"/>
<path d="M551.709 324.806C562.793 321.491 570.315 313.909 568.509 307.872C566.704 301.834 556.255 299.628 545.171 302.943C534.088 306.258 526.566 313.84 528.371 319.877C530.176 325.915 540.625 328.121 551.709 324.806Z" fill="#F5B0B3"/>
<path d="M654.618 210.47C587.347 185.15 552.522 257.1 581.308 297.4C629.682 303.45 689.014 280.77 654.618 210.47Z" fill="#F2E7E3"/>
<mask id="mask0_1042_2925" style="mask-type:luminance" maskUnits="userSpaceOnUse" x="571" y="205" width="94" height="94">
<path d="M654.618 210.47C587.347 185.15 552.522 257.1 581.308 297.4C629.682 303.45 689.014 280.77 654.618 210.47Z" fill="white"/>
</mask>
<g mask="url(#mask0_1042_2925)">
<path d="M626.825 298.971C642.284 290.699 648.571 272.321 640.866 257.922C633.162 243.523 614.384 238.556 598.924 246.828C583.465 255.1 577.178 273.478 584.883 287.877C592.587 302.276 611.365 307.243 626.825 298.971Z" fill="#29191C"/>
<path d="M611.084 304.9C599.556 304.9 588.667 299.1 583.138 288.77C579.148 281.32 578.508 272.65 581.348 264.37C584.158 256.14 590.077 249.28 597.996 245.04C605.915 240.8 614.904 239.69 623.313 241.92C631.771 244.16 638.631 249.49 642.61 256.95C650.819 272.29 644.16 291.91 627.762 300.68C622.413 303.54 616.673 304.9 611.084 304.9ZM614.674 244.76C609.614 244.76 604.525 246.04 599.856 248.54C592.827 252.3 587.577 258.38 585.088 265.66C582.618 272.89 583.158 280.43 586.627 286.91C593.806 300.32 611.414 304.93 625.882 297.19C640.35 289.44 646.29 272.23 639.111 258.82C635.651 252.35 629.672 247.71 622.293 245.75C619.793 245.09 617.233 244.76 614.674 244.76Z" fill="#202246"/>
<path d="M626.432 272.79C618.013 276.41 616.253 279.2 616.643 288.36C616.673 289.18 615.544 289.44 615.224 288.68C611.604 280.26 608.814 278.5 599.656 278.89C598.836 278.92 598.576 277.79 599.336 277.47C607.755 273.85 609.514 271.06 609.124 261.9C609.094 261.08 610.224 260.82 610.544 261.58C614.164 270 616.953 271.76 626.112 271.37C626.932 271.34 627.192 272.47 626.432 272.79Z" fill="#F8C22A"/>
</g>
<path d="M596.076 300.8C590.827 300.8 585.737 300.47 580.988 299.88C579.618 299.71 578.648 298.46 578.818 297.09C578.988 295.72 580.238 294.75 581.608 294.92C605.925 297.96 639.72 293.93 654.958 272.59C665.687 257.56 664.817 237.03 652.359 211.57C651.749 210.33 652.269 208.83 653.508 208.23C654.748 207.62 656.248 208.14 656.848 209.38C673.446 243.3 667.187 264.06 659.018 275.5C645.55 294.36 619.233 300.81 596.066 300.81L596.076 300.8Z" fill="#202246"/>
<path d="M581.308 301.4C580.058 301.4 578.828 300.82 578.048 299.73C562.59 278.09 563.73 246.3 580.758 224.14C597.836 201.92 625.962 195.41 656.028 206.73C658.098 207.51 659.138 209.81 658.358 211.88C657.578 213.95 655.268 214.99 653.209 214.21C626.232 204.06 602.135 209.45 587.107 229.01C572.169 248.44 571.099 276.23 584.567 295.07C585.847 296.87 585.437 299.37 583.638 300.65C582.938 301.15 582.118 301.4 581.318 301.4H581.308Z" fill="#202246"/>
<path d="M626.392 269C630.423 269 633.691 265.732 633.691 261.7C633.691 257.668 630.423 254.4 626.392 254.4C622.361 254.4 619.093 257.668 619.093 261.7C619.093 265.732 622.361 269 626.392 269Z" fill="#F2E7E3"/>
<path d="M626.392 271C621.263 271 617.093 266.83 617.093 261.7C617.093 256.57 621.263 252.4 626.392 252.4C631.521 252.4 635.691 256.57 635.691 261.7C635.691 266.83 631.521 271 626.392 271ZM626.392 256.4C623.472 256.4 621.093 258.78 621.093 261.7C621.093 264.62 623.472 267 626.392 267C629.312 267 631.691 264.62 631.691 261.7C631.691 258.78 629.312 256.4 626.392 256.4Z" fill="#202246"/>
<path d="M399.762 285.82C440.466 226.57 510.177 265.68 509.607 315.2C473.382 347.83 411.74 363.16 399.762 285.82Z" fill="#F2E7E3"/>
<mask id="mask1_1042_2925" style="mask-type:luminance" maskUnits="userSpaceOnUse" x="399" y="255" width="111" height="87">
<path d="M399.762 285.82C440.466 226.57 510.177 265.68 509.607 315.2C473.382 347.83 411.74 363.16 399.762 285.82Z" fill="white"/>
</mask>
<g mask="url(#mask1_1042_2925)">
<path d="M473.159 342.48C490.571 340.426 503.135 325.612 501.221 309.394C499.308 293.175 483.641 281.693 466.229 283.748C448.817 285.803 436.253 300.616 438.167 316.834C440.081 333.053 455.748 344.535 473.159 342.48Z" fill="#29191C"/>
<path d="M469.133 344.72C452.415 344.72 438.067 333.03 436.187 317.09C434.148 299.81 447.516 283.98 465.983 281.81C484.441 279.62 501.129 291.91 503.169 309.19C505.208 326.47 491.84 342.3 473.372 344.48C471.943 344.65 470.533 344.73 469.133 344.73V344.72ZM440.127 316.62C441.907 331.73 456.615 342.45 472.913 340.53C489.21 338.61 501.019 324.75 499.239 309.65C497.459 294.54 482.741 283.82 466.453 285.74C450.156 287.66 438.347 301.52 440.127 316.62Z" fill="#202246"/>
<path d="M458.524 320.83C467.493 318.98 470.543 320.27 475.462 328C475.902 328.69 476.982 328.26 476.812 327.45C474.962 318.48 476.252 315.43 483.981 310.51C484.671 310.07 484.241 308.99 483.431 309.16C474.462 311.01 471.412 309.72 466.493 301.99C466.053 301.3 464.973 301.73 465.143 302.54C466.993 311.51 465.703 314.56 457.974 319.48C457.284 319.92 457.714 321 458.524 320.83Z" fill="#F8C22A"/>
</g>
<path d="M449.905 344.45C444.266 344.45 438.687 343.6 433.318 341.69C420.079 336.98 403.082 323.52 397.292 286.21C397.082 284.85 398.012 283.57 399.382 283.36C400.742 283.15 402.022 284.08 402.232 285.45C406.571 313.46 417.59 330.8 434.987 336.99C459.694 345.78 489.73 329.76 507.938 313.36C508.968 312.44 510.548 312.52 511.467 313.54C512.387 314.57 512.307 316.15 511.277 317.07C495.899 330.92 472.393 344.46 449.895 344.46L449.905 344.45Z" fill="#202246"/>
<path d="M509.607 319.2H509.557C507.348 319.17 505.578 317.36 505.608 315.15C505.878 291.99 489.11 269.81 465.743 262.41C442.226 254.96 419.379 264.32 403.051 288.08C401.801 289.9 399.312 290.36 397.492 289.11C395.672 287.86 395.212 285.37 396.462 283.55C414.65 257.08 441.456 246.33 468.163 254.79C494.799 263.23 513.907 288.65 513.607 315.25C513.587 317.44 511.797 319.2 509.607 319.2Z" fill="#202246"/>
<path d="M452.205 319.01C456.236 319.01 459.504 315.742 459.504 311.71C459.504 307.678 456.236 304.41 452.205 304.41C448.174 304.41 444.906 307.678 444.906 311.71C444.906 315.742 448.174 319.01 452.205 319.01Z" fill="#F2E7E3"/>
<path d="M452.225 321.01C451.675 321.01 451.125 320.96 450.575 320.86C448.126 320.42 445.996 319.06 444.576 317.02C441.646 312.81 442.676 307.01 446.886 304.07C448.925 302.65 451.395 302.11 453.835 302.54C456.284 302.98 458.414 304.34 459.834 306.38C461.254 308.42 461.794 310.89 461.364 313.33C460.924 315.78 459.564 317.9 457.524 319.33C455.944 320.43 454.115 321 452.225 321V321.01ZM452.195 306.41C451.125 306.41 450.075 306.74 449.175 307.36C446.776 309.03 446.186 312.34 447.856 314.74C448.665 315.9 449.875 316.68 451.275 316.93C452.675 317.18 454.075 316.87 455.235 316.06C456.394 315.25 457.174 314.04 457.424 312.64C457.674 311.25 457.364 309.84 456.554 308.68C455.745 307.52 454.535 306.74 453.135 306.49C452.825 306.43 452.505 306.41 452.195 306.41Z" fill="#202246"/>
<path d="M566.49 207.03C565.96 207.03 565.42 206.92 564.91 206.7C562.88 205.82 561.95 203.47 562.82 201.44C568.49 188.31 587.627 184.51 588.437 184.36C590.607 183.94 592.706 185.37 593.116 187.54C593.526 189.71 592.107 191.81 589.937 192.22C585.557 193.07 573.469 196.96 570.169 204.62C569.52 206.13 568.04 207.04 566.5 207.04L566.49 207.03Z" fill="#202246"/>
<path d="M478.891 234.98C477.912 234.98 476.922 234.62 476.152 233.89C470.073 228.17 457.434 229.41 453.075 230.37C450.915 230.84 448.785 229.48 448.305 227.33C447.825 225.17 449.185 223.04 451.335 222.56C452.145 222.38 471.212 218.26 481.631 228.06C483.241 229.57 483.321 232.11 481.801 233.71C481.011 234.55 479.951 234.97 478.891 234.97V234.98Z" fill="#202246"/>
<path d="M369.486 252.77C349.778 238.28 314.483 260.46 326.631 295.74C341.609 339.26 383.034 320.51 385.953 317.77C388.873 315.03 369.496 252.78 369.496 252.78L369.486 252.77Z" fill="#FAD6CE"/>
<path d="M362.187 327.21C358.957 327.21 355.597 326.87 352.238 326.04C338.86 322.74 329.261 312.88 323.712 296.74C316.432 275.6 325.211 259.7 335.86 251.87C347.108 243.6 361.357 242.96 371.315 250.28L372.135 250.88L372.435 251.85C372.485 252.01 377.345 267.64 381.784 283.4C391.253 317.01 389.773 318.4 388.063 320.01C386.363 321.61 375.265 327.21 362.197 327.21H362.187ZM355.387 251.37C350.048 251.37 344.449 253.21 339.509 256.84C330.631 263.37 323.352 276.76 329.541 294.73C334.2 308.28 341.959 316.69 352.588 319.74C365.486 323.44 379.474 318.09 383.164 315.94C382.964 309.84 374.985 280.92 366.846 254.69C363.476 252.47 359.507 251.37 355.387 251.37Z" fill="#202246"/>
<path d="M359.107 268.81C359.107 268.81 342.969 264.47 336.99 281.23L359.107 268.81Z" fill="#FAD6CE"/>
<path d="M336.99 283.29C336.76 283.29 336.53 283.25 336.3 283.17C335.23 282.79 334.67 281.61 335.05 280.54C341.599 262.21 359.457 266.78 359.637 266.82C360.737 267.11 361.387 268.24 361.087 269.34C360.797 270.43 359.667 271.09 358.567 270.79C357.977 270.64 344.169 267.2 338.909 281.92C338.609 282.76 337.82 283.29 336.97 283.29H336.99Z" fill="#202246"/>
<path d="M375.212 337.508L376.53 337.174C378.976 336.554 380.457 334.068 379.838 331.622L375.449 314.289C374.83 311.842 372.344 310.361 369.898 310.98L368.58 311.314C366.133 311.934 364.652 314.42 365.272 316.866L369.66 334.199C370.28 336.646 372.765 338.127 375.212 337.508Z" fill="#F8C22A"/>
<path d="M374.075 340.76C372.715 340.76 371.375 340.39 370.175 339.68C368.416 338.63 367.176 336.97 366.676 334.98L362.287 317.64C361.787 315.66 362.087 313.6 363.126 311.84C364.176 310.08 365.836 308.84 367.826 308.34L369.146 308.01C371.125 307.51 373.185 307.81 374.945 308.85C376.705 309.9 377.944 311.56 378.444 313.55L382.834 330.89C383.334 332.87 383.034 334.93 381.994 336.69C380.954 338.45 379.284 339.69 377.295 340.19L375.975 340.52C375.345 340.68 374.715 340.76 374.085 340.76H374.075ZM371.015 313.95C370.905 313.95 370.775 313.96 370.645 314L369.326 314.33C368.806 314.46 368.536 314.81 368.416 315.01C368.296 315.21 368.126 315.61 368.256 316.13L372.645 333.47C372.775 333.99 373.125 334.26 373.325 334.38C373.525 334.5 373.925 334.67 374.445 334.54L375.765 334.21C376.285 334.08 376.555 333.73 376.675 333.53C376.795 333.33 376.965 332.93 376.835 332.41L372.445 315.07C372.315 314.55 371.965 314.28 371.765 314.16C371.615 314.07 371.355 313.95 371.005 313.95H371.015Z" fill="#202246"/>
<path d="M649.979 192.15C654.778 168.16 695.803 160.76 710.601 195.01C728.859 237.26 685.614 251.32 681.615 251.26C677.615 251.2 649.989 192.15 649.989 192.15H649.979Z" fill="#FAD6CE"/>
<path d="M681.595 254.35H681.555C679.205 254.31 677.186 254.28 661.528 223.07C654.189 208.43 647.249 193.61 647.179 193.46L646.75 192.54L646.949 191.54C649.379 179.42 660.338 170.29 674.216 168.82C687.354 167.44 704.562 173.26 713.421 193.79C720.19 209.46 719.74 223.21 712.081 234.67C702.412 249.13 684.625 254.36 681.595 254.36V254.35ZM653.219 191.8C664.887 216.68 678.485 243.44 682.435 248.06C686.514 247.19 700.523 241.72 707.582 230.25C713.381 220.83 713.441 209.39 707.762 196.24C700.223 178.79 685.824 173.8 674.866 174.96C664.067 176.1 655.498 182.81 653.219 191.8Z" fill="#202246"/>
<path d="M668.447 197.01C668.447 197.01 677.446 182.93 693.164 191.28L668.447 197.01Z" fill="#FAD6CE"/>
<path d="M668.447 199.07C668.067 199.07 667.687 198.97 667.337 198.75C666.377 198.14 666.097 196.87 666.717 195.91C666.817 195.75 676.946 180.34 694.133 189.47C695.133 190 695.513 191.25 694.983 192.25C694.453 193.25 693.203 193.63 692.204 193.1C678.325 185.72 670.516 197.61 670.186 198.12C669.796 198.73 669.127 199.07 668.447 199.07Z" fill="#202246"/>
<path d="M690.117 234.843L688.918 235.485C686.693 236.675 685.854 239.445 687.045 241.67L695.479 257.435C696.67 259.66 699.439 260.499 701.664 259.308L702.863 258.667C705.088 257.476 705.926 254.707 704.736 252.481L696.301 236.716C695.111 234.491 692.342 233.652 690.117 234.843Z" fill="#F8C22A"/>
<path d="M699.513 262.9C696.783 262.9 694.133 261.43 692.753 258.86L684.315 243.09C683.355 241.29 683.145 239.22 683.735 237.26C684.325 235.3 685.644 233.69 687.444 232.73L688.644 232.09C692.364 230.1 697.013 231.51 699.003 235.23L707.442 251C708.401 252.8 708.611 254.87 708.021 256.83C707.432 258.79 706.112 260.4 704.312 261.36L703.112 262C701.962 262.61 700.732 262.9 699.513 262.9ZM692.254 237.35C692.014 237.35 691.784 237.41 691.554 237.53L690.354 238.17C689.884 238.42 689.704 238.83 689.634 239.05C689.564 239.27 689.494 239.71 689.744 240.18L698.183 255.95C698.573 256.67 699.473 256.94 700.192 256.56L701.392 255.92C701.862 255.67 702.042 255.26 702.112 255.04C702.182 254.82 702.252 254.38 702.002 253.91L693.563 238.14C693.293 237.64 692.783 237.36 692.254 237.36V237.35Z" fill="#202246"/>
<path d="M494.379 135.26C522.156 173.81 610.774 202.01 654.609 205.2C654.609 205.2 673.126 318.95 654.609 345.02C636.091 371.1 691.074 348.99 695.613 329.15C700.153 309.31 685.415 301.94 685.415 288.9C685.415 275.86 705.252 266.21 705.252 246.09C705.252 225.97 691.644 230.51 691.644 222.57C691.644 214.63 700.143 200.61 696.743 186.08C693.344 171.55 674.266 155.11 670.476 147.17C666.697 139.23 592.897 23.85 467.673 65.38C472.242 103.55 494.369 135.26 494.369 135.26H494.379Z" fill="#29191C"/>
<path d="M655.648 359.41C652.539 359.41 650.369 358.45 649.169 356.55C647.339 353.63 648.449 349.39 652.579 343.58C669.007 320.44 654.758 222.57 652.449 207.54C610.674 203.86 521.426 177.07 492.35 136.73L492.33 136.7C491.41 135.38 469.793 104.04 465.203 65.69L464.963 63.66L466.903 63.02C495.979 53.38 524.675 51.38 552.182 57.09C574.419 61.7 595.916 71.33 616.084 85.7C650.529 110.25 670.506 141.4 672.746 146.11C673.986 148.71 677.466 152.81 681.145 157.15C688.154 165.42 696.883 175.71 699.183 185.52C701.522 195.52 698.663 205.07 696.353 212.75C695.163 216.71 694.143 220.12 694.143 222.59C694.143 224.07 694.813 224.63 697.433 226.19C701.542 228.64 707.742 232.33 707.742 246.11C707.742 258.1 701.342 266.44 695.703 273.79C691.514 279.25 687.904 283.96 687.904 288.92C687.904 293.56 690.074 297.46 692.594 301.98C696.513 309.02 700.952 317 698.043 329.72C694.863 343.64 670.806 357.11 658.998 359.12C657.778 359.33 656.658 359.43 655.638 359.43L655.648 359.41ZM496.429 133.81C522.666 170.2 609.124 199.37 654.798 202.7L656.768 202.84L657.088 204.79C657.848 209.48 675.556 319.85 656.658 346.46C652.579 352.21 653.399 353.87 653.409 353.88C653.569 354.14 654.788 354.74 658.178 354.16C669.607 352.22 690.694 339.46 693.183 328.58C695.663 317.72 691.894 310.94 688.234 304.38C685.614 299.68 682.915 294.82 682.915 288.88C682.915 282.21 687.204 276.62 691.754 270.7C697.163 263.65 702.752 256.36 702.752 246.07C702.752 235.13 698.573 232.64 694.883 230.45C692.194 228.85 689.154 227.04 689.154 222.55C689.154 219.35 690.274 215.61 691.574 211.28C693.703 204.17 696.353 195.33 694.323 186.63C692.304 177.99 684.005 168.21 677.336 160.36C673.266 155.56 669.757 151.42 668.237 148.23C666.077 143.7 646.77 113.68 613.184 89.75C569.28 58.45 521.266 50.84 470.432 67.11C475.362 103.07 495.919 133.07 496.429 133.81Z" fill="#202246"/>
<path d="M494.379 135.26C494.379 216.33 394.612 285.83 394.612 285.83C394.612 285.83 402.561 351.78 410.48 360.62C418.409 369.45 353.228 313.28 353.228 292.31C353.228 271.34 369.665 269.81 369.665 254.41C369.665 239.01 358.937 239.83 353.228 210.48C337.92 131.87 416.719 73.47 464.263 65.71C487.1 61.98 494.369 135.27 494.369 135.27L494.379 135.26Z" fill="#29191C"/>
<path d="M411.07 363.95C410.84 363.95 410.62 363.92 410.4 363.86C406.831 362.83 350.818 312.89 350.818 292.3C350.818 280.12 355.987 273.99 360.557 268.57C364.156 264.31 367.256 260.62 367.256 254.4C367.256 248.18 365.266 244.81 362.257 240.07C358.777 234.59 354.008 227.08 350.858 210.93C345.189 181.79 351.868 152.48 370.186 126.18C395.862 89.31 436.757 67.75 463.883 63.32C467.513 62.73 470.982 63.68 474.202 66.15C491.05 79.1 496.549 132.74 496.779 135.02C496.779 135.1 496.789 135.18 496.789 135.26C496.789 177.91 469.323 217.15 446.276 242.57C424.508 266.58 402.461 283.12 397.172 286.96C400.392 313.21 406.931 353.05 412.27 359.01C412.95 359.77 414.21 361.18 413.18 362.82C412.73 363.54 411.89 363.96 411.05 363.96L411.07 363.95ZM465.943 67.98C465.523 67.98 465.093 68.02 464.663 68.09C437.677 72.49 397.922 94.81 374.155 128.95C356.607 154.15 350.188 182.19 355.607 210.02C358.577 225.27 362.876 232.05 366.336 237.49C369.426 242.35 372.085 246.55 372.085 254.41C372.085 262.27 368.096 267.12 364.246 271.69C360.017 276.7 355.647 281.89 355.647 292.3C355.647 306.26 388.773 339.06 404.391 353C398.042 333.24 392.893 291.72 392.223 286.12C392.113 285.23 392.503 284.36 393.243 283.85C393.492 283.68 418.309 266.26 442.786 239.25C465.203 214.51 491.92 176.42 491.98 135.39C491.69 132.59 486.14 81.41 471.282 69.99C469.533 68.65 467.783 67.99 465.953 67.99L465.943 67.98Z" fill="#202246"/>
<path d="M470.382 65.94C507.838 26.39 446.736 -36.77 399.922 37.6C457.524 21.45 470.382 65.94 470.382 65.94Z" fill="#29191C"/>
<path d="M470.382 69.03C470.142 69.03 469.893 69 469.653 68.94C468.573 68.68 467.713 67.86 467.413 66.79C466.893 65.04 454.545 25.49 400.761 40.57C399.532 40.92 398.212 40.47 397.442 39.44C396.672 38.41 396.622 37.02 397.302 35.94C418.579 2.12999 440.446 -0.970012 451.595 0.189987C465.653 1.64999 477.552 11.11 482.651 24.87C488.08 39.55 484.341 55.7 472.632 68.06C472.042 68.68 471.222 69.03 470.382 69.03ZM423.299 30.99C440.316 30.99 451.665 37.15 458.784 43.37C465.383 49.14 469.263 55.63 471.332 60.01C478.821 50.04 480.891 38.01 476.832 27.03C472.562 15.5 462.643 7.57999 450.945 6.35999C441.966 5.42999 424.868 7.85999 406.931 32.71C412.89 31.51 418.339 30.99 423.299 30.99Z" fill="#202246"/>
<path d="M1439.91 340.95H0.0935059V367.5H1439.91V340.95Z" fill="#FEF0E1"/>
<path d="M0.0935059 212.45C61.7055 254.12 165.502 340.95 367.766 340.95C592.987 340.95 730.959 212.45 1035.86 212.45C1279.78 212.45 1439.9 340.95 1439.9 340.95H0.0935059V212.45Z" fill="#FEF0E1"/>
<path d="M791.791 247.89C798.57 232.54 749.846 219.54 729.059 222.57C708.271 225.59 684.085 266.79 691.644 271.7C699.203 276.61 715.09 285.68 719.99 281.9C724.899 278.12 726.029 261.7 726.029 261.7C726.029 261.7 724.519 282.56 731.698 282.8C738.877 283.04 778.932 276.99 791.78 247.89H791.791Z" fill="#FAD6CE"/>
<path d="M732.068 285.31C731.908 285.31 731.758 285.31 731.628 285.31C729.949 285.25 728.429 284.52 727.219 283.18C726.249 282.1 725.509 280.64 724.959 278.97C724.049 281.05 722.92 282.81 721.52 283.89C715.261 288.72 699.263 279.64 690.284 273.8C688.634 272.73 686.924 270.26 688.164 264.62C691.164 250.96 710.341 222.77 728.699 220.1C745.607 217.64 782.772 225.55 792.471 238.32C795.76 242.64 795.16 246.46 794.08 248.91C780.692 279.24 740.317 285.32 732.068 285.32V285.31ZM735.978 224.62C733.588 224.62 731.378 224.75 729.419 225.04C713.901 227.3 695.753 253.34 693.043 265.68C692.414 268.53 692.884 269.52 693.003 269.6C706.192 278.18 716.31 281.58 718.47 279.92C721.21 277.81 723.07 268.02 723.53 261.66C723.53 261.61 723.53 261.56 723.54 261.52C723.639 260.14 724.829 259.1 726.209 259.21C727.589 259.31 728.619 260.5 728.529 261.88C728.529 261.92 728.529 261.97 728.529 262.02C728.119 267.9 728.599 277.23 730.939 279.83C731.309 280.24 731.568 280.3 731.788 280.31C737.358 280.51 777.003 275.21 789.501 246.89C790.001 245.75 790.451 243.93 788.481 241.35C781.522 232.19 753.806 224.63 735.978 224.63V224.62Z" fill="#202246"/>
<path d="M289.016 341.18C279.457 327.4 324.831 305.4 345.809 304.42C366.786 303.44 398.342 339.31 391.853 345.57C385.364 351.83 371.485 363.75 365.946 360.96C360.417 358.18 356.187 342.27 356.187 342.27C356.187 342.27 361.627 362.47 354.618 364.06C347.608 365.65 307.134 367.31 289.006 341.17L289.016 341.18Z" fill="#FAD6CE"/>
<path d="M344.269 367.35C328.611 367.35 301.394 363.42 286.966 342.61C285.447 340.42 284.137 336.78 286.536 331.91C293.636 317.53 328.621 302.72 345.699 301.93C346.019 301.91 346.349 301.91 346.679 301.91C365.076 301.91 388.503 325.34 393.942 337.96C396.232 343.27 395.022 346.01 393.603 347.38C385.894 354.81 371.895 366.75 364.846 363.21C363.266 362.42 361.827 360.9 360.537 359.03C360.307 360.77 359.867 362.34 359.117 363.59C358.187 365.13 356.837 366.14 355.197 366.51C353.458 366.91 349.518 367.34 344.279 367.34L344.269 367.35ZM291.076 339.76C308.724 365.2 348.668 362.87 354.078 361.64C354.298 361.59 354.548 361.48 354.828 361.01C356.637 358.01 355.337 348.79 353.828 343.09C353.808 343.03 353.798 342.98 353.788 342.92C353.438 341.59 354.228 340.22 355.557 339.86C356.887 339.51 358.257 340.29 358.617 341.62C358.627 341.66 358.637 341.71 358.657 341.76C360.317 347.92 363.996 357.17 367.086 358.72C369.516 359.93 378.804 354.68 390.133 343.76C390.233 343.66 390.503 342.6 389.353 339.92C384.354 328.32 361.617 306.15 345.939 306.91C329.181 307.69 296.815 322.41 291.026 334.11C289.586 337.02 290.366 338.72 291.076 339.74V339.76Z" fill="#202246"/>
</g>
<defs>
<clipPath id="clip0_1042_2925">
<rect width="1439.81" height="367.51" fill="white" transform="translate(0.0935059)"/>
</clipPath>
</defs>
</svg>
